<?xml version="1.0" encoding="utf-8"?>
<!-- Generator: Adobe Illustrator 18.1.1, SVG Export Plug-In . SVG Version: 6.00 Build 0)  -->
<svg version="1.1" id="Layer_1" xmlns="http://www.w3.org/2000/svg" xmlns:xlink="http://www.w3.org/1999/xlink" x="0px" y="0px"
	 width="151.7px" height="40.8px" viewBox="0 0 151.7 40.8" enable-background="new 0 0 151.7 40.8" xml:space="preserve">
<path fill-rule="evenodd" clip-rule="evenodd" fill="#30664A" d="M3.6,26.8L0,0h0.5h4.2l1.1,14.1L6.8,0h0.5h4.2l-4,34.1H7H2.8
	L3.6,26.8L3.6,26.8z M22.1,31.5c0,0.8-0.2,1.5-0.7,2c-0.5,0.5-1.1,0.8-2,0.8l-0.5,0c-0.3,0-0.7-0.1-1.1-0.2
	c-0.4-0.1-0.8-0.2-1.2-0.5v7.2h-0.5h-3.7V6.2H13h3.7v0.5c0.6-0.2,1.2-0.4,1.7-0.5C18.8,6.1,19.2,6,19.6,6h0.5c0.7,0,1.2,0.2,1.5,0.6
	c0.3,0.4,0.5,1,0.5,1.9V31.5L22.1,31.5z M16.7,30.4c0,0.2,0.1,0.4,0.2,0.5c0.1,0.1,0.3,0.2,0.4,0.3c0.2,0,0.4-0.1,0.6-0.2
	c0.1-0.1,0.2-0.3,0.2-0.5V10c0-0.3-0.1-0.5-0.2-0.6c-0.1-0.2-0.3-0.3-0.5-0.3c-0.2,0-0.3,0.1-0.5,0.3c-0.1,0.2-0.2,0.4-0.2,0.6V30.4
	L16.7,30.4z M24.2,22.7c0-1,0.1-1.9,0.2-2.5c0.2-0.6,0.6-1.1,1.4-1.7c0.4-0.3,1-0.5,1.6-0.8c0.6-0.3,1.4-0.6,2.4-1v-7
	c0-0.2-0.1-0.4-0.2-0.5C29.4,9.1,29.2,9,29,9c-0.2,0-0.4,0.1-0.5,0.2c-0.1,0.1-0.2,0.3-0.2,0.5v5.9h-0.5h-3.6V8.8
	c0-1,0.5-1.7,1.4-2.2c1-0.5,2-0.7,3.2-0.7h0.5c0,0,0.1,0,0.1,0c0,0,0,0,0.1,0c1.1,0,2.1,0.3,3,0.8c0.9,0.5,1.4,1.2,1.4,2.2v25.3
	h-0.5h-3.6v-0.4c-0.6,0.2-1.2,0.3-1.6,0.4c-0.5,0.1-0.9,0.1-1.3,0.1l-0.5,0c-0.8,0-1.3-0.2-1.7-0.6c-0.4-0.4-0.5-0.9-0.5-1.5V22.7
	L24.2,22.7z M29.8,21.5c0-0.2-0.1-0.4-0.2-0.5c-0.1-0.1-0.3-0.2-0.5-0.2c-0.2,0-0.4,0.1-0.5,0.2c-0.1,0.1-0.2,0.3-0.2,0.5v8.9
	c0,0.2,0.1,0.4,0.2,0.5c0.1,0.1,0.3,0.2,0.5,0.3c0.2,0,0.4-0.1,0.6-0.3c0.1-0.1,0.2-0.3,0.2-0.5V21.5L29.8,21.5z M35.5,31.1
	C35.5,31.1,35.6,31.1,35.5,31.1c0.1,0,0.1,0,0.1,0c0,0,0.1,0,0.1,0c0.3-0.1,0.4-0.2,0.6-0.4c0.1-0.2,0.2-0.7,0.2-1.3V6.2H37h9.2v28
	h-0.5H42V9.2h-1.4v20.9c0,1.3-0.3,2.3-0.9,3.1c-0.6,0.8-1.5,1.1-2.7,1.1l-0.5,0c-0.2,0-0.3-0.1-0.5-0.1c-0.2,0-0.3,0-0.5-0.1
	c-0.1,0-0.1,0-0.2,0c-0.1,0-0.2,0-0.3,0v-3H35.5L35.5,31.1z M47.4,3.6V0h0.5h8.7v3.6h-2.1v30.5h-0.5h-4.5V3.6H47.4L47.4,3.6z
	 M67.4,31.5c0,0.8-0.2,1.5-0.7,2c-0.5,0.5-1.1,0.8-2,0.8l-0.5,0c-0.3,0-0.7-0.1-1.1-0.2c-0.4-0.1-0.8-0.2-1.2-0.5v7.2h-0.5h-3.7V6.2
	h0.5h3.7v0.5c0.6-0.2,1.2-0.4,1.7-0.5C64.1,6.1,64.5,6,64.8,6h0.5c0.7,0,1.2,0.2,1.5,0.6c0.3,0.4,0.5,1,0.5,1.9V31.5L67.4,31.5z
	 M61.9,30.4c0,0.2,0.1,0.4,0.2,0.5c0.1,0.1,0.3,0.2,0.4,0.3c0.2,0,0.4-0.1,0.6-0.2c0.1-0.1,0.2-0.3,0.2-0.5V10
	c0-0.3-0.1-0.5-0.2-0.6c-0.1-0.2-0.3-0.3-0.5-0.3c-0.2,0-0.3,0.1-0.5,0.3C62,9.5,61.9,9.7,61.9,10V30.4L61.9,30.4z M69.4,22.7
	c0-1,0.1-1.9,0.2-2.5c0.2-0.6,0.6-1.1,1.4-1.7c0.4-0.3,1-0.5,1.6-0.8c0.6-0.3,1.4-0.6,2.4-1v-7c0-0.2-0.1-0.4-0.2-0.5
	C74.7,9.1,74.5,9,74.3,9c-0.2,0-0.4,0.1-0.5,0.2c-0.1,0.1-0.2,0.3-0.2,0.5v5.9h-0.5h-3.6V8.8c0-1,0.5-1.7,1.4-2.2
	c1-0.5,2-0.7,3.2-0.7h0.5c0,0,0.1,0,0.1,0c0,0,0,0,0.1,0c1.1,0,2.1,0.3,3,0.8c0.9,0.5,1.4,1.2,1.4,2.2v25.3h-0.5H75v-0.4
	c-0.6,0.2-1.2,0.3-1.6,0.4c-0.5,0.1-0.9,0.1-1.2,0.1l-0.5,0c-0.8,0-1.3-0.2-1.7-0.6c-0.4-0.4-0.5-0.9-0.5-1.5V22.7L69.4,22.7z
	 M75,21.5c0-0.2-0.1-0.4-0.2-0.5c-0.1-0.1-0.3-0.2-0.5-0.2c-0.2,0-0.4,0.1-0.5,0.2c-0.1,0.1-0.2,0.3-0.2,0.5v8.9
	c0,0.2,0.1,0.4,0.2,0.5c0.1,0.1,0.3,0.2,0.5,0.3c0.2,0,0.4-0.1,0.6-0.3c0.1-0.1,0.2-0.3,0.2-0.5V21.5L75,21.5z M86.7,6.2h0.5h3.6v28
	h-0.5h-3.6V21h-1.4v13.2h-0.5h-3.7v-28h0.5h3.7v11.8h1.4V6.2L86.7,6.2z M92.9,8.8c0-1,0.5-1.7,1.4-2.2c0.9-0.5,2-0.7,3.1-0.7h0.5
	c0,0,0.1,0,0.1,0c0,0,0.1,0,0.2,0c1.1,0,2.1,0.3,3,0.8c0.9,0.5,1.3,1.2,1.3,2.2v8.5H102h-3.6V9.8c0-0.2-0.1-0.4-0.2-0.5
	c-0.1-0.1-0.3-0.2-0.5-0.2c-0.2,0-0.3,0.1-0.5,0.2C97,9.4,97,9.6,97,9.8v20.8c0,0.2,0.1,0.4,0.2,0.5c0.1,0.1,0.3,0.2,0.4,0.3
	c0.2,0,0.4-0.1,0.6-0.2c0.1-0.1,0.2-0.3,0.2-0.5v-8.4h0.5h3.6v9.5c0,0.9-0.4,1.5-1.3,2c-0.9,0.5-1.9,0.7-3,0.7c-0.1,0-0.1,0-0.2,0
	c0,0-0.1,0-0.1,0l-0.5,0c-1.1,0-2.2-0.3-3.1-0.7c-0.9-0.5-1.4-1.1-1.4-2.1V8.8L92.9,8.8z M115.9,30.5c0,1-0.3,1.8-0.9,2.6
	c-0.6,0.7-1.4,1.1-2.4,1.1h-0.5h-7.5V0h0.5h8.6v3.6h-4.2v10.4h3c1,0,1.8,0.4,2.4,1.1c0.6,0.7,0.9,1.6,0.9,2.6V30.5L115.9,30.5z
	 M109.5,30.5c0.1,0,0.1,0,0.2,0c0.1,0,0.1,0,0.2,0c0.4,0,0.6-0.1,0.8-0.2c0.2-0.1,0.3-0.3,0.3-0.4V18.2c0-0.2-0.1-0.3-0.4-0.4
	c-0.2-0.1-0.6-0.1-1.1-0.1V30.5L109.5,30.5z M117.8,22.7c0-1,0.1-1.9,0.2-2.5c0.2-0.6,0.6-1.1,1.4-1.7c0.4-0.3,1-0.5,1.6-0.8
	c0.6-0.3,1.4-0.6,2.4-1v-7c0-0.2-0.1-0.4-0.2-0.5C123,9.1,122.9,9,122.7,9c-0.2,0-0.4,0.1-0.5,0.2c-0.1,0.1-0.2,0.3-0.2,0.5v5.9
	h-0.5h-3.6V8.8c0-1,0.5-1.7,1.4-2.2c1-0.5,2-0.7,3.2-0.7h0.5c0,0,0.1,0,0.1,0c0,0,0,0,0.1,0c1.1,0,2.1,0.3,3,0.8
	c0.9,0.5,1.4,1.2,1.4,2.2v25.3H127h-3.6v-0.4c-0.6,0.2-1.2,0.3-1.6,0.4c-0.5,0.1-0.9,0.1-1.2,0.1l-0.5,0c-0.8,0-1.3-0.2-1.7-0.6
	c-0.4-0.4-0.5-0.9-0.5-1.5V22.7L117.8,22.7z M123.4,21.5c0-0.2-0.1-0.4-0.2-0.5c-0.1-0.1-0.3-0.2-0.5-0.2c-0.2,0-0.4,0.1-0.5,0.2
	c-0.1,0.1-0.2,0.3-0.2,0.5v8.9c0,0.2,0.1,0.4,0.2,0.5c0.1,0.1,0.3,0.2,0.5,0.3c0.2,0,0.4-0.1,0.6-0.3c0.1-0.1,0.2-0.3,0.2-0.5V21.5
	L123.4,21.5z M135.1,6.2h0.5h3.6v28h-0.5h-3.6V21h-1.4v13.2h-0.5h-3.7v-28h0.5h3.7v11.8h1.4V6.2L135.1,6.2z M141.2,34.1v-28h0.5h3.6
	v8.5l1.4-8.5h0.5h3.9l-2.6,12.1l3.1,15.9h-0.5h-4l-1.9-11.7v11.7h-0.5H141.2z"/>
</svg>
