<?xml version="1.0" encoding="utf-8"?>
<!-- Generator: Adobe Illustrator 18.1.1, SVG Export Plug-In . SVG Version: 6.00 Build 0)  -->
<svg version="1.1" id="Layer_1" xmlns="http://www.w3.org/2000/svg" xmlns:xlink="http://www.w3.org/1999/xlink" x="0px" y="0px"
	 width="18.1px" height="20.4px" viewBox="-56 36.6 18.1 20.4" enable-background="new -56 36.6 18.1 20.4" xml:space="preserve">
<g>
	<g>
		<path fill="#7C7C7C" d="M-40.6,38.8h-0.3v-0.2c0-1.1-0.9-2-2-2c-1.1,0-2,0.9-2,2v0.2h-4v-0.2c0-1.1-0.9-2-2-2c-1.1,0-2,0.9-2,2
			v0.2h-0.4c-1.5,0-2.7,1.2-2.7,2.7v12.9c0,1.5,1.2,2.7,2.7,2.7h12.7c1.5,0,2.7-1.2,2.7-2.7V41.5C-37.9,40-39.1,38.8-40.6,38.8z
			 M-43.5,38.6c0-0.3,0.3-0.6,0.6-0.6c0.3,0,0.6,0.3,0.6,0.6v1.8c0,0.3-0.3,0.6-0.6,0.6c-0.3,0-0.6-0.3-0.6-0.6V38.6z M-51.5,38.6
			c0-0.3,0.3-0.6,0.6-0.6c0.3,0,0.5,0.3,0.5,0.6v1.8c0,0.3-0.3,0.6-0.6,0.6s-0.5-0.3-0.5-0.6V38.6z M-39.4,54.3
			c0,0.7-0.6,1.2-1.2,1.2h-12.7c-0.7,0-1.2-0.6-1.2-1.2V41.5c0-0.7,0.6-1.2,1.2-1.2h0.4v0.2c0,1.1,0.9,2,2,2c1.1,0,2-0.9,2-2v-0.3h4
			v0.2c0,1.1,0.9,2,2,2c1.1,0,2-0.9,2-2v-0.2h0.3c0.7,0,1.2,0.6,1.2,1.2V54.3z"/>
		<path fill="#7C7C7C" d="M-50.9,45.6h-0.2c-0.7,0-1.3,0.6-1.3,1.3v0.2c0,0.7,0.6,1.3,1.3,1.3h0.2c0.7,0,1.3-0.6,1.3-1.3v-0.2
			C-49.6,46.2-50.2,45.6-50.9,45.6z"/>
		<path fill="#7C7C7C" d="M-46.9,45.6h-0.2c-0.7,0-1.3,0.6-1.3,1.3v0.2c0,0.7,0.6,1.3,1.3,1.3h0.2c0.7,0,1.3-0.6,1.3-1.3v-0.2
			C-45.5,46.2-46.1,45.6-46.9,45.6z"/>
		<path fill="#7C7C7C" d="M-42.8,45.6H-43c-0.7,0-1.3,0.6-1.3,1.3v0.2c0,0.7,0.6,1.3,1.3,1.3h0.2c0.7,0,1.3-0.6,1.3-1.3v-0.2
			C-41.5,46.2-42.1,45.6-42.8,45.6z"/>
		<path fill="#7C7C7C" d="M-50.9,49.3h-0.2c-0.7,0-1.3,0.6-1.3,1.3v0.2c0,0.7,0.6,1.3,1.3,1.3h0.2c0.7,0,1.3-0.6,1.3-1.3v-0.2
			C-49.6,49.9-50.2,49.3-50.9,49.3z"/>
		<path fill="#7C7C7C" d="M-46.9,49.3h-0.2c-0.7,0-1.3,0.6-1.3,1.3v0.2c0,0.7,0.6,1.3,1.3,1.3h0.2c0.7,0,1.3-0.6,1.3-1.3v-0.2
			C-45.5,49.9-46.1,49.3-46.9,49.3z"/>
		<path fill="#7C7C7C" d="M-42.8,49.3H-43c-0.7,0-1.3,0.6-1.3,1.3v0.2c0,0.7,0.6,1.3,1.3,1.3h0.2c0.7,0,1.3-0.6,1.3-1.3v-0.2
			C-41.5,49.9-42.1,49.3-42.8,49.3z"/>
	</g>
</g>
</svg>
