<?xml version="1.0" encoding="utf-8"?>
<!-- Generator: Adobe Illustrator 18.1.1, SVG Export Plug-In . SVG Version: 6.00 Build 0)  -->
<svg version="1.1" id="Layer_1" xmlns="http://www.w3.org/2000/svg" xmlns:xlink="http://www.w3.org/1999/xlink" x="0px" y="0px"
	 width="54.8px" height="49.7px" viewBox="-38 22.3 54.8 49.7" enable-background="new -38 22.3 54.8 49.7" xml:space="preserve">
<g>
	<g>
		
			<polyline fill="none" stroke="#FFFFFF" stroke-width="2" stroke-linecap="round" stroke-linejoin="round" stroke-miterlimit="10" points="
			-5.5,44.6 -5.5,23.3 -28.7,23.3 -37,31.6 -37,65.4 -12.5,65.4 		"/>
		
			<polyline fill="none" stroke="#FFFFFF" stroke-width="2" stroke-linecap="round" stroke-linejoin="round" stroke-miterlimit="10" points="
			-28.6,23.5 -28.6,31.6 -37,31.6 		"/>
	</g>
</g>
<path fill="#FFFFFF" stroke="#FFFFFF" stroke-width="0.5" stroke-miterlimit="10" d="M14.1,56.2c-0.7-1-1.6-2-2.6-3v-6.1
	c0-1.6-1.3-2.8-2.8-2.8H3l1.4-1.4c0.4,0.1,0.8,0,1.1-0.3c0.5-0.5,0.5-1.3,0-1.8s-1.3-0.5-1.8,0c-0.3,0.3-0.4,0.7-0.3,1.1l-1.7,1.7
	L0,41.9c0.1-0.4,0-0.8-0.3-1.1c-0.5-0.5-1.3-0.5-1.8,0s-0.5,1.3,0,1.8c0.3,0.3,0.7,0.4,1.1,0.3l1.4,1.4h-5.6c-1.6,0-2.8,1.3-2.8,2.8
	v6.2c-1,0.9-1.9,1.9-2.6,3c-1.5,2.2-2.5,4.5-2.5,6.4c0,2.6,1.8,4.9,4.5,6.5c2.7,1.6,6.3,2.6,10.4,2.6c4,0,7.7-1,10.4-2.6
	c2.7-1.6,4.5-3.9,4.5-6.5C16.6,60.7,15.6,58.4,14.1,56.2z M-6.7,47.2c0-0.8,0.7-1.5,1.5-1.5H8.7c0.8,0,1.5,0.7,1.5,1.5v4.9
	c-0.6-0.5-1.3-1-2-1.4v-1.3c0-0.4-0.3-0.7-0.7-0.7H-4c0,0,0,0-0.1,0c-0.3,0-0.6,0.3-0.6,0.7v1.3c-0.7,0.4-1.4,0.9-2,1.4
	C-6.7,52.1-6.7,47.2-6.7,47.2z M11.4,67.9c-2.4,1.5-5.9,2.4-9.7,2.4s-7.2-1-9.7-2.4c-2.4-1.5-3.8-3.4-3.8-5.4c0-1.5,0.8-3.6,2.2-5.6
	c1.4-2,3.5-4,5.9-5.3c0.2-0.1,0.3-0.3,0.3-0.6v-1H6.7v1c0,0.2,0.1,0.5,0.3,0.6c2.4,1.3,4.4,3.3,5.9,5.3c1.4,2,2.2,4.1,2.2,5.6
	C15.2,64.6,13.8,66.5,11.4,67.9z"/>
<line fill="none" stroke="#FFFFFF" stroke-width="2" stroke-linecap="round" stroke-linejoin="round" stroke-miterlimit="10" x1="-30.8" y1="37" x2="-12.3" y2="37"/>
<line fill="none" stroke="#FFFFFF" stroke-width="2" stroke-linecap="round" stroke-linejoin="round" stroke-miterlimit="10" x1="-30.8" y1="43.2" x2="-12.3" y2="43.2"/>
<line fill="none" stroke="#FFFFFF" stroke-width="2" stroke-linecap="round" stroke-linejoin="round" stroke-miterlimit="10" x1="-30.8" y1="49.4" x2="-12.3" y2="49.4"/>
<line fill="none" stroke="#FFFFFF" stroke-width="2" stroke-linecap="round" stroke-linejoin="round" stroke-miterlimit="10" x1="-30.8" y1="54.4" x2="-22.2" y2="54.4"/>
</svg>
