<?xml version="1.0" encoding="utf-8"?>
<!-- Generator: Adobe Illustrator 18.1.1, SVG Export Plug-In . SVG Version: 6.00 Build 0)  -->
<svg version="1.1" id="Layer_1" xmlns="http://www.w3.org/2000/svg" xmlns:xlink="http://www.w3.org/1999/xlink" x="0px" y="0px"
	 width="54.8px" height="49.7px" viewBox="0 0 54.8 49.7" enable-background="new 0 0 54.8 49.7" xml:space="preserve">
<g>
	<g>
		<g>
			
				<polyline fill="none" stroke="#231F20" stroke-width="2" stroke-linecap="round" stroke-linejoin="round" stroke-miterlimit="10" points="
				32.5,22.3 32.5,1 9.3,1 1,9.3 1,43.1 25.5,43.1 			"/>
			
				<polyline fill="none" stroke="#231F20" stroke-width="2" stroke-linecap="round" stroke-linejoin="round" stroke-miterlimit="10" points="
				9.4,1.2 9.4,9.3 1,9.3 			"/>
		</g>
	</g>
	<path stroke="#231F20" stroke-width="0.5" stroke-miterlimit="10" d="M52.1,33.9c-0.7-1-1.6-2-2.6-3v-6.1c0-1.6-1.3-2.8-2.8-2.8H41
		l1.4-1.4c0.4,0.1,0.8,0,1.1-0.3c0.5-0.5,0.5-1.3,0-1.8c-0.5-0.5-1.3-0.5-1.8,0c-0.3,0.3-0.4,0.7-0.3,1.1l-1.7,1.7L38,19.6
		c0.1-0.4,0-0.8-0.3-1.1c-0.5-0.5-1.3-0.5-1.8,0c-0.5,0.5-0.5,1.3,0,1.8c0.3,0.3,0.7,0.4,1.1,0.3l1.4,1.4h-5.6
		c-1.6,0-2.8,1.3-2.8,2.8V31c-1,0.9-1.9,1.9-2.6,3c-1.5,2.2-2.5,4.5-2.5,6.4c0,2.6,1.8,4.9,4.5,6.5c2.7,1.6,6.3,2.6,10.4,2.6
		c4,0,7.7-1,10.4-2.6c2.7-1.6,4.5-3.9,4.5-6.5C54.6,38.4,53.6,36.1,52.1,33.9z M31.3,24.9c0-0.8,0.7-1.5,1.5-1.5h13.9
		c0.8,0,1.5,0.7,1.5,1.5v4.9c-0.6-0.5-1.3-1-2-1.4v-1.3c0-0.4-0.3-0.7-0.7-0.7H34c0,0,0,0-0.1,0c-0.3,0-0.6,0.3-0.6,0.7v1.3
		c-0.7,0.4-1.4,0.9-2,1.4V24.9z M49.4,45.6c-2.4,1.5-5.9,2.4-9.7,2.4s-7.2-1-9.7-2.4c-2.4-1.5-3.8-3.4-3.8-5.4
		c0-1.5,0.8-3.6,2.2-5.6c1.4-2,3.5-4,5.9-5.3c0.2-0.1,0.3-0.3,0.3-0.6v-1h10.1v1c0,0.2,0.1,0.5,0.3,0.6c2.4,1.3,4.4,3.3,5.9,5.3
		c1.4,2,2.2,4.1,2.2,5.6C53.2,42.3,51.8,44.2,49.4,45.6z"/>
	
		<line fill="none" stroke="#231F20" stroke-width="2" stroke-linecap="round" stroke-linejoin="round" stroke-miterlimit="10" x1="7.2" y1="14.7" x2="25.7" y2="14.7"/>
	
		<line fill="none" stroke="#231F20" stroke-width="2" stroke-linecap="round" stroke-linejoin="round" stroke-miterlimit="10" x1="7.2" y1="20.9" x2="25.7" y2="20.9"/>
	
		<line fill="none" stroke="#231F20" stroke-width="2" stroke-linecap="round" stroke-linejoin="round" stroke-miterlimit="10" x1="7.2" y1="27.1" x2="25.7" y2="27.1"/>
	
		<line fill="none" stroke="#231F20" stroke-width="2" stroke-linecap="round" stroke-linejoin="round" stroke-miterlimit="10" x1="7.2" y1="32.1" x2="15.8" y2="32.1"/>
</g>
</svg>
