<?xml version="1.0" encoding="utf-8"?>
<!-- Generator: Adobe Illustrator 18.1.1, SVG Export Plug-In . SVG Version: 6.00 Build 0)  -->
<svg version="1.1" id="Layer_1" xmlns="http://www.w3.org/2000/svg" xmlns:xlink="http://www.w3.org/1999/xlink" x="0px" y="0px"
	 width="59.9px" height="45.5px" viewBox="-35 24.5 59.9 45.5" enable-background="new -35 24.5 59.9 45.5" xml:space="preserve">
<path fill="none" stroke="#FFFFFF" stroke-width="2" stroke-linecap="round" stroke-linejoin="round" stroke-miterlimit="10" d="
	M-15.1,59.3h36c1.7,0,3-1.3,3-3V28.5c0-1.7-1.3-3-3-3h-42.2c-1.7,0-3,1.3-3,3v21.6"/>
<path fill="none" stroke="#FFFFFF" stroke-width="2" stroke-linecap="round" stroke-linejoin="round" stroke-miterlimit="10" d="
	M-10.6,34.2c0,1.7-1.3,3-3,3h-1.5c-1.7,0-3-1.3-3-3v-1.5c0-1.7,1.3-3,3-3h1.5c1.7,0,3,1.3,3,3V34.2z"/>
<circle fill="none" stroke="#FFFFFF" stroke-width="2" stroke-linecap="round" stroke-linejoin="round" stroke-miterlimit="10" cx="-24.5" cy="59.5" r="9.5"/>
<line fill="none" stroke="#FFFFFF" stroke-width="2" stroke-linecap="round" stroke-linejoin="round" stroke-miterlimit="10" x1="-20.5" y1="55.1" x2="-29.2" y2="63.8"/>
<circle fill="none" stroke="#FFFFFF" stroke-width="2" stroke-linecap="round" stroke-linejoin="round" stroke-miterlimit="10" cx="-27.6" cy="56.6" r="1.7"/>
<circle fill="none" stroke="#FFFFFF" stroke-width="2" stroke-linecap="round" stroke-linejoin="round" stroke-miterlimit="10" cx="-21.8" cy="62.4" r="1.7"/>
<line fill="none" stroke="#FFFFFF" stroke-width="2" stroke-linecap="round" stroke-linejoin="round" stroke-miterlimit="10" x1="-17.5" y1="46.3" x2="-12.3" y2="46.3"/>
<line fill="none" stroke="#FFFFFF" stroke-width="2" stroke-linecap="round" stroke-linejoin="round" stroke-miterlimit="10" x1="-7.3" y1="46.3" x2="-2.1" y2="46.3"/>
<line fill="none" stroke="#FFFFFF" stroke-width="2" stroke-linecap="round" stroke-linejoin="round" stroke-miterlimit="10" x1="3" y1="46.3" x2="8.2" y2="46.3"/>
<line fill="none" stroke="#FFFFFF" stroke-width="2" stroke-linecap="round" stroke-linejoin="round" stroke-miterlimit="10" x1="12.2" y1="46.3" x2="17.4" y2="46.3"/>
</svg>
