<?xml version="1.0" encoding="utf-8"?>
<!-- Generator: Adobe Illustrator 18.1.1, SVG Export Plug-In . SVG Version: 6.00 Build 0)  -->
<svg version="1.1" id="Layer_1" xmlns="http://www.w3.org/2000/svg" xmlns:xlink="http://www.w3.org/1999/xlink" x="0px" y="0px"
	 width="18.6px" height="18.7px" viewBox="-56 37.3 18.6 18.7" enable-background="new -56 37.3 18.6 18.7" xml:space="preserve">
<g>
	<path fill="#FFFFFF" d="M-46.7,37.3c-2.5,0-4.8,0.9-6.5,2.6l-0.1,0.1l1.1,1.2l0.1-0.1c1.5-1.4,3.4-2.2,5.4-2.2
		c4.3,0,7.7,3.5,7.7,7.7c0,4.3-3.5,7.7-7.7,7.7c-2,0-3.9-0.8-5.3-2.1l-0.1-0.1l-1.1,1.2l0.1,0.1c1.7,1.7,4,2.6,6.4,2.6
		c5.2,0,9.4-4.2,9.4-9.4C-37.4,41.5-41.6,37.3-46.7,37.3z"/>
	<polygon fill="#FFFFFF" points="-48.5,48.8 -47.3,50 -44,46.7 -44,46.7 -44,46.7 -47.3,43.4 -48.5,44.5 -47.1,45.8 -56,45.8 
		-56,47.5 -47.1,47.5 	"/>
</g>
</svg>
