<?xml version="1.0" encoding="utf-8"?>
<!-- Generator: Adobe Illustrator 18.1.1, SVG Export Plug-In . SVG Version: 6.00 Build 0)  -->
<svg version="1.1" id="Слой_1" xmlns="http://www.w3.org/2000/svg" xmlns:xlink="http://www.w3.org/1999/xlink" x="0px" y="0px"
	 width="121.9px" height="252.6px" viewBox="0 0 121.9 252.6" enable-background="new 0 0 121.9 252.6" xml:space="preserve">
<path fill="#7C7C7C" d="M0,83.5h26.1V71.7V60.1v-1.9c0-11.2,0.3-28.4,8.4-39.1C43.1,7.7,54.9,0,75.1,0c32.9,0,46.8,4.7,46.8,4.7
	l-6.5,38.7c0,0-10.9-3.1-21-3.1c-10.2,0-19.3,3.6-19.3,13.8v4.1v13.5v11.8h41.6l-2.9,37.8H75.1v131.3H26.1V121.3H0V83.5L0,83.5z"/>
<polygon points="361.6,1963.1 361.6,2378.1 776.6,2378.1 776.6,1963.1 361.6,1963.1 "/>
<polygon fill="#FFFFFF" points="540.9,2025.4 519.7,2025.4 506.9,2079.3 505.6,2079.3 492.1,2025.4 471.1,2025.4 471.1,2025.5 
	495.9,2106.8 495.9,2160.1 516.7,2160.1 516.7,2104.3 540.9,2025.4 "/>
<path fill="#FFFFFF" d="M547.2,2155.2c4.8,5,11.3,7.5,19.3,7.5h0.2c8.4,0,14.9-2.4,19.7-7.3c4.8-4.8,7.2-11.5,7.2-20V2084
	c0-7.6-2.4-13.8-7.3-18.6c-4.9-4.8-11.1-7.2-18.8-7.2c-8.4,0-15.1,2.3-20.1,6.8c-5,4.6-7.5,10.7-7.5,18.4l0,51.5
	C540,2143.5,542.4,2150.2,547.2,2155.2L547.2,2155.2z M559,2082.8L559,2082.8c0-2.2,0.7-3.9,2.1-5.3c1.4-1.3,3.2-2,5.5-2
	c2.4,0,4.4,0.7,5.9,2c1.5,1.3,2.3,3.1,2.3,5.3v54.1c0,2.7-0.7,4.8-2.2,6.3c-1.5,1.5-3.5,2.3-6,2.3c-2.4,0-4.3-0.7-5.6-2.2
	c-1.3-1.5-2-3.6-2-6.3V2082.8L559,2082.8z"/>
<path fill="#FFFFFF" d="M643.5,2060.8v75.4c-1.7,2.2-3.6,3.9-5.7,5.3c-2.1,1.4-3.8,2.1-5.1,2.1c-1.7,0-3-0.5-3.8-1.6
	c-0.8-1.1-1.2-2.8-1.2-5.1v-76.2h-18.5v83.1c0,5.9,1.1,10.3,3.2,13.3c2.2,3,5.4,4.4,9.7,4.4c3.5,0,7-1.1,10.7-3.2
	c3.7-2.1,7.2-5.2,10.6-9.2v11H662v-99.4H643.5L643.5,2060.8z"/>
<g>
	<defs>
		<path id="SVGID_1_" d="M569,2179.6c1.1,0,2.2,0,3.3,0c8.1,0,16.2,0.1,24.2,0.2c15.4,0.2,30.5,0.6,45,1.2l0.1,0h0.1
			c14.4,0,26.1,11.6,26.1,25.8v0.1l0,0.2c0.9,11.3,1.3,23,1.4,34.9v0.2v7.1v0.2c-0.1,11.9-0.5,23.7-1.4,34.9l0,0.2v0.2c0,0,0,0,0,0
			c0,0,0,0,0,0c0,0,0,0,0,0c0,14.2-11.8,25.7-26.1,25.7h-0.1h-0.1c-21.1,0.9-43.3,1.3-66.1,1.4h-6.3h-6.3c-22.8,0-45.1-0.5-66.1-1.4
			h-0.1h-0.1c-14.4,0-26.1-11.6-26.1-25.8v-0.2l0-0.2c-0.9-11.7-1.4-23.8-1.4-36.2v-2.5v-2.5c0-12.4,0.5-24.6,1.4-36.2l0-0.2v-0.1
			c0-14.2,11.7-25.8,26.1-25.8h0.1l0.1,0c22-0.9,45.2-1.4,69.1-1.4h0C566.8,2179.6,567.9,2179.6,569,2179.6
			C569,2179.6,569,2179.6,569,2179.6L569,2179.6z"/>
	</defs>
	<clipPath id="SVGID_2_">
		<use xlink:href="#SVGID_1_"  overflow="visible"/>
	</clipPath>
	<g clip-path="url(#SVGID_2_)">
		<defs>
			<rect id="SVGID_3_" x="468.9" y="2179.6" width="200.4" height="132.3"/>
		</defs>
		<clipPath id="SVGID_4_">
			<use xlink:href="#SVGID_3_"  overflow="visible"/>
		</clipPath>
		<g clip-path="url(#SVGID_4_)">
			
				<image overflow="visible" width="424" height="279" xlink:href="1289E3B4.jpg"  transform="matrix(0.48 0 0 -0.48 467.5972 2312.8894)">
			</image>
		</g>
	</g>
</g>
<path fill="#FFFFFF" d="M572.7,2175.6c-1.2,0-2.4,0-3.7,0c-1.2,0-2.5,0-3.7,0c-23.4,0-46.5,0.4-69,1.4c-16.6,0-30.1,13.3-30.1,29.7
	c-1,13-1.4,26-1.4,39c0,13,0.4,26,1.4,39c0,16.4,13.5,29.7,30.1,29.7c22.6,0.9,45.7,1.4,69.3,1.4c1.1,0,2.2,0,3.3,0
	c1.1,0,2.2,0,3.3,0c23.6,0,46.7-0.4,69.3-1.4c16.6,0,30.1-13.3,30.1-29.7c1-13,1.4-26,1.4-39c0-13-0.4-26-1.4-39
	c0-16.4-13.5-29.7-30.1-29.7C619.2,2176.1,596.2,2175.6,572.7,2175.6L572.7,2175.6z"/>
<path d="M525.3,2198.4h-43.7v13.4h14.7v78.7h14.2v-78.7h14.7V2198.4L525.3,2198.4z M548.5,2274.1L548.5,2274.1
	c-1.2,1.5-2.5,2.7-3.9,3.7c-1.4,1-2.6,1.4-3.5,1.4c-1.2,0-2-0.4-2.6-1.1c-0.5-0.7-0.8-1.9-0.8-3.5v-52.1h-12.6v56.8
	c0,4,0.7,7.1,2.2,9.1c1.5,2,3.7,3,6.6,3c2.4,0,4.8-0.7,7.3-2.2c2.5-1.4,4.9-3.5,7.3-6.3v7.5h12.6v-67.9h-12.6V2274.1L548.5,2274.1z
	 M597.5,2221.7L597.5,2221.7c-2,0-3.9,0.5-5.8,1.6c-1.9,1.1-3.7,2.7-5.4,4.7v-29.7h-12.7v92.1h12.7v-5.2c1.7,2.1,3.5,3.6,5.4,4.6
	c1.9,1,4.1,1.5,6.6,1.5c3.7,0,6.6-1.3,8.6-3.8c2-2.6,3-6.3,3-11.1v-37.7c0-5.6-1-9.8-3.2-12.7
	C604.5,2223.1,601.5,2221.7,597.5,2221.7L597.5,2221.7z M596.8,2274.5L596.8,2274.5c0,2.2-0.4,3.7-1.1,4.7c-0.7,1-1.9,1.4-3.4,1.4
	c-1.1,0-2.1-0.2-3-0.7c-1-0.5-2-1.3-3-2.4v-42.3c0.9-0.9,1.7-1.6,2.6-2.1c0.9-0.4,1.8-0.7,2.7-0.7c1.7,0,3,0.6,3.9,1.8
	c0.9,1.2,1.4,2.9,1.4,5.2V2274.5L596.8,2274.5z M656.5,2258.1L656.5,2258.1v-17.3c0-6.4-1.5-11.4-4.6-14.8
	c-3.1-3.4-7.6-5.2-13.3-5.2c-5.6,0-10.3,1.9-13.8,5.6c-3.6,3.7-5.3,8.5-5.3,14.4v30.5c0,6.5,1.6,11.7,4.9,15.4
	c3.3,3.7,7.7,5.6,13.4,5.6c6.3,0,11-1.8,14.2-5.3c3.2-3.5,4.7-8.8,4.7-15.7v-5.1h-13v4.7c0,4-0.4,6.6-1.2,7.8
	c-0.8,1.2-2.3,1.8-4.4,1.8c-2,0-3.4-0.7-4.3-2.1c-0.8-1.4-1.3-3.9-1.3-7.4v-12.8H656.5L656.5,2258.1z M632.3,2240.7L632.3,2240.7
	c0-2.8,0.4-4.9,1.3-6.1c0.9-1.2,2.3-1.8,4.3-1.8c1.9,0,3.3,0.6,4.2,1.8c0.9,1.2,1.3,3.3,1.3,6.1v6.9h-11.2V2240.7L632.3,2240.7z"/>
<polygon points="361.6,-81 361.6,334 776.6,334 776.6,-81 361.6,-81 "/>
<path fill="#FFFFFF" d="M706.9,46.1c-9.8,4.3-20.2,7.2-31.2,8.6c11.2-6.7,19.9-17.4,23.9-30.1c-10.5,6.2-22.2,10.8-34.5,13.2
	c-9.9-10.6-24.1-17.2-39.7-17.2c-30,0-54.4,24.4-54.4,54.4c0,4.3,0.5,8.4,1.4,12.4c-45.2-2.3-85.3-23.9-112.1-56.8
	c-4.7,8-7.4,17.4-7.4,27.3c0,18.9,9.6,35.5,24.2,45.3c-8.9-0.3-17.3-2.7-24.6-6.8c0,0.2,0,0.5,0,0.7c0,26.4,18.7,48.3,43.6,53.3
	c-4.6,1.2-9.4,1.9-14.3,1.9c-3.5,0-6.9-0.3-10.2-1c6.9,21.6,27,37.3,50.8,37.8c-18.6,14.6-42.1,23.3-67.6,23.3
	c-4.4,0-8.7-0.3-13-0.8c24.1,15.4,52.7,24.4,83.4,24.4c100,0,154.8-82.9,154.8-154.8c0-2.4-0.1-4.7-0.2-7
	C690.4,66.6,699.6,57,706.9,46.1L706.9,46.1z"/>
<polygon points="-660.5,430.1 -660.5,845.1 -245.5,845.1 -245.5,430.1 -660.5,430.1 "/>
<path fill-rule="evenodd" clip-rule="evenodd" fill="#FFFFFF" d="M-432.4,720.6c2-6.4,7.1-13.1,9.7-21.1c3.6-10.9,2.9-15,3.1-26.7
	c25.4,5.3,29.3,2.3,49.5-6.6c2.6,3.4,10.4,60.1,11,68.9c-2.8,1.8-5.6,2.5-8.5,4.6c-3.7,2.7-3.6,4.2-6.8,6.9L-432.4,720.6
	L-432.4,720.6z M-495.5,579c3.4,2.4,19.1,24.3,23.2,29.8l34.5,46.3c8.8,12.1,14.2,21.4,8.4,41.9c-1,3.5-2.2,6.8-3.9,9.9
	c-0.8,1.6-1.3,2.5-2.3,4.1c-1,1.5-0.2,0.4-1.3,1.9c-0.1,0.2-0.4,0.4-0.5,0.6l-1.1,1.2c-0.1,0.1-0.4,0.4-0.6,0.6
	c-1.3-1.2-1.8-1.7-3.2-3.5l-47.7-63.9c-8.6-11.7-16.8-22.1-25.5-34.1C-522.7,604-501,584.1-495.5,579L-495.5,579z M-489.7,573.1
	c5.2-1.9,33.1-21.3,39.9-14.5l12.7,17.1c7.8,10.6,59.5,78.3,62.6,84.7c-12.4,6.9-28.8,10-44.4,4.5c-8-2.8-19.6-21.7-25.1-29.1
	c-7.8-10.4-15.1-20.2-22.7-30.5C-470.4,600.4-488.5,577.5-489.7,573.1L-489.7,573.1z M-469.4,548.2c-5.9,2.3-19.5,9.2-23.2,9.9
	c-2.1,3.1-7.1,6.1-10.1,8.3c-11.5,8.6-15.9,17.3-22.7,28.3l-2,2.6c-4.7-4.9-9.4-11.2-13.3-17.4c2.8-15.5,23.9-34.6,34.4-40.8
	c6.2-3.7,16-9.3,24.3-10.7l7.7-1.8c3,2.8,13.9,16.7,14.3,19.6L-469.4,548.2L-469.4,548.2z M-550.4,566.1
	c-4.6-27.2,38-62.2,66.6-50.9c-3.4,2.3-34.9,7.8-55.2,34.1C-543.2,554.8-548.6,565.1-550.4,566.1L-550.4,566.1z M-452.7,726.3
	c6.1,8.4,8.3,7.6,21,13c28.5,12.2,67,27.9,94.2,40.6c-2.1-31-9.8-82.6-14.4-115.2c-1.8-12.5-111.1-156.8-120.8-164
	c-33.7-24.8-119.8,38.1-89.6,78.9c7.4,10,13.4,18,20.9,28C-438.1,744.9-533.9,614.8-452.7,726.3L-452.7,726.3z"/>
<polygon points="-149.5,430.1 -149.5,845.1 265.5,845.1 265.5,430.1 -149.5,430.1 "/>
<path fill-rule="evenodd" clip-rule="evenodd" fill="#FFFFFF" d="M-41.7,505.2h145.3c14.2,0.1,12-0.4,19.7,12.9L187,627
	c5.3,7.1,4.5,13.5,0.3,20.3l-68.7,114.6c-4.5,8.2-6.2,8-15.1,8H-41.7c-18.1,0-33-14.8-33-33V538.1C-74.7,520-59.8,505.2-41.7,505.2
	L-41.7,505.2z"/>
<path d="M94.5,542.6H65.6c-28.4,0-52.4,21.6-52.4,63.5c0,25.1,11.7,43.7,32.4,52.8L6.8,729c-1.3,2.3,0,4.1,2,4.1h18
	c1.5,0,2.5-0.5,3-1.8l35.2-68.8h12.7v68.8c0,0.8,0.8,1.8,1.8,1.8h15.7c1.5,0,2-0.8,2-2V545.1C97.2,543.4,96.2,542.6,94.5,542.6
	L94.5,542.6z M77.7,646.2L77.7,646.2H67.1c-16.7,0-32.9-12.2-32.9-42.7c0-31.8,15.2-44.7,30.6-44.7h12.9V646.2L77.7,646.2z"/>
<polygon points="-149.5,941.1 -149.5,1356.1 265.5,1356.1 265.5,941.1 -149.5,941.1 "/>
<path fill-rule="evenodd" clip-rule="evenodd" fill="#FFFFFF" d="M-41.7,1016.2h145.3c14.2,0.1,12-0.4,19.7,12.9L187,1138
	c5.3,7.1,4.5,13.5,0.3,20.3l-68.7,114.6c-4.5,8.2-6.2,8-15.1,8H-41.7c-18.1,0-33-14.8-33-33v-198.8
	C-74.7,1031-59.8,1016.2-41.7,1016.2L-41.7,1016.2z"/>
<path fill-rule="evenodd" clip-rule="evenodd" stroke="#000000" stroke-width="0.5669" stroke-miterlimit="22.9256" d="M24.7,1055.4
	c17.6,0,31.9,14.3,31.9,31.9s-14.3,31.9-31.9,31.9s-31.9-14.3-31.9-31.9S7.1,1055.4,24.7,1055.4L24.7,1055.4z"/>
<path fill-rule="evenodd" clip-rule="evenodd" stroke="#000000" stroke-width="0.5669" stroke-miterlimit="22.9256" d="M88.2,1070.3
	c17.6,0,31.9,14.3,31.9,31.9c0,17.6-14.3,31.9-31.9,31.9c-17.6,0-31.9-14.3-31.9-31.9C56.3,1084.5,70.6,1070.3,88.2,1070.3
	L88.2,1070.3z"/>
<path fill-rule="evenodd" clip-rule="evenodd" stroke="#000000" stroke-width="0.5669" stroke-miterlimit="22.9256" d="
	M107.1,1132.7c17.6,0,31.9,14.3,31.9,31.9c0,17.6-14.3,31.9-31.9,31.9s-31.9-14.3-31.9-31.9C75.2,1147,89.5,1132.7,107.1,1132.7
	L107.1,1132.7z"/>
<path fill-rule="evenodd" clip-rule="evenodd" stroke="#000000" stroke-width="0.5669" stroke-miterlimit="22.9256" d="M62.4,1180.3
	c17.6,0,31.9,14.3,31.9,31.9c0,17.6-14.3,31.9-31.9,31.9s-31.9-14.3-31.9-31.9C30.6,1194.6,44.8,1180.3,62.4,1180.3L62.4,1180.3z"/>
<path fill-rule="evenodd" clip-rule="evenodd" stroke="#000000" stroke-width="0.5669" stroke-miterlimit="22.9256" d="M-1.1,1165.4
	c17.6,0,31.9,14.3,31.9,31.9s-14.3,31.9-31.9,31.9c-17.6,0-31.9-14.3-31.9-31.9S-18.7,1165.4-1.1,1165.4L-1.1,1165.4z"/>
<path fill-rule="evenodd" clip-rule="evenodd" stroke="#000000" stroke-width="0.5669" stroke-miterlimit="22.9256" d="M-20,1103
	c17.6,0,31.9,14.3,31.9,31.9s-14.3,31.9-31.9,31.9s-31.9-14.3-31.9-31.9S-37.6,1103-20,1103L-20,1103z"/>
<polygon points="-149.5,1452.1 -149.5,1867.1 265.5,1867.1 265.5,1452.1 -149.5,1452.1 "/>
<polygon fill-rule="evenodd" clip-rule="evenodd" fill="#FFFFFF" points="-52.8,1679.4 -52.8,1794.4 131.9,1794.4 131.9,1679.4 
	112.1,1679.4 112.1,1775.6 -32.5,1775.6 -32.5,1679.4 -52.8,1679.4 "/>
<path fill-rule="evenodd" clip-rule="evenodd" fill="#FFFFFF" d="M59.7,1548.9l30.4,45.8c10.1,14.5,22.1,31.3,30.9,45.7l19.8-12.3
	l-60.7-92.2L59.7,1548.9L59.7,1548.9z"/>
<polygon fill-rule="evenodd" clip-rule="evenodd" fill="#FFFFFF" points="-17.7,1756.8 93.7,1756.8 93.9,1732.8 -17.1,1732.8 
	-17.7,1756.8 "/>
<polygon fill-rule="evenodd" clip-rule="evenodd" fill="#FFFFFF" points="127.4,1516 145.5,1625.4 168.5,1622.3 149.7,1512.4 
	127.4,1516 "/>
<polygon fill-rule="evenodd" clip-rule="evenodd" fill="#FFFFFF" points="-10.1,1665.3 97,1694.2 103.8,1671.4 -3.9,1642.4 
	-10.1,1665.3 "/>
<polygon fill-rule="evenodd" clip-rule="evenodd" fill="#FFFFFF" points="9.9,1607.9 105.5,1664.5 117.8,1644.6 21.6,1587.3 
	9.9,1607.9 "/>
<polygon fill-rule="evenodd" clip-rule="evenodd" fill="#FFFFFF" points="-16.7,1715.7 93.5,1726 96.6,1702.8 -14.5,1692.1 
	-16.7,1715.7 "/>
<polygon points="1383.6,-81 1383.6,334 1798.6,334 1798.6,-81 1383.6,-81 "/>
<path fill-rule="evenodd" clip-rule="evenodd" fill="#FFFFFF" d="M1648.9,84.2c23.4,0,42.4-19,42.4-42.4c0-23.4-19-42.4-42.4-42.4
	c-23.4,0-42.4,19-42.4,42.4C1606.5,65.2,1625.5,84.2,1648.9,84.2L1648.9,84.2z M1510.2,73.4c14,0,25.4-11.4,25.4-25.4
	c0-14-11.4-25.4-25.4-25.4c-14,0-25.4,11.4-25.4,25.4C1484.8,62,1496.2,73.4,1510.2,73.4L1510.2,73.4z M1510.2,78
	c-19.2,0-34.7,15.5-34.7,34.7c0,0.8,0.1,1.5,0.1,2.3h-0.1v60.1h53.9v26.2h61.6v52.4h115.6V153.5h-0.2c0.1-1.3,0.2-2.5,0.2-3.8
	c0-31.9-25.9-57.8-57.8-57.8c-14.9,0-28.5,5.7-38.8,14.9c-6.8-14.3-21.4-24.2-38.3-24.2c-12.3,0-23.4,5.2-31.1,13.6
	C1534.9,85.4,1523.4,78,1510.2,78L1510.2,78z M1571.8,77c17.2,0,31.1-13.9,31.1-31.1c0-17.2-13.9-31.1-31.1-31.1
	c-17.2,0-31.1,13.9-31.1,31.1C1540.8,63.1,1554.7,77,1571.8,77L1571.8,77z"/>
<polygon points="-660.5,1452.1 -660.5,1867.1 -245.5,1867.1 -245.5,1452.1 -660.5,1452.1 "/>
<polygon fill-rule="evenodd" clip-rule="evenodd" fill="#FFFFFF" points="-547.3,1540 -477.5,1540 -477.5,1612.4 -428.5,1612.4 
	-428.5,1540 -358.7,1540 -358.7,1779.3 -428.5,1779.3 -428.5,1684.1 -477.5,1684.1 -477.5,1779.3 -547.3,1779.3 -547.3,1540 "/>
<polygon points="-149.5,1963.1 -149.5,2378.1 265.5,2378.1 265.5,1963.1 -149.5,1963.1 "/>
<path fill-rule="evenodd" clip-rule="evenodd" fill="#FFFFFF" d="M196,2095.1c2.1-11.7,2-23.8-5.2-32.9
	c-10.1-12.8-31.6-13.3-46.3-11c-12,1.8-52.5,19.7-66.3,62.5c24.4-1.9,37.2,1.8,34.9,28.7c-1,11.3-6.7,23.6-13,35.4
	c-7.3,13.6-21.1,40.4-39.1,21.1c-16.2-17.4-15-50.6-18.7-72.7c-2.1-12.4-4.3-27.9-8.3-40.6c-3.5-11-11.5-24.2-21.4-27.1
	c-10.6-3.1-23.6,1.7-31.3,6.3c-24.4,14.3-43,34.7-64.1,51.6v1.6c4.2,4,5.3,10.6,11.5,11.4c14.5,2.1,28.4-13.5,38,2.8
	c5.9,10,7.7,20.9,11.5,31.6c5,14.3,8.9,29.9,13,46.3c7,27.9,15.5,69.5,39.6,79.7c12.3,5.2,30.8-1.8,40.1-7.3
	c25.3-15,45.1-36.7,62-58.8C171.5,2171.3,192.8,2112.1,196,2095.1L196,2095.1z"/>
<polygon points="1383.6,430.1 1383.6,845.1 1798.6,845.1 1798.6,430.1 1383.6,430.1 "/>
<path fill-rule="evenodd" clip-rule="evenodd" fill="#FFFFFF" d="M1677.4,648.5c-4.2-8.5-15.9-15.5-31.5-3.3
	c-21,16.6-54.8,16.6-54.8,16.6s-33.8,0-54.8-16.6c-15.6-12.3-27.3-5.2-31.5,3.3c-7.4,14.8,1,22,19.7,34c16,10.3,38.1,14.1,52.3,15.6
	L1565,710c-16.7,16.7-32.9,32.9-44.1,44.1c-6.7,6.7-6.7,17.6,0,24.3l2,2c3.3,3.3,7.7,5,12.1,5h0.1c4.4,0,8.8-1.7,12.1-5l44.1-44.1
	c16.7,16.7,32.9,32.9,44.1,44.1c6.7,6.7,17.6,6.7,24.3,0l2-2c6.7-6.7,6.7-17.6,0-24.3l-44.1-44.1l-11.9-11.9
	c14.2-1.5,36.1-5.3,52-15.5C1676.4,670.5,1684.7,663.3,1677.4,648.5L1677.4,648.5z M1591.1,527.7c20.3,0,36.8,16.5,36.8,36.8
	c0,20.3-16.5,36.8-36.8,36.8s-36.8-16.5-36.8-36.8C1554.3,544.2,1570.8,527.7,1591.1,527.7L1591.1,527.7z M1591.1,639.4
	c41.3,0,74.8-33.5,74.8-74.8c0-41.3-33.5-74.8-74.8-74.8c-41.3,0-74.8,33.5-74.8,74.8C1516.3,605.9,1549.8,639.4,1591.1,639.4
	L1591.1,639.4z"/>
<polygon points="872.6,1963.1 872.6,2378.1 1287.6,2378.1 1287.6,1963.1 872.6,1963.1 "/>
<path fill="#FFFFFF" d="M978,2090.6L978,2090.6h26.7c1.5,0,2.8-1.2,2.8-2.8c0,0-0.3-22.9-0.3-29.2v-0.1c0-5.2,1.1-9.8,3-13.6
	l0.9-1.7c-0.1,0-0.2,0.1-0.3,0.2l-51.8,51.3c-0.1,0.1-0.2,0.2-0.2,0.3c1.1-0.5,2.5-1.3,2.7-1.3C966,2091.7,971.4,2090.6,978,2090.6
	L978,2090.6z M1185.3,2085L1185.3,2085c-2.1-11.3-8.9-16.9-14.9-19.1c-6.6-2.4-19.9-4.8-36.6-6.8c-13.5-1.6-29.3-1.5-38.9-1.2
	c-1.1-7.9-6.7-15-12.8-17.5c-16.4-6.6-41.8-5-48.4-3.2c-5.2,1.5-10.9,4.4-14.1,9c-2.1,3.1-3.5,7-3.5,12.4c0,3.1,0.1,10.4,0.2,16.9
	c0.1,6.5,0.2,12.3,0.2,12.3c0,5.8-4.7,10.5-10.5,10.5h-26.7c-5.7,0-10,1-13.3,2.5c-3.3,1.5-5.7,3.5-7.5,5.9
	c-3.6,4.8-4.2,10.7-4.2,16.7c0,0,0.1,4.9,1.2,14.4c1,7.4,9,58.8,16.6,74.5c2.9,6.1,4.9,8.6,10.7,11.3c12.9,5.5,42.3,11.6,56.1,13.4
	c13.8,1.8,22.4,5.5,27.5-5.3c0,0,1-2.7,2.4-6.6c4.5-13.5,5.1-25.5,5.1-34.2c0-0.9,1.3-0.9,1.3,0c0,6.1-1.2,27.9,15.2,33.7
	c6.5,2.3,19.9,4.3,33.6,5.9c12.3,1.4,21.3,6.3,21.3,37.9c0,19.3-4,21.9-25.2,21.9c-17.1,0-23.7,0.4-23.7-13.2c0-11,10.9-9.9,19-9.9
	c3.6,0,1-2.7,1-9.5c0-6.8,4.2-10.7,0.2-10.8c-27.9-0.8-44.3,0-44.3,34.9c0,31.7,12.1,37.6,51.7,37.6c31.1,0,42-1,54.8-40.8
	c2.5-7.9,8.7-31.8,12.4-72.1C1193.5,2181.2,1188.9,2104.4,1185.3,2085L1185.3,2085z M1131.2,2169.9L1131.2,2169.9
	c-3.8-0.1-7.5,0.1-11,0.7c1-7.8,4.2-17.4,15.6-17c12.7,0.4,14.4,12.4,14.5,20.5C1145,2171.7,1138.4,2170.1,1131.2,2169.9
	L1131.2,2169.9z"/>
<polygon points="1383.6,941.1 1383.6,1356.1 1798.6,1356.1 1798.6,941.1 1383.6,941.1 "/>
<path fill="#FFFFFF" d="M1487.9,1162.4v-109.5c0-18.1,4.6-23.8,21.2-23.8h165.5c15.7,0,21.3,6.8,21.3,23.8V1159l12.8-8.8v-109
	c0-14.3-10.8-25.9-24-25.9h-186.9c-13.3,0-24,11.6-24,25.9v112.3L1487.9,1162.4L1487.9,1162.4z"/>
<path fill="#FFFFFF" d="M1594.6,1182.5c0-9.3,4.3-15.5,17.6-14.9c19.2,0.6,57,5,99.5-25.4c8-5.6,13.2,2,8.3,9.2
	c-9.5,11.6-27.6,26.1-55.3,37.5c29.4,99.9-71.6,115.7-70,64.5C1594.8,1254.9,1594.6,1182.5,1594.6,1182.5L1594.6,1182.5z"/>
<path fill="#FFFFFF" d="M1587.6,1182.5c0-9.3-4.3-15.5-17.6-14.9c-19.2,0.6-57,5-99.5-25.4c-8-5.6-13.2,2-8.3,9.2
	c9.5,11.6,27.6,26.1,55.3,37.5c-29.3,99.9,71.6,115.7,70,64.5C1587.5,1254.9,1587.6,1182.5,1587.6,1182.5L1587.6,1182.5z"/>
<path fill="#FFFFFF" d="M1587.7,1125.4c0,16.6-14.4,30.1-32.1,30.1c-17.7,0-32.1-13.5-32.1-30.1c0-16.6,14.4-30.1,32.1-30.1
	C1573.3,1095.3,1587.7,1108.8,1587.7,1125.4L1587.7,1125.4z"/>
<path fill="#FFFFFF" d="M1598.2,1125.4c0,16.6,14.4,30.1,32.1,30.1c17.7,0,32.1-13.5,32.1-30.1c0-16.6-14.4-30.1-32.1-30.1
	C1612.6,1095.3,1598.2,1108.8,1598.2,1125.4L1598.2,1125.4z"/>
<path fill="#FFFFFF" d="M1635.6,1175.5c-13.9,19.1-30.5,15.6-50-2.5c-20.2-18.9-6.8,28.1,1.5,30c12.1,2.8,16.9,5.5,33.3,1.7
	c15.5-3.6,23-14.6,26.2-22.4C1652,1169.3,1642.7,1165.6,1635.6,1175.5L1635.6,1175.5z"/>
<polygon points="-660.5,941.1 -660.5,1356.1 -245.5,1356.1 -245.5,941.1 -660.5,941.1 "/>
<path fill="#FFFFFF" d="M-448.9,1193l0,6.1l51.6,40l29.3-17.7l0.2-6.2l-27.4,16.4c-1.2,0.7-2.7,0.6-3.7-0.2l0,0L-448.9,1193
	L-448.9,1193z M-500.6,1240.2l51.6-41.1l0-6.1l-49.8,38.3c-1.1,0.8-2.6,0.9-3.7,0.2l0,0l-26.7-15.8l0,6.9L-500.6,1240.2
	L-500.6,1240.2z M-451.5,1284.4l-76.1-50.8c-1-0.7-1.5-1.8-1.5-2.9l0-14.9l-52.8-31.3c-1.6-0.9-2.1-3-1.2-4.6c0.2-0.4,0.6-0.8,1-1
	l51.1-38.9l-51.2-39c-1.5-1.1-1.7-3.2-0.6-4.7c0.3-0.4,0.6-0.6,1-0.9l79.3-51.7c1.3-0.8,2.9-0.7,4,0.3l0,0l49.7,42.7l50.9-42.7
	c1.2-1,2.9-1,4.1-0.1l77,49.2c1.5,1,2,3,1,4.6c-0.2,0.3-0.5,0.6-0.7,0.8l-47.6,39.6l47.7,40.9c1.4,1.2,1.6,3.3,0.4,4.7
	c-0.3,0.3-0.6,0.6-0.9,0.8l-50.9,30.6l-0.4,16c0,1.1-0.5,2.2-1.5,2.8l-77.9,50.5C-448.9,1285.2-450.4,1285.2-451.5,1284.4
	L-451.5,1284.4z M-448.3,1094.7l-71.4,45l70.5,45L-448.3,1094.7L-448.3,1094.7z M-448.3,1094.7l-0.8,90l73.5-46.5L-448.3,1094.7
	L-448.3,1094.7z"/>
<polygon points="361.6,941.1 361.6,1356.1 776.6,1356.1 776.6,941.1 361.6,941.1 "/>
<path fill="#FFFFFF" d="M596.8,1195.1c-1.8,2.1-4.1,4.2-6.9,6.3c-2.7,2.1-5.9,4.1-9.4,5.7c-3.5,1.7-7.3,3-11.5,4.1
	c-4.2,1-8.6,1.5-13.2,1.5c-6.3,0-12.2-1-17.5-3c-5.4-2-9.9-4.8-13.9-8.4c-3.9-3.6-6.9-8-9.1-13.2c-2.2-5.1-3.2-10.9-3.2-17.3
	c0-7,1.3-13.4,3.8-18.9c2.6-5.5,6.1-10.2,10.7-14c4.5-3.8,10-6.8,16.4-8.8c6.4-2,13.4-3,21.1-3c6.3,0,11.7,0.4,16.2,1.1
	c4.5,0.8,8.4,1.6,11.7,2.4v-5.2c0-3-0.5-5.9-1.5-8.8c-1.1-2.8-2.7-5.3-5-7.5c-2.3-2.2-5.2-4-8.9-5.3c-3.7-1.3-8.2-2-13.5-2
	c-6.5,0-12.9,0.7-19.3,2.2c-6.4,1.5-13.4,3.6-20.9,6.5v-24.8c2.7-1.4,5.8-2.5,9.2-3.6c3.4-1.1,7-2,10.8-2.8
	c3.8-0.8,7.8-1.4,11.8-1.9c4.1-0.5,8.1-0.7,12.1-0.7c9.5,0,17.8,1.2,25,3.5c7.1,2.3,13,5.5,17.7,9.6c4.7,4.1,8.2,8.9,10.7,14.5
	c2.4,5.5,3.6,11.6,3.6,18.1v55.1c0,2.1,0.1,4,0.3,5.6c0.2,1.7,0.7,3.2,1.4,4.4c0.7,1.3,1.7,2.2,2.9,2.8c1.2,0.6,2.8,1,4.7,1
	c4.4,0,8.6-1.3,12.4-4c3.9-2.7,7.2-6.4,10.1-11.2c2.8-4.9,5.1-10.8,6.8-17.8c1.6-6.9,2.5-14.8,2.5-23.5c0-15.3-2.6-28.6-7.6-40
	c-5.1-11.4-12-21-20.7-28.6c-8.7-7.7-18.9-13.4-30.5-17.2c-11.6-3.8-24-5.6-37.1-5.6c-17.6,0-32.7,2.9-45.4,8.7
	c-12.6,5.8-23,13.6-31,23.3c-8.1,9.7-14,20.8-17.8,33.4c-3.8,12.6-5.7,25.7-5.7,39.3c0,14.5,2.2,28,6.5,40.4
	c4.3,12.4,10.9,23.2,19.6,32.2c8.7,9.1,19.6,16.3,32.7,21.4c13.1,5.2,28.4,7.7,45.9,7.7c7.8,0,15.4-0.4,22.8-1.2
	c7.4-0.8,14.4-1.8,21-3.1c6.6-1.3,12.7-2.8,18.3-4.4c5.6-1.6,10.5-3.3,14.7-5.1v22.6c-4.2,1.7-9.3,3.4-15.2,5
	c-5.9,1.6-12.3,3.1-19.1,4.4c-6.8,1.3-13.9,2.3-21.3,3c-7.4,0.7-14.7,1.1-22,1.1c-12.2,0-23.7-1.2-34.7-3.6
	c-11-2.4-21.3-6-30.9-10.8c-9.5-4.7-18.2-10.6-26-17.5c-7.8-6.9-14.4-15-19.8-24.1c-5.5-9.1-9.7-19.2-12.7-30.3
	c-3-11.1-4.5-23.2-4.5-36.3c0-19.1,2.9-36.5,8.8-52.3c5.8-15.8,14.2-29.3,25-40.7c10.8-11.3,23.9-20.1,39.4-26.3
	c15.4-6.2,32.7-9.4,51.8-9.4c17.6,0,33.8,2.7,48.6,8.2c14.8,5.4,27.4,13,38.2,22.9c10.7,9.9,19.1,21.7,25,35.5c6,13.7,9,29,9,45.8
	c0,13-1.5,24.5-4.7,34.5c-3.1,10-7.4,18.4-13,25.2c-5.6,6.8-12.2,12-19.7,15.5c-7.6,3.5-15.9,5.2-24.8,5.2c-4.6,0-8.5-0.4-11.9-1.3
	c-3.3-0.9-6.1-2.1-8.5-3.6c-2.4-1.5-4.4-3.4-5.9-5.6c-1.5-2.1-2.8-4.5-3.9-7.2H596.8L596.8,1195.1z M592,1153.7
	c-3-0.7-6.4-1.3-10.1-1.9s-7.8-0.9-12.1-0.9c-7.7,0-13.8,1.5-18.4,4.5c-4.6,3-6.8,7.8-6.8,14.3c0,3,0.5,5.6,1.5,7.9
	c1.1,2.3,2.4,4.1,4.1,5.5c1.7,1.4,3.8,2.5,6.1,3.2c2.4,0.7,4.8,1.1,7.3,1.1c3.2,0,6.2-0.4,9.1-1.3c2.9-0.9,5.5-2,7.9-3.3
	c2.4-1.4,4.5-2.8,6.5-4.4c1.9-1.6,3.6-3.2,4.9-4.7V1153.7L592,1153.7z"/>
<polygon points="361.6,1452.1 361.6,1867.1 776.6,1867.1 776.6,1452.1 361.6,1452.1 "/>
<path fill="#FFFFFF" d="M546.8,1691l-80.8-53.6v109.9L546.8,1691L546.8,1691z M454.8,1617.6l108.9-77c2.7-1.9,6.2-1.7,8.7,0.2
	l110.7,76.7c2.2,1.3,3.6,3.6,3.6,6.3v137.5c0,4-3.3,7.3-7.3,7.3H458.7c-4,0-7.3-3.3-7.3-7.3v-137.5
	C451.4,1621.2,452.7,1618.9,454.8,1617.6L454.8,1617.6z M672.1,1637.4l-81.4,53.9l81.4,56.1V1637.4L672.1,1637.4z M656,1754
	l-82.2-56.6c-0.2-0.1-0.4-0.3-0.6-0.4l-4.7-3.3l-86.6,60.3H656L656,1754z M577.8,1682.3l88.7-58.7l-98.5-68.2l-96.4,68.1l88.1,58.5
	l4.7-3.3c2.7-1.9,6.3-1.7,8.7,0.3L577.8,1682.3L577.8,1682.3z"/>
<polygon points="361.6,430.1 361.6,845.1 776.6,845.1 776.6,430.1 361.6,430.1 "/>
<path fill-rule="evenodd" clip-rule="evenodd" fill="#FFFFFF" d="M469.4,562.4c19.8,0,32.1-13.1,32.1-29.5
	c-0.4-16.8-12.3-29.5-31.8-29.5c-19.4,0-32.2,12.8-32.2,29.5c0,16.4,12.3,29.5,31.4,29.5H469.4L469.4,562.4z M497.8,756.8v-171H441
	v171H497.8L497.8,756.8z"/>
<path fill-rule="evenodd" clip-rule="evenodd" fill="#FFFFFF" d="M529.3,756.8h56.8v-95.5c0-5.1,0.4-10.2,1.9-13.9
	c4.1-10.2,13.5-20.8,29.2-20.8c20.6,0,28.8,15.7,28.8,38.7v91.5h56.8v-98c0-52.5-28-77-65.4-77c-30.7,0-44.1,17.1-51.6,28.8h0.4
	v-24.8h-56.8C530,601.8,529.3,756.8,529.3,756.8L529.3,756.8L529.3,756.8z"/>
<polygon points="1383.6,1963.1 1383.6,2378.1 1798.6,2378.1 1798.6,1963.1 1383.6,1963.1 "/>
<path fill-rule="evenodd" clip-rule="evenodd" fill="#FFFFFF" d="M1571.7,2239.8l-11.5-31.4c0,0-18.8,20.9-46.9,20.9
	c-24.9,0-42.6-21.6-42.6-56.3c0-44.4,22.4-60.2,44.4-60.2c31.7,0,41.8,20.6,50.5,46.9l11.5,36.1c11.5,35,33.2,63.1,95.6,63.1
	c44.7,0,75-13.7,75-49.8c0-29.2-16.6-44.4-47.6-51.6l-23.1-5c-15.9-3.6-20.6-10.1-20.6-20.9c0-12.3,9.7-19.5,25.6-19.5
	c17.3,0,26.7,6.5,28.1,22l36.1-4.3c-2.9-32.5-25.2-45.8-62-45.8c-32.5,0-64.2,12.3-64.2,51.6c0,24.5,11.9,40,41.8,47.3l24.5,5.8
	c18.4,4.3,24.5,11.9,24.5,22.4c0,13.3-13,18.8-37.5,18.8c-36.4,0-51.6-19.1-60.2-45.4l-11.9-36.1c-15.1-46.9-39.3-64.2-87.3-64.2
	c-53,0-81.2,33.5-81.2,90.5c0,54.8,28.1,84.4,78.6,84.4C1552.2,2259,1571.7,2239.8,1571.7,2239.8L1571.7,2239.8L1571.7,2239.8z"/>
<polygon points="1383.6,1452.1 1383.6,1867.1 1798.6,1867.1 1798.6,1452.1 1383.6,1452.1 "/>
<path fill="#FFFFFF" d="M1575.9,1545.1v211.2c-48.2-6-84.5-32.4-84.5-64c0-29.9,32.6-55.2,77.1-62.9v-26.8
	c-68,8.2-119.4,45.3-119.4,89.7c0,46.1,55.1,84.1,126.8,90.5l42.3-19.9v-238.5L1575.9,1545.1L1575.9,1545.1z M1625.5,1602.7
	L1625.5,1602.7v26.8c16.6,2.9,31.5,8.2,43.7,15.2l-22.9,12.9l81.7,17.8l-5.8-60.6l-21.7,12.2
	C1680.3,1614.8,1654.4,1606.2,1625.5,1602.7L1625.5,1602.7z"/>
<polygon points="1287.6,334 872.6,334 872.6,-81 1287.6,-81 1287.6,334 "/>
<g>
	<defs>
		<polygon id="SVGID_5_" points="1240.9,51 1187.2,51 1187.2,-2.8 1173.7,-2.8 1173.7,51 1119.9,51 1119.9,64.4 1173.7,64.4 
			1173.7,118.2 1187.2,118.2 1187.2,64.4 1240.9,64.4 1240.9,51 		"/>
	</defs>
	<clipPath id="SVGID_6_">
		<use xlink:href="#SVGID_5_"  overflow="visible"/>
	</clipPath>
	<g clip-path="url(#SVGID_6_)">
		<defs>
			<rect id="SVGID_7_" x="1119.9" y="-2.8" width="121" height="121"/>
		</defs>
		<clipPath id="SVGID_8_">
			<use xlink:href="#SVGID_7_"  overflow="visible"/>
		</clipPath>
		<g clip-path="url(#SVGID_8_)">
			
				<image overflow="visible" width="260" height="257" xlink:href="1289E3B4.png"  transform="matrix(0.48 0 0 -0.48 1118.6357 119.584)">
			</image>
		</g>
	</g>
</g>
<g>
	<defs>
		<path id="SVGID_9_" d="M1061,151.7c-7.5-5.3-21.9-18.3-21.9-25.9c0-8.9,2.5-13.3,16-23.8c13.7-10.7,23.5-25.8,23.5-43.4
			c0-20.9-9.3-41.3-26.8-48h26.4l18.6-13.4c0,0-62.3,0-83.1,0c-37.3,0-72.3,28.2-72.3,60.9c0,33.4,25.4,60.4,63.3,60.4
			c2.6,0,5.2-0.1,7.7-0.2c-2.5,4.7-4.2,10-4.2,15.5c0,9.3,5,16.8,11.3,23c-4.8,0-9.4,0.1-14.4,0.1c-46.2,0-81.7,29.4-81.7,59.9
			c0,30,38.9,48.8,85.1,48.8c52.6,0,81.7-29.9,81.7-59.9C1090.1,181.6,1083,167.2,1061,151.7L1061,151.7z M1016.6,110L1016.6,110
			c-21.4-0.6-41.8-24-45.5-52.1c-3.7-28.1,10.7-49.6,32.1-49c21.4,0.6,41.8,23.2,45.5,51.3C1052.4,88.4,1038,110.7,1016.6,110
			L1016.6,110z M1008.2,252.3L1008.2,252.3c-31.9,0-54.9-20.2-54.9-44.4c0-23.8,28.6-43.6,60.5-43.2c7.4,0.1,14.4,1.3,20.7,3.3
			c17.3,12,29.7,18.8,33.2,32.6c0.7,2.8,1,5.6,1,8.6C1068.7,233.3,1053.1,252.3,1008.2,252.3L1008.2,252.3z"/>
	</defs>
	<clipPath id="SVGID_10_">
		<use xlink:href="#SVGID_9_"  overflow="visible"/>
	</clipPath>
	<g clip-path="url(#SVGID_10_)">
		<defs>
			<rect id="SVGID_11_" x="923.3" y="-2.8" width="173.4" height="268.4"/>
		</defs>
		<clipPath id="SVGID_12_">
			<use xlink:href="#SVGID_11_"  overflow="visible"/>
		</clipPath>
		<g clip-path="url(#SVGID_12_)">
			
				<image overflow="visible" width="368" height="563" xlink:href="1289E3B3.png"  transform="matrix(0.48 0 0 -0.48 922.019 266.8579)">
			</image>
		</g>
	</g>
</g>
<polygon points="-660.5,-81 -660.5,334 -245.5,334 -245.5,-81 -660.5,-81 "/>
<path fill-rule="evenodd" clip-rule="evenodd" fill="#FFFFFF" d="M-536.5,13.8h98.5c32.4,0,60,15.9,60,48c0,26.8-9.7,37.2-29.7,49
	c1.7,1.4,13.1,4.8,17,6.7c6.1,3,9.8,6.1,13.8,10.2c11.3,11.5,13.4,22,13.4,40.1c0,41.9-40.5,62.9-79.5,62.9h-93.9L-536.5,13.8
	L-536.5,13.8z M-482.9,70.8l0,28.2c25.4,0,49.2,3.3,49.2-24.2c0-25.5-27-21.3-49.2-21.3L-482.9,70.8L-482.9,70.8z M-482.9,190.8
	c27.8,0,62.1,4.6,62.7-27c0.6-32.9-35.3-27-62.7-27L-482.9,190.8L-482.9,190.8z"/>
<polygon points="1383.6,2474.2 1383.6,2889.2 1798.6,2889.2 1798.6,2474.2 1383.6,2474.2 "/>
<path fill="#FFFFFF" d="M1588.4,2637.1l70.1,70.1c5.6,5.6,5.6,14.7,0,20.3l-70.1,70.1c-5.6,5.6-14.7,5.6-20.3,0l-70.1-70.1
	c-5.6-5.6-5.6-14.7,0-20.3l70.1-70.1C1573.7,2631.5,1582.8,2631.5,1588.4,2637.1L1588.4,2637.1z"/>
<path d="M1685.2,2562L1581,2706.9c-3.7,5.1-7,0.3-7,0.3l-11.2-14.8c5.6-16.4,3.5-35.2-7.3-50.4c-17.9-25-52.6-30.8-77.5-12.9
	c-25,17.8-30.8,52.6-12.9,77.5c14.3,20,39.3,27.6,61.6,20.8l47.6,39c0,0,2.9,2.7,6.1,0.1l146.7-123.6V2562L1685.2,2562L1685.2,2562z
	"/>
<path fill="#FFFFFF" d="M1694.5,2561.4l-113.6,156c-3.2,3.6-6.1,1.7-7.2,0.4c-0.4-0.5-8.1-10.5-18.1-23.6c7.3-16.8,5-37.1-7.7-51.9
	c-17.7-20.7-48.9-23.2-69.6-5.4c-20.7,17.7-23.2,48.9-5.4,69.6c13.9,16.3,36.2,21.3,55.1,14.1l46.5,37.4c0,0,2.5,2.4,5.4,0.1
	l147.8-124.7v-71.9H1694.5L1694.5,2561.4z"/>
<polygon points="-660.5,1963.1 -660.5,2378.1 -245.5,2378.1 -245.5,1963.1 -660.5,1963.1 "/>
<path fill-rule="evenodd" clip-rule="evenodd" fill="#FFFFFF" d="M-296.2,2170.6c0,40.8-33,73.8-73.8,73.8
	c-40.8,0-73.8-33-73.8-73.8c0-40.8,33-73.8,73.8-73.8C-329.2,2096.8-296.2,2129.9-296.2,2170.6L-296.2,2170.6z M-462.2,2170.6
	c0,40.8-33,73.8-73.8,73.8c-40.8,0-73.8-33-73.8-73.8c0-40.8,33-73.8,73.8-73.8C-495.3,2096.8-462.2,2129.9-462.2,2170.6
	L-462.2,2170.6z M-476.1,2170.6c0,33.1-26.8,59.9-59.9,59.9c-33.1,0-59.9-26.8-59.9-59.9c0-33.1,26.8-59.9,59.9-59.9
	C-502.9,2110.7-476.1,2137.5-476.1,2170.6L-476.1,2170.6z"/>
<polygon points="872.6,2474.2 872.6,2889.2 1287.6,2889.2 1287.6,2474.2 872.6,2474.2 "/>
<path fill-rule="evenodd" clip-rule="evenodd" fill="#FFFFFF" d="M1036.2,2561.4h53.1c19.6,2.3,48.1,19.1,58.7,41.5
	c2.9,6.3,4.4,7.2,6.8,25.8c1.3,9.6,1.9,16.6,6.2,20.6c6,5.5,28.4,1.8,32.8,5.2l3.4,2.7l2,4.2l0.7,3.4l-0.5,61.4
	c-0.2,41.7-34.2,75.9-76,75.9h-87.3c-41.8,0-76-34.2-76-75.9v-88.7C960.2,2595.6,994.4,2561.4,1036.2,2561.4L1036.2,2561.4z
	 M1037.2,2710.5h85.6c8,0,14.5,6.5,14.5,14.5c0,7.9-6.5,14.5-14.5,14.5h-85.6c-8,0-14.5-6.6-14.5-14.5
	C1022.6,2717,1029.1,2710.5,1037.2,2710.5L1037.2,2710.5z M1037.2,2623.5h42.1c8,0,14.5,6.5,14.5,14.5c0,8-6.5,14.5-14.5,14.5h-42.1
	c-8,0-14.5-6.6-14.5-14.5C1022.6,2630,1029.1,2623.5,1037.2,2623.5L1037.2,2623.5z"/>
<polygon points="361.6,2474.2 361.6,2889.2 776.6,2889.2 776.6,2474.2 361.6,2474.2 "/>
<path fill-rule="evenodd" clip-rule="evenodd" fill="#FFFFFF" d="M569.1,2544.5c-75.8,0-137.2,61.4-137.2,137.2
	c0,56.2,33.8,104.4,82.1,125.7c-0.4-9.6-0.1-21.1,2.4-31.5c2.6-11.1,17.7-74.8,17.7-74.8s-4.4-8.8-4.4-21.7
	c0-20.3,11.8-35.5,26.5-35.5c12.5,0,18.5,9.4,18.5,20.6c0,12.5-8,31.3-12.1,48.7c-3.4,14.6,7.3,26.4,21.7,26.4
	c26,0,43.5-33.4,43.5-72.9c0-30.1-20.3-52.6-57.1-52.6c-41.6,0-67.5,31-67.5,65.7c0,12,3.5,20.4,9,26.9c2.5,3,2.9,4.2,2,7.6
	c-0.7,2.5-2.2,8.6-2.8,11c-0.9,3.5-3.7,4.7-6.9,3.4c-19.2-7.8-28.1-28.8-28.1-52.4c0-39,32.9-85.7,98.1-85.7
	c52.4,0,86.9,37.9,86.9,78.6c0,53.8-29.9,94-74,94c-14.8,0-28.7-8-33.5-17.1c0,0-8,31.6-9.7,37.7c-2.9,10.6-8.6,21.1-13.8,29.4
	c12.3,3.6,25.4,5.6,38.9,5.6c75.8,0,137.2-61.4,137.2-137.2C706.2,2605.9,644.8,2544.5,569.1,2544.5L569.1,2544.5z"/>
<polygon points="-149.5,2474.2 -149.5,2889.2 265.5,2889.2 265.5,2474.2 -149.5,2474.2 "/>
<path fill-rule="evenodd" clip-rule="evenodd" fill="#FFFFFF" d="M-68.6,2603.2c112.8,0,204.6,92.3,204.6,205.7h48.8
	c0-140.3-113.7-254.5-253.4-254.5V2603.2L-68.6,2603.2z M-1.2,2774.8c0,18.7-15.1,33.8-33.8,33.8c-18.7,0-33.8-15.1-33.8-33.8
	c0-18.7,15.1-33.8,33.8-33.8C-16.3,2741.1-1.2,2756.2-1.2,2774.8L-1.2,2774.8z M-68.7,2689.7c31.7,0,61.4,12.4,83.8,34.9
	c22.4,22.5,34.7,52.5,34.7,84.4h48.8c0-92.6-75.1-168-167.3-168V2689.7L-68.7,2689.7z"/>
<polygon points="-660.5,2474.2 -660.5,2889.2 -245.5,2889.2 -245.5,2474.2 -660.5,2474.2 "/>
<path fill-rule="evenodd" clip-rule="evenodd" fill="#FFFFFF" d="M-509.4,2762.3c0.1,13.8,3,27.1,12,37.1c1.2,1.3,2.2,2,3.3,3.1
	c8.5,8.9,21,15.8,36.6,19.5c16,3.8,35.3,3.7,51.4,1c11.9-2,32.8-8.5,41.3-13.9l0-44.8c-4.3,1-23.1,16.2-48.5,13.4
	c-20.2-2.2-27.2-15.6-28-34.3c-0.8-6.5-0.8-86.3-0.7-87.6l67.7,0l0-44.8l-68-0.2l-0.3-72.3l-32.8,0c-4.9,0-7.2-1.4-8,2.6
	c-2.8,13.6-3.6,22.5-9.7,34.2c-9.6,18.3-27.6,35.2-48.1,39.8v40.8l31.7,0.3L-509.4,2762.3L-509.4,2762.3z"/>
<polygon points="-660.5,2985.2 -660.5,3400.2 -245.5,3400.2 -245.5,2985.2 -660.5,2985.2 "/>
<path fill-rule="evenodd" clip-rule="evenodd" fill="#FFFFFF" d="M-508,3215.7c8.4,0,13.4-0.1,21.1,3.6c2.5,1.2,3.9,2.1,6,3.5
	c28.4,19.4,19.8,70.7-25.2,70.7c-2.6,0-8.3-1.3-10.5-2.1c-3.3-1.2-6-2.4-8.5-4.2c-3.6-2.6-10.8-8.8-12-13.3c12,2.8,31,19.5,51.7,0.5
	c11.3-10.3,13-29.6,3.2-41.5c-7.1-8.5-10.8-9.5-21.2-13.6c-2.4-1-4-1.8-6.5-2.3C-509.1,3215.9-509.8,3215.7-508,3215.7L-508,3215.7z
	 M-589.9,3249.7v-60.9c0.2-3,1.1-3.7,3.4-3l10.5,4.2c12.8,5.1,24.7,9.9,37.5,15c5.1,2.1,6.5,3.5,9.5,2.2c13.7-6.2,16.5-6.5,31.2-6.2
	c1.9-3.6,4.2-6.2,6.3-9.5l25.5-36.5c2-2.7,12-17,12.3-18.1c0.3-1.4,0.4-5.7,0.6-7c3.1-20.6,9.2-31.2,23.4-45.5
	c4.2-4.2,12.9-9.6,18.7-12.3c11.7-5.5,20.6-5.9,33.3-5.9c13.9,0,33.6,8.2,42.5,16.9l8.5,8.5c1.3,1.4,2.4,3,3.6,4.6
	c7.7,11.2,12.1,24,13,36.9v10.1c-0.8,11.6-4.5,23-11.1,33.2c-8.9,13.7-21.6,23.9-37.2,29.2c-15,5.1-20.2,1.7-27,6.6l-57.7,42.2
	c-8.4,6.4-6.8,4.1-7.6,9.5c-7,47.9-76.7,60.1-99.5,17.1c-5.1-9.6-4.3-14.2-7.6-15.8l-29.7-11.9
	C-588.7,3253-589.9,3251.9-589.9,3249.7L-589.9,3249.7z M-420.1,3136c0,9.2,1.8,16.5,6.7,23.7c14.5,21.2,45.9,22.2,60.9,3.4
	c0.8-1,1.3-1.4,2.1-2.3c1.5-1.9,2.3-3.7,3.5-6c13.3-26.5-7.9-55.5-32.7-55.5c-12.6,0-21.4,3.3-29.3,11.2
	C-414.1,3115.8-420.1,3125.7-420.1,3136L-420.1,3136z M-429.6,3137.8c0-12,5.3-24.7,13.8-33.1c21.3-21.3,54.7-17.6,70.3,2.1
	c8.1,10.3,11.5,18.1,11.5,32.8c0,24.7-23.6,47.5-48.5,45.9c-20.7-1.4-34.1-10.5-42.6-28.2C-427.6,3152.3-429.6,3143.8-429.6,3137.8
	L-429.6,3137.8z"/>
<polygon points="-149.5,2985.2 -149.5,3400.2 265.5,3400.2 265.5,2985.2 -149.5,2985.2 "/>
<path fill-rule="evenodd" clip-rule="evenodd" fill="#FFFFFF" d="M44.4,3194.5c0-4.3-0.8-9-3.3-12.5c-5-7.2-15.7-9.5-23.1-4.9
	c-3.8,2.3-5.9,6.3-7,10.4c-2.3,8.2-1.3,17.5,0.4,25.7c0.5,2.6,1.1,5.2,1.8,7.8c0.3,0.9,0.4,2.3,1,3.1c1.1,1.4,3.6,1.7,5.2,1.5
	c4.7-0.8,3.6-8.6,3.4-11.9c-0.4-7.8-2.7-15.3-0.4-23c0.9-3.3,2.8-6.9,6.1-8.4c3-1.3,6,0.3,7.2,3.2c1.9,4.7,1.4,10.2,2.6,15.1
	c0.4,1.7,0.9,3.3,1.6,4.9c0.2,0.4,0.5,1.4,1.1,1.3c1.5-0.1,3.7-2.7,4.9-3.6c3.7-3.1,7.5-6.4,11.8-8.6c2-1.1,5.3-2.8,7.4-1
	c0.5,0.5,0.9,1,1.3,1.6c2.4,3.8,0,6.7-1.6,10.3c-2,4.7-4.1,9.3-7.1,13.4c-2.5,3.6-6,6.7-8,10.6c-1.3,2.5-2,5.3-1.5,8.1
	c0.4,2.3,2.2,3.7,4.6,3.1c1.8-0.4,2.9-1.9,3.9-3.3c1.8-2.5,3.4-5,5.2-7.5c3.4-4.8,7.5-9.3,10.4-14.5c3.5-6.2,5.1-13.3,5.1-20.4
	c0-5.8-2.1-14.7-8.9-15.9c-1.3-0.2-2.7-0.1-4,0.1c-1.6,0.3-3.1,0.8-4.6,1.5c-3.8,1.9-7.2,4.6-10,7.8
	C48.1,3190.4,46.5,3192.8,44.4,3194.5L44.4,3194.5L44.4,3194.5z M-13,3304.5c-2.1,0.2-3.7,1.3-5.1,2.9c-1,1.1-1.9,2-2.4,3.4
	c-3,7.4,5,14.5,10.6,18c6.2,3.9,12.9,6.8,19.8,9.3c15.5,5.5,33.7,9,49.7,4.1c4.8-1.5,9.5-4.1,13-7.8c2-2,3.3-5.1-0.3-6.4
	c-2.1-0.8-4.7,1.2-6.6,2c-4.6,1.8-9.3,3.2-14.2,3.8c-6.4,0.8-12.2-0.6-18.4-2.2c-5.3-1.3-10.7-2.7-15.8-4.6
	c-4.4-1.6-8.7-3.6-12.5-6.3c-1.1-0.8-2.5-1.5-3.5-2.6c-3.1-3.4-5.4-7.5-8.7-10.8C-8.8,3305.9-10.8,3304.2-13,3304.5L-13,3304.5
	L-13,3304.5z M-15.9,3276.9c-1.5,0.2-3.2,0.1-4.4,1.1c-2.6,1.9,0.3,5.8,1.7,7.6c4,5.1,9.3,9.3,14.6,13.1
	c14.7,10.4,31.4,16.4,49.3,17.6c5.2,0.4,10.4,0,15.5-0.9c1.9-0.3,4.2-0.5,5.9-1.3c4.9-2.3,3.5-11.5-0.9-13.5
	c-1.9-0.9-4.9,0.3-6.9,0.6c-4.7,0.7-9.4,0.7-14.2,0.6c-12.4-0.3-25.6-4.1-36.5-10.2c-4.3-2.4-8.2-5.3-11.8-8.5
	c-2.2-2-4.5-5.2-7.4-6.1C-12.4,3276.5-14.5,3276.7-15.9,3276.9L-15.9,3276.9L-15.9,3276.9z M-8.4,3244.1c-5.8,0.8-7.5,5.5-6.4,10.7
	c1.4,6.7,6.6,11.8,11.9,15.8c13.4,10.3,30.7,15.9,47.5,15.2c6.6-0.3,13.7-1.4,19.8-4.2c3.2-1.5,6.6-6.9,2.2-9.2
	c-0.6-0.3-1.4-0.5-2.1-0.6c-1.9-0.3-4.1,0.5-5.9,1c-3.2,0.9-6.4,1.9-9.7,2.4c-9.9,1.6-20.6-0.7-28.8-6.5c-6.6-4.7-12-11-17-17.3
	C0,3247.6-2.8,3243.3-8.4,3244.1L-8.4,3244.1L-8.4,3244.1z M38.1,3051.1c-5.3,0.7-10.7,0.6-16.1,1.5c-10.2,1.6-20.1,4.8-29.7,8.6
	c-3.5,1.4-6.9,3-10.3,4.6c-1.3,0.6-3.2,1.1-4.2,2.1c-0.5,0.5-0.5,1.7-0.5,2.4c-0.2,1.9-0.4,3.8-0.6,5.8c-0.7,7.4-1.2,15-0.2,22.4
	c0.3,2.4,1.1,6.7,4,7.2c4.5,0.7,8-4.9,10.2-7.9c5.2-7.2,11.1-13.8,19.6-17.1c10-3.8,21.4-4.7,32-5.4c29.7-2,62.1,3.4,84,25.2
	c3.1,3.1,6.1,6.4,8.6,10c9.8,14.2,15,30.3,17.5,47.2c1.2,7.9,2,16,0.2,23.9c-3.1,13.7-11.4,25.7-20.9,35.9c-6.5,7-13.8,13.3-21.4,19
	c-4.2,3.2-9,5.9-13,9.4c-4.6,4-8.4,9.1-11.3,14.4c-7.8,14.4-9.9,31.8-7.6,48c0.5,3.3,0.9,6.6,1.6,9.9c0.2,1,0.3,2.7,0.9,3.4
	c1.2,1.5,4.4,2.3,6.2,2.4c1.9,0.1,3.1-1.4,3.6-3c0.8-2.9,0.3-6.1-0.1-9c-0.9-6-1.8-12-1.5-18c0.5-11.2,4.8-21.6,12.5-29.7
	c7.9-8.2,18.5-13,27.4-19.9c18-13.9,34.2-32.6,40.4-55c2.2-8,3-16.4,1.9-24.6c-1.3-10.4-5.1-20.8-8.7-30.5
	c-10.9-29.8-29.6-58.2-59.3-71.8c-11.8-5.4-24.1-7.9-36.9-9.7c-6-0.8-12-1.3-18-1.6C45.1,3051,41.4,3050.6,38.1,3051.1L38.1,3051.1
	L38.1,3051.1z M44.4,3194.5L44.4,3194.5L44.4,3194.5L44.4,3194.5z M-13,3304.5L-13,3304.5L-13,3304.5L-13,3304.5z M-15.9,3276.9
	L-15.9,3276.9L-15.9,3276.9L-15.9,3276.9z M-8.4,3244.1L-8.4,3244.1L-8.4,3244.1L-8.4,3244.1z M38.1,3051.1L38.1,3051.1L38.1,3051.1
	L38.1,3051.1z"/>
<path d="M450.6,5218.2v-90h11v32.3c5.2-6,11.7-9,19.5-9c4.8,0,9,1,12.6,2.9c3.6,1.9,6.1,4.5,7.7,7.9c1.5,3.4,2.3,8.2,2.3,14.6v41.3
	h-11.1v-41.3c0-5.5-1.2-9.5-3.6-12.1c-2.4-2.5-5.8-3.8-10.2-3.8c-3.3,0-6.4,0.9-9.2,2.6c-2.9,1.7-4.9,4-6.2,6.9
	c-1.2,2.9-1.8,6.9-1.8,12v35.7H450.6L450.6,5218.2z M563.1,5210.1c-4.1,3.5-8,5.9-11.8,7.4c-3.8,1.4-7.9,2.1-12.2,2.1
	c-7.2,0-12.7-1.7-16.5-5.2c-3.8-3.5-5.8-8-5.8-13.4c0-3.2,0.7-6.1,2.2-8.8c1.4-2.6,3.4-4.8,5.7-6.4c2.4-1.6,5-2.8,8-3.6
	c2.2-0.6,5.4-1.1,9.8-1.7c8.9-1.1,15.5-2.3,19.7-3.8c0-1.5,0.1-2.5,0.1-2.9c0-4.5-1-7.7-3.1-9.5c-2.8-2.5-7-3.8-12.6-3.8
	c-5.2,0-9,0.9-11.5,2.7c-2.5,1.8-4.3,5.1-5.5,9.7l-10.8-1.5c1-4.6,2.6-8.4,4.8-11.2c2.2-2.9,5.5-5.1,9.8-6.6s9.2-2.3,14.8-2.3
	c5.6,0,10.1,0.7,13.6,2c3.5,1.3,6,3,7.7,4.9c1.6,2,2.8,4.5,3.4,7.5c0.4,1.9,0.5,5.3,0.5,10.2v14.7c0,10.3,0.2,16.8,0.7,19.5
	c0.5,2.7,1.4,5.3,2.8,7.8h-11.5C564.2,5215.9,563.4,5213.2,563.1,5210.1L563.1,5210.1z M562.2,5185.4c-4,1.7-10,3-18,4.2
	c-4.5,0.6-7.8,1.4-9.6,2.2c-1.9,0.8-3.4,2-4.4,3.6c-1,1.6-1.6,3.3-1.6,5.2c0,3,1.1,5.4,3.4,7.4c2.2,1.9,5.5,2.9,9.8,2.9
	c4.3,0,8-0.9,11.4-2.8c3.3-1.9,5.8-4.4,7.3-7.7c1.2-2.5,1.8-6.2,1.8-11V5185.4L562.2,5185.4z M590.5,5218.2v-65.2h9.9v9.3
	c4.8-7.2,11.7-10.8,20.8-10.8c3.9,0,7.5,0.7,10.8,2.1c3.3,1.4,5.8,3.3,7.4,5.6c1.7,2.3,2.8,5,3.5,8.2c0.4,2.1,0.6,5.6,0.6,10.8v40.1
	h-11.1v-39.7c0-4.5-0.4-7.9-1.3-10.1c-0.9-2.2-2.4-4-4.6-5.3c-2.2-1.3-4.8-2-7.7-2c-4.7,0-8.8,1.5-12.2,4.5c-3.4,3-5.1,8.7-5.1,17
	v35.6H590.5L590.5,5218.2z M702.8,5218.2v-8.2c-4.1,6.5-10.2,9.7-18.2,9.7c-5.2,0-10-1.4-14.3-4.3c-4.4-2.9-7.7-6.9-10.1-12
	c-2.4-5.1-3.6-11-3.6-17.7c0-6.5,1.1-12.4,3.2-17.7c2.2-5.3,5.4-9.4,9.8-12.2c4.3-2.8,9.2-4.3,14.6-4.3c3.9,0,7.4,0.8,10.5,2.5
	c3.1,1.7,5.6,3.8,7.5,6.5v-32.3h11v90H702.8L702.8,5218.2z M667.8,5185.6c0,8.4,1.8,14.6,5.3,18.7c3.5,4.1,7.7,6.2,12.5,6.2
	c4.8,0,8.9-2,12.3-5.9c3.4-3.9,5.1-10,5.1-18.1c0-8.9-1.7-15.5-5.2-19.6c-3.4-4.2-7.7-6.3-12.7-6.3c-4.9,0-9,2-12.3,6
	C669.5,5170.6,667.8,5177,667.8,5185.6L667.8,5185.6z M726,5198.7l10.9-1.7c0.6,4.4,2.3,7.7,5.1,10.1c2.8,2.3,6.7,3.5,11.8,3.5
	c5.1,0,8.8-1,11.3-3.1c2.5-2.1,3.7-4.5,3.7-7.3c0-2.5-1.1-4.5-3.3-5.9c-1.5-1-5.3-2.2-11.3-3.7c-8.1-2.1-13.7-3.8-16.9-5.3
	c-3.1-1.5-5.5-3.6-7.1-6.2c-1.6-2.6-2.4-5.6-2.4-8.7c0-2.9,0.7-5.6,2-8.1c1.3-2.5,3.1-4.5,5.4-6.2c1.7-1.3,4.1-2.3,7-3.2
	c3-0.9,6.2-1.3,9.6-1.3c5.1,0,9.6,0.8,13.5,2.2c3.9,1.5,6.7,3.5,8.6,6c1.8,2.5,3.1,5.9,3.8,10.1l-10.8,1.5c-0.5-3.4-1.9-6-4.3-7.9
	c-2.3-1.9-5.7-2.8-10-2.8c-5.1,0-8.7,0.8-10.9,2.5c-2.2,1.7-3.3,3.6-3.3,5.9c0,1.4,0.5,2.7,1.4,3.9c0.9,1.2,2.3,2.2,4.2,3
	c1.1,0.4,4.4,1.3,9.8,2.8c7.8,2.1,13.3,3.8,16.4,5.1c3.1,1.3,5.5,3.3,7.3,5.8c1.8,2.5,2.6,5.7,2.6,9.5c0,3.7-1.1,7.1-3.2,10.4
	c-2.2,3.2-5.3,5.8-9.3,7.5s-8.6,2.7-13.8,2.7c-8.5,0-14.9-1.8-19.4-5.3C730,5210.8,727.2,5205.6,726,5198.7L726,5198.7z M789,5191.1
	V5180h34v11.1H789L789,5191.1z M877.7,5194.3l10.9,1.4c-1.2,7.5-4.2,13.4-9.1,17.6c-4.9,4.2-10.9,6.4-18,6.4
	c-8.9,0-16.1-2.9-21.5-8.7c-5.4-5.8-8.2-14.2-8.2-25.1c0-7,1.2-13.2,3.5-18.5c2.3-5.3,5.9-9.2,10.7-11.9c4.8-2.6,10-4,15.6-4
	c7.1,0,12.9,1.8,17.4,5.4c4.5,3.6,7.4,8.7,8.7,15.3l-10.8,1.7c-1-4.4-2.8-7.7-5.4-9.9c-2.6-2.2-5.7-3.3-9.4-3.3
	c-5.6,0-10.1,2-13.6,6c-3.5,4-5.2,10.3-5.2,18.9c0,8.8,1.7,15.1,5.1,19.1c3.4,4,7.7,6,13.1,6c4.3,0,7.9-1.3,10.9-4
	C875.1,5203.9,877,5199.8,877.7,5194.3L877.7,5194.3z M897.9,5218.2v-65.2h9.9v9.9c2.5-4.6,4.9-7.7,7-9.1c2.1-1.5,4.5-2.2,7.1-2.2
	c3.7,0,7.5,1.2,11.4,3.6l-3.8,10.3c-2.7-1.6-5.4-2.4-8.1-2.4c-2.4,0-4.6,0.7-6.5,2.2c-1.9,1.5-3.3,3.5-4.1,6.1
	c-1.2,3.9-1.8,8.2-1.8,12.9v34.1H897.9L897.9,5218.2z M984.6,5197.2l11.4,1.4c-1.8,6.7-5.1,11.9-10,15.6c-4.9,3.7-11.1,5.5-18.7,5.5
	c-9.5,0-17.1-2.9-22.7-8.8c-5.6-5.9-8.4-14.1-8.4-24.7c0-11,2.8-19.5,8.5-25.6c5.7-6.1,13-9.1,22-9.1c8.7,0,15.8,3,21.4,8.9
	c5.5,5.9,8.3,14.3,8.3,25c0,0.7,0,1.7-0.1,3h-48.6c0.4,7.2,2.4,12.7,6.1,16.5c3.6,3.8,8.2,5.7,13.6,5.7c4,0,7.5-1.1,10.4-3.2
	C980.6,5205.2,982.9,5201.8,984.6,5197.2L984.6,5197.2z M948.3,5179.3h36.4c-0.5-5.5-1.9-9.6-4.2-12.3c-3.5-4.3-8.1-6.4-13.7-6.4
	c-5.1,0-9.3,1.7-12.8,5.1C950.6,5169,948.7,5173.6,948.3,5179.3L948.3,5179.3z M1052.5,5210.1c-4.1,3.5-8,5.9-11.8,7.4
	c-3.8,1.4-7.9,2.1-12.2,2.1c-7.2,0-12.7-1.7-16.5-5.2c-3.8-3.5-5.8-8-5.8-13.4c0-3.2,0.7-6.1,2.2-8.8c1.4-2.6,3.4-4.8,5.7-6.4
	c2.4-1.6,5-2.8,8-3.6c2.2-0.6,5.4-1.1,9.8-1.7c8.9-1.1,15.5-2.3,19.7-3.8c0-1.5,0.1-2.5,0.1-2.9c0-4.5-1-7.7-3.1-9.5
	c-2.8-2.5-7-3.8-12.6-3.8c-5.2,0-9,0.9-11.5,2.7c-2.5,1.8-4.3,5.1-5.5,9.7l-10.8-1.5c1-4.6,2.6-8.4,4.8-11.2
	c2.2-2.9,5.5-5.1,9.8-6.6c4.3-1.5,9.2-2.3,14.8-2.3c5.6,0,10.1,0.7,13.6,2c3.5,1.3,6,3,7.7,4.9c1.6,2,2.8,4.5,3.4,7.5
	c0.4,1.9,0.5,5.3,0.5,10.2v14.7c0,10.3,0.2,16.8,0.7,19.5c0.5,2.7,1.4,5.3,2.8,7.8h-11.6C1053.5,5215.9,1052.8,5213.2,1052.5,5210.1
	L1052.5,5210.1z M1051.5,5185.4c-4,1.7-10,3-18,4.2c-4.5,0.6-7.8,1.4-9.6,2.2c-1.9,0.8-3.4,2-4.4,3.6c-1,1.6-1.6,3.3-1.6,5.2
	c0,3,1.1,5.4,3.4,7.4c2.2,1.9,5.5,2.9,9.8,2.9c4.3,0,8-0.9,11.4-2.8c3.3-1.9,5.8-4.4,7.3-7.7c1.2-2.5,1.8-6.2,1.8-11V5185.4
	L1051.5,5185.4z M1104,5208.3l1.6,9.8c-3.1,0.6-5.9,1-8.3,1c-4,0-7.1-0.6-9.3-1.9c-2.2-1.3-3.8-2.9-4.7-5c-0.9-2.1-1.4-6.4-1.4-13
	v-37.5h-8.1v-8.6h8.1v-16.2l11-6.6v22.8h11.1v8.6h-11.1v38.1c0,3.2,0.2,5.2,0.6,6.1c0.4,0.9,1,1.6,1.9,2.2c0.9,0.5,2.1,0.8,3.8,0.8
	C1100.4,5208.7,1102,5208.6,1104,5208.3L1104,5208.3z M1114.8,5140.9v-12.7h11.1v12.7H1114.8L1114.8,5140.9z M1114.8,5218.2v-65.2
	h11.1v65.2H1114.8L1114.8,5218.2z M1160.8,5218.2l-24.8-65.2h11.7l14,39.1c1.5,4.2,2.9,8.6,4.2,13.1c1-3.4,2.3-7.6,4.1-12.4
	l14.5-39.8h11.4l-24.7,65.2H1160.8L1160.8,5218.2z M1250.2,5197.2l11.4,1.4c-1.8,6.7-5.1,11.9-10,15.6c-4.9,3.7-11.1,5.5-18.7,5.5
	c-9.5,0-17.1-2.9-22.7-8.8c-5.6-5.9-8.4-14.1-8.4-24.7c0-11,2.8-19.5,8.5-25.6c5.7-6.1,13-9.1,22-9.1c8.7,0,15.8,3,21.4,8.9
	c5.5,5.9,8.3,14.3,8.3,25c0,0.7,0,1.7-0.1,3h-48.6c0.4,7.2,2.4,12.7,6.1,16.5c3.6,3.8,8.2,5.7,13.6,5.7c4,0,7.5-1.1,10.4-3.2
	C1246.3,5205.2,1248.6,5201.8,1250.2,5197.2L1250.2,5197.2z M1214,5179.3h36.4c-0.5-5.5-1.9-9.6-4.2-12.3c-3.5-4.3-8.1-6.4-13.7-6.4
	c-5.1,0-9.3,1.7-12.8,5.1C1216.2,5169,1214.3,5173.6,1214,5179.3L1214,5179.3z M1278.7,5218.2v-12.6h12.6v12.6H1278.7L1278.7,5218.2
	z M1353.1,5194.3l10.9,1.4c-1.2,7.5-4.2,13.4-9.1,17.6c-4.9,4.2-10.9,6.4-18,6.4c-8.9,0-16.1-2.9-21.5-8.7
	c-5.4-5.8-8.2-14.2-8.2-25.1c0-7,1.2-13.2,3.5-18.5c2.3-5.3,5.9-9.2,10.7-11.9c4.8-2.6,10-4,15.6-4c7.1,0,12.9,1.8,17.4,5.4
	c4.5,3.6,7.4,8.7,8.7,15.3l-10.8,1.7c-1-4.4-2.8-7.7-5.4-9.9c-2.6-2.2-5.7-3.3-9.4-3.3c-5.6,0-10.1,2-13.6,6
	c-3.5,4-5.2,10.3-5.2,18.9c0,8.8,1.7,15.1,5.1,19.1c3.4,4,7.7,6,13.1,6c4.3,0,7.9-1.3,10.9-4
	C1350.4,5203.9,1352.3,5199.8,1353.1,5194.3L1353.1,5194.3z M1369.3,5185.5c0-12.1,3.4-21,10.1-26.8c5.6-4.8,12.4-7.3,20.5-7.3
	c9,0,16.3,2.9,22,8.8c5.7,5.9,8.5,14,8.5,24.3c0,8.4-1.3,15-3.8,19.8c-2.5,4.8-6.2,8.6-11,11.2c-4.8,2.7-10.1,4-15.8,4
	c-9.1,0-16.5-2.9-22.1-8.8C1372.1,5205,1369.3,5196.6,1369.3,5185.5L1369.3,5185.5z M1380.6,5185.5c0,8.4,1.8,14.6,5.5,18.8
	c3.6,4.2,8.2,6.2,13.8,6.2c5.5,0,10.1-2.1,13.7-6.3c3.6-4.2,5.5-10.5,5.5-19.1c0-8.1-1.8-14.2-5.5-18.3c-3.7-4.2-8.2-6.2-13.7-6.2
	c-5.5,0-10.1,2.1-13.8,6.2C1382.5,5171,1380.6,5177.2,1380.6,5185.5L1380.6,5185.5z M1443.3,5218.2v-65.2h9.9v9.1
	c2.1-3.2,4.8-5.8,8.2-7.7c3.4-1.9,7.3-2.9,11.6-2.9c4.8,0,8.8,1,11.9,3c3.1,2,5.3,4.8,6.5,8.4c5.2-7.6,11.9-11.4,20.1-11.4
	c6.5,0,11.4,1.8,14.9,5.4s5.2,9.1,5.2,16.5v44.8h-11v-41.1c0-4.4-0.4-7.6-1.1-9.6c-0.7-1.9-2-3.5-3.9-4.7c-1.9-1.2-4.1-1.8-6.6-1.8
	c-4.6,0-8.4,1.5-11.4,4.6c-3,3-4.5,7.9-4.5,14.6v37.9h-11v-42.4c0-4.9-0.9-8.6-2.7-11.1c-1.8-2.5-4.7-3.7-8.8-3.7
	c-3.1,0-6,0.8-8.6,2.5c-2.6,1.6-4.6,4-5.7,7.2c-1.2,3.2-1.8,7.7-1.8,13.6v33.8H1443.3L1443.3,5218.2z M1539.8,5219.7l26.1-93.1h8.8
	l-26,93.1H1539.8L1539.8,5219.7z M1583.1,5140.9v-12.7h11.1v12.7H1583.1L1583.1,5140.9z M1583.1,5218.2v-65.2h11.1v65.2H1583.1
	L1583.1,5218.2z M1653.5,5194.3l10.9,1.4c-1.2,7.5-4.2,13.4-9.1,17.6c-4.9,4.2-10.9,6.4-18,6.4c-8.9,0-16.1-2.9-21.5-8.7
	c-5.4-5.8-8.2-14.2-8.2-25.1c0-7,1.2-13.2,3.5-18.5c2.3-5.3,5.9-9.2,10.7-11.9c4.8-2.6,10-4,15.6-4c7.1,0,12.9,1.8,17.4,5.4
	c4.5,3.6,7.4,8.7,8.7,15.3l-10.8,1.7c-1-4.4-2.8-7.7-5.4-9.9c-2.6-2.2-5.7-3.3-9.4-3.3c-5.6,0-10.1,2-13.6,6
	c-3.5,4-5.2,10.3-5.2,18.9c0,8.8,1.7,15.1,5.1,19.1c3.4,4,7.7,6,13.1,6c4.3,0,7.9-1.3,10.9-4
	C1650.9,5203.9,1652.8,5199.8,1653.5,5194.3L1653.5,5194.3z M1669.8,5185.5c0-12.1,3.4-21,10.1-26.8c5.6-4.8,12.4-7.3,20.5-7.3
	c9,0,16.3,2.9,22,8.8c5.7,5.9,8.5,14,8.5,24.3c0,8.4-1.3,15-3.8,19.8c-2.5,4.8-6.2,8.6-11,11.2c-4.8,2.7-10.1,4-15.8,4
	c-9.1,0-16.5-2.9-22.1-8.8C1672.6,5205,1669.8,5196.6,1669.8,5185.5L1669.8,5185.5z M1681.1,5185.5c0,8.4,1.8,14.6,5.5,18.8
	c3.6,4.2,8.2,6.2,13.8,6.2c5.5,0,10.1-2.1,13.7-6.3c3.6-4.2,5.4-10.5,5.4-19.1c0-8.1-1.8-14.2-5.5-18.3c-3.7-4.2-8.2-6.2-13.7-6.2
	c-5.5,0-10.1,2.1-13.8,6.2C1682.9,5171,1681.1,5177.2,1681.1,5185.5L1681.1,5185.5z M1743.8,5218.2v-65.2h9.9v9.3
	c4.8-7.2,11.7-10.8,20.8-10.8c3.9,0,7.5,0.7,10.8,2.1c3.3,1.4,5.8,3.3,7.4,5.6c1.7,2.3,2.8,5,3.5,8.2c0.4,2.1,0.6,5.6,0.6,10.8v40.1
	h-11.1v-39.7c0-4.5-0.4-7.9-1.3-10.1c-0.9-2.2-2.4-4-4.6-5.3c-2.2-1.3-4.8-2-7.7-2c-4.7,0-8.8,1.5-12.2,4.5c-3.4,3-5.1,8.7-5.1,17
	v35.6H1743.8L1743.8,5218.2z"/>
<polygon points="361.6,2985.2 361.6,3400.2 776.6,3400.2 776.6,2985.2 361.6,2985.2 "/>
<path fill-rule="evenodd" clip-rule="evenodd" fill="#FFFFFF" d="M467.1,3055.5H671c19.4,0,35.2,15.8,35.2,35.2v203.9
	c0,19.4-15.8,35.2-35.2,35.2H467.1c-19.4,0-35.2-15.8-35.2-35.2v-203.9C431.9,3071.3,447.7,3055.5,467.1,3055.5L467.1,3055.5z
	 M631.7,3086L631.7,3086c-6.8,0-12.4,5.6-12.4,12.4v29.6c0,6.8,5.6,12.4,12.4,12.4h31c6.8,0,12.4-5.6,12.4-12.4v-29.6
	c0-6.8-5.6-12.4-12.4-12.4H631.7L631.7,3086z M675.2,3171.5L675.2,3171.5h-24.2c2.3,7.5,3.5,15.4,3.5,23.5
	c0,45.6-38.2,82.6-85.3,82.6c-47.1,0-85.3-37-85.3-82.6c0-8.2,1.2-16.1,3.5-23.5h-25.2v115.9c0,6,4.9,10.9,10.9,10.9h191.1
	c6,0,10.9-4.9,10.9-10.9V3171.5L675.2,3171.5z M569.3,3138.7L569.3,3138.7c-30.4,0-55.1,23.9-55.1,53.4c0,29.5,24.7,53.4,55.1,53.4
	c30.4,0,55.1-23.9,55.1-53.4C624.4,3162.6,599.8,3138.7,569.3,3138.7L569.3,3138.7z"/>
<polygon points="872.6,2985.2 872.6,3400.2 1287.6,3400.2 1287.6,2985.2 872.6,2985.2 "/>
<path fill-rule="evenodd" clip-rule="evenodd" fill="#FFFFFF" d="M1185.2,3271.5c-54.4,40.3-156.4,40.3-209.9,0
	c-27.2-20.2-40.8-46.5-40.8-79c0-32,13.6-58,40.8-78.2c26.8-20.6,61.9-30.7,104.9-30.7c42.6,0,77.7,10.1,104.9,30.7
	c26.8,20.2,40.4,46.1,40.4,78.2C1225.6,3225,1212,3251.3,1185.2,3271.5L1185.2,3271.5z M1165,3165.7l-20.6,4.4
	c-3.1,0.9-11.4,7-25.9,18.9c-15.4,12.3-23.3,20.2-24.6,24.1l-0.9,11l-0.4,6.6l1.8,16.7l27.2,0.4l-0.4,8.3h-44.3l-39.5,0.4l1.3-7.9
	l12.7-0.4c6.6-0.4,10.5-1.3,11.9-2.6c0.9-0.9,1.3-6.1,1.3-15.4v-5.7l-0.4-11.4c-0.9-2.6-7.9-12.3-21.5-29
	c-14-17.1-23.3-27.2-27.7-30.7l-25.5-3.5v-7.5c1.3-0.9,15.4-0.9,41.3-0.4c18-0.4,32.9-0.4,44.8,0.4l-0.9,6.2l-26.8,2.6
	c8.3,12.3,21.1,29.4,38.2,50.9c22.4-17.1,34.2-28.1,34.7-32.9l-22.8-3.5l-1.8-7.9h38.2l36,0.4L1165,3165.7L1165,3165.7z"/>
<polygon points="1383.6,2985.2 1383.6,3400.2 1798.6,3400.2 1798.6,2985.2 1383.6,2985.2 "/>
<path fill="#FFFFFF" d="M1530.4,3247c3.7,0,7.2-0.3,10.5-1.1c3.3-0.7,6.3-1.9,8.8-3.6c2.5-1.6,4.6-3.9,6.1-6.8
	c1.5-2.8,2.2-6.5,2.2-11c0-8.7-2.5-15-7.4-18.7c-4.9-3.7-11.4-5.6-19.5-5.6h-40.6v46.7H1530.4L1530.4,3247z M1528.3,3174.8
	c6.6,0,12.1-1.6,16.4-4.8c4.3-3.1,6.4-8.3,6.4-15.4c0-4-0.7-7.2-2.1-9.7c-1.4-2.5-3.4-4.5-5.8-5.9c-2.4-1.4-5.1-2.4-8.2-3
	c-3.1-0.6-6.3-0.8-9.6-0.8h-35v39.7H1528.3L1528.3,3174.8z M1533.2,3106.2c8.1,0,15.4,0.7,22.1,2.2c6.7,1.4,12.3,3.8,17.1,7
	c4.7,3.2,8.4,7.5,11.1,12.9c2.6,5.3,3.9,12,3.9,19.9c0,8.5-1.9,15.7-5.8,21.4c-3.9,5.7-9.6,10.4-17.3,14c10.4,3,18.2,8.3,23.3,15.8
	c5.2,7.6,7.7,16.6,7.7,27.2c0,8.6-1.6,16-4.9,22.2c-3.3,6.3-7.8,11.4-13.4,15.4c-5.6,4-12.1,6.9-19.3,8.8
	c-7.2,1.9-14.6,2.9-22.2,2.9h-82.3v-169.7H1533.2L1533.2,3106.2z"/>
<path fill="#FFFFFF" d="M1687.3,3181.9c-4-4.4-10.8-6.8-19.1-6.8c-5.4,0-9.9,0.9-13.4,2.8c-3.5,1.8-6.4,4.1-8.5,6.8
	c-2.2,2.7-3.7,5.6-4.5,8.7c-0.9,3-1.4,5.7-1.5,8.1h54.9C1694.3,3192.8,1691.3,3186.4,1687.3,3181.9L1687.3,3181.9z M1648.5,3246.5
	c5.1,4.9,12.4,7.4,21.8,7.4c6.8,0,12.7-1.7,17.6-5.2c4.9-3.4,7.9-7.1,9-10.9h29.7c-4.8,14.8-12,25.4-21.9,31.7
	c-9.8,6.4-21.7,9.6-35.6,9.6c-9.7,0-18.4-1.6-26.2-4.7c-7.8-3.1-14.3-7.5-19.8-13.2c-5.4-5.7-9.5-12.5-12.5-20.5
	c-2.9-7.9-4.4-16.7-4.4-26.2c0-9.2,1.5-17.8,4.5-25.7c3.1-8,7.3-14.8,12.9-20.6c5.6-5.8,12.2-10.4,19.9-13.7c7.7-3.3,16.2-5,25.6-5
	c10.4,0,19.5,2,27.3,6.1c7.8,4,14.2,9.5,19.2,16.3c5,6.8,8.6,14.6,10.8,23.3c2.2,8.7,3,17.8,2.3,27.4h-88.7
	C1640.2,3232.3,1643.5,3241.5,1648.5,3246.5L1648.5,3246.5z"/>
<polygon fill="#FFFFFF" points="1633.3,3134.4 1702.1,3134.4 1702.1,3117.6 1633.3,3117.6 1633.3,3134.4 "/>
<polygon points="-660.5,3496.2 -660.5,3911.2 -245.5,3911.2 -245.5,3496.2 -660.5,3496.2 "/>
<polygon fill="#FFFFFF" points="-522.1,3825.9 -560.8,3581.5 -526.6,3581.5 -502.1,3749.4 -472,3581.5 -432.4,3581.5 -403.7,3752.2 
	-378.6,3581.5 -345.2,3581.5 -384.8,3825.9 -420.4,3825.9 -452.9,3643.2 -485.6,3825.9 -522.1,3825.9 "/>
<polygon points="361.6,3496.2 361.6,3911.2 776.6,3911.2 776.6,3496.2 361.6,3496.2 "/>
<polygon fill-rule="evenodd" clip-rule="evenodd" fill="#FFFFFF" points="715.5,3710.2 697.9,3710.2 697.9,3736.5 724.1,3736.5 
	724.1,3710.2 715.5,3710.2 "/>
<path fill-rule="evenodd" clip-rule="evenodd" fill="#FFFFFF" d="M544.9,3746.5c0,0-6.1-20.4-8.8-29.5h9.2v-67.1H419.4v107.7h26.3
	v-40.7h60.3l10.3,34.5c0,0,1.1,3.8,1.1,3.8l0.7,2.4h6.4l12.1,0l7.1,0h4.5l-1.3-4.3L544.9,3746.5L544.9,3746.5z M519,3690.7h-73.3
	v-14.6H519V3690.7L519,3690.7z"/>
<polygon fill-rule="evenodd" clip-rule="evenodd" fill="#FFFFFF" points="675.8,3649.8 558.6,3649.8 558.6,3757.6 684.4,3757.6 
	684.4,3731.3 584.9,3731.3 584.9,3716.9 675.4,3716.9 675.4,3690.7 584.9,3690.7 584.9,3676.1 684.4,3676.1 684.4,3649.8 
	675.8,3649.8 "/>
<polygon fill-rule="evenodd" clip-rule="evenodd" fill="#FFFFFF" points="715.5,3671.1 697.9,3671.1 697.9,3697.3 724.1,3697.3 
	724.1,3671.1 715.5,3671.1 "/>
<polygon points="872.6,3496.2 872.6,3911.2 1287.6,3911.2 1287.6,3496.2 872.6,3496.2 "/>
<path fill="#FFFFFF" d="M1203.6,3566.5H956.6c-7.6,0-13.7,6.1-13.7,13.7v246.9c0,7.6,6.1,13.7,13.7,13.7h246.9
	c7.6,0,13.7-6.1,13.7-13.7v-246.9C1217.3,3572.7,1211.1,3566.5,1203.6,3566.5L1203.6,3566.5z M1208.4,3825.6L1208.4,3825.6
	c0,3.5-2.9,6.4-6.4,6.4H958.1c-3.5,0-6.4-2.9-6.4-6.4v-25.1l141-38.5l-42.2-87.1c16-3.5,105.7-20.3,139.5,28.8l-57.7,14.5
	l-18.2-38.8h-50.2l39.6,79.6l104.9-28.7V3825.6L1208.4,3825.6z M1010.4,3687.8L1010.4,3687.8l24.5,53.7l-54.5,13
	C968.8,3726.7,986.8,3700,1010.4,3687.8L1010.4,3687.8z M1208.4,3663.4L1208.4,3663.4c-71.2-23.4-130.3-20-169.3-11.9l-12.3-25.3
	h-44.7l17,37.1c-0.1,0-0.2,0.1-0.3,0.1c-25.6,10.5-47.3,28.6-47.3,28.6v-110.1c0-3.5,2.9-6.4,6.4-6.4H1202c3.5,0,6.4,2.9,6.4,6.4
	V3663.4L1208.4,3663.4z"/>
<polygon points="-149.5,3496.2 -149.5,3911.2 265.5,3911.2 265.5,3496.2 -149.5,3496.2 "/>
<polygon fill-rule="evenodd" clip-rule="evenodd" fill="#FFFFFF" stroke="#000000" stroke-width="0.5669" stroke-miterlimit="22.9256" points="
	-79.2,3840.9 -8.8,3840.9 -8.8,3619.3 141.5,3619.3 141.5,3659.7 34.1,3659.7 34.1,3727.6 109.2,3727.6 109.2,3764.2 34.1,3764.2 
	34.1,3840.9 195.2,3840.9 195.2,3566.5 -79.2,3566.5 -79.2,3840.9 "/>
<polygon points="1383.6,3496.2 1383.6,3911.2 1798.6,3911.2 1798.6,3496.2 1383.6,3496.2 "/>
<path fill-rule="evenodd" clip-rule="evenodd" fill="#FFFFFF" d="M1591.1,3840.9c75.8,0,137.2-61.4,137.2-137.2
	s-61.4-137.2-137.2-137.2s-137.2,61.4-137.2,137.2S1515.3,3840.9,1591.1,3840.9L1591.1,3840.9z M1668.3,3616.5
	c-2,3.5-10.3,11.5-11.8,12.7c-0.7,0.6-1,1-1.6,1.6c-5.3,4.8-11,8.6-16.9,12.4c-4,2.7-12.4,7.3-16.8,9.3c-1.5,0.7-2.9,1.3-4.4,2
	c-1.7,0.7-3,1.3-4.5,1.9c-1.6,0.7-3.2,1.4-5,1.8c-0.5-2.3-8.3-14.9-10-17.9c-0.9-1.6-1.6-2.8-2.5-4.3c-7.3-12.2-14.2-22.2-21.9-33.8
	l-8.3-11.9c8.6-2,17.5-3.1,26.6-3.1C1620.7,3587.2,1647.8,3598.3,1668.3,3616.5L1668.3,3616.5z M1591.1,3820.2
	c16.2,0,31.6-3.3,45.6-9.3c-0.8-3.7-1.4-7.5-2.2-11.3c-2.7-11.9-5-22.5-8.4-34.1c-2.2-7.4-4.4-14.6-6.8-21.8
	c-1.4-4.2-5.9-17.5-7.5-20.8l-7.6,2.8c-16.5,6.6-32.5,15-46.4,26.2c-3.8,3.1-7.7,6.1-11.1,9.6c-1.1,1.1-1.8,1.5-2.9,2.5l-9.9,10.9
	c-5.7,7.1-6.1,7.5-10.9,14.8c-1.3,1.9-2.4,4-3.5,6C1539.3,3811,1564.1,3820.2,1591.1,3820.2L1591.1,3820.2z M1656.5,3800.1
	c26-17.7,44.4-45.6,49.6-77.9c-1.4-0.2-2.6-0.7-3.8-1c-1.3-0.3-2.8-0.7-4-1c-7-1.7-24.3-4.4-31.4-4.4c-1.5,0-3.5,0.1-5,0
	c-7.5-0.6-3.9,0-9.3,0c-9,0-13.5,1.4-18.6,1.4l3.4,9.9c4.8,12.4,11.5,38.1,14.8,51.3c0.9,3.7,1.6,7,2.4,10.9
	C1655.1,3792.1,1656.4,3797.1,1656.5,3800.1L1656.5,3800.1z M1707.6,3702.3c-0.3-27.3-10-52.3-26-72l-6.3,6.9c-2.5,3-5.9,6-8.9,8.6
	c-0.8,0.7-1.1,1-1.9,1.7c-10.3,8-10,7.7-20.2,14.4c-4.7,3.1-23,12.7-27.7,13.8c2,3.7,3.5,7.6,5.4,11.4c1.8,3.6,3.1,7.9,5,11.4
	c3.4,0,7.7-0.8,11.1-1.1c3.8-0.3,24-0.7,27.7-0.2l12.7,0.9C1683.8,3698.4,1701.9,3701.1,1707.6,3702.3L1707.6,3702.3z
	 M1541.7,3598.2c-32.6,15.3-57,45.3-64.6,81.4l36-1.8c2.1-0.2,4.5-0.5,6.8-0.7c24.8-2.4,41.6-6.4,64.7-11.8
	c-0.9-1.4-1.7-2.9-2.7-4.5l-10.4-17.5c-0.9-1.6-1.7-2.7-2.6-4.2L1541.7,3598.2L1541.7,3598.2z M1474.7,3700.4c0,1.1-0.1,2.2-0.1,3.3
	c0,29.9,11.3,57.1,29.8,77.7c1.2-2.7,7.6-11.3,8.9-13.1l11.3-13.8c1.4-1.6,2.1-2,4-4.3c3.3-4.1,12.8-12.1,17.3-16
	c9.2-8,22.9-16.4,33.9-21.9c2.5-1.2,4.9-2.2,7.6-3.5c3.8-1.7,16.1-5.8,16.3-5.8c-0.5-2.1-1.4-3.3-2.1-5.1c-0.7-1.8-1.4-3.1-2.3-4.8
	l-4.5-9.8c-1.6,0.1-5,1.3-6.8,1.8c-2.2,0.6-4.5,1.2-6.7,1.8c-9.5,2.8-33.1,7.2-43,8.5C1518.3,3698.4,1497.2,3700.3,1474.7,3700.4
	L1474.7,3700.4z"/>
<polygon points="872.6,4007.2 872.6,4422.2 1287.6,4422.2 1287.6,4007.2 872.6,4007.2 "/>
<path fill-rule="evenodd" clip-rule="evenodd" fill="#FFFFFF" d="M1080.1,4086.7c49.7,0,89.3,40.3,90.1,90.1
	c1,71.7-86.8,160.2-90.1,160.2c-3.5,0-90.1-95.8-90.1-160.2C990,4127,1030.3,4086.7,1080.1,4086.7L1080.1,4086.7z M1080.1,4118.2
	c26.6,0,48.2,21.6,48.2,48.2c0,26.6-21.6,48.2-48.2,48.2s-48.2-21.6-48.2-48.2C1031.9,4139.8,1053.5,4118.2,1080.1,4118.2
	L1080.1,4118.2z"/>
<polygon points="-660.5,4007.2 -660.5,4422.2 -245.5,4422.2 -245.5,4007.2 -660.5,4007.2 "/>
<path fill="#FFFFFF" d="M-442,4268.4c0.1,0,103.8,0.1,104.5,0.1c20.8,0,37.7-16.9,37.7-37.7c0-20.8-16.9-37.7-37.7-37.7
	c-5.2,0-10.1,1-14.6,2.9c-3-33.5-30.6-59.8-64.7-60.6h-3.1c-8,0.2-15.7,1.8-22.6,4.5c-2.8,1.1-3.6,2.2-3.6,4.4c0,0,0,119.6,0,119.6
	C-446,4266.3-444.2,4268.2-442,4268.4L-442,4268.4z M-453.7,4144.3c-2.3,0-4.1,1.9-4.2,4.1l-1.7,84.9l1.7,30.8
	c0,2.3,1.9,4.1,4.2,4.1c2.3,0,4.1-1.9,4.1-4.1v0l1.8-30.8l-1.8-84.9C-449.6,4146.1-451.5,4144.3-453.7,4144.3L-453.7,4144.3z
	 M-466.6,4268.4c2.1,0,3.9-1.7,3.9-3.9l0,0l1.6-31.3l-1.6-77.8c0-2.1-1.8-3.9-3.9-3.9c-2.1,0-3.9,1.7-3.9,3.9l-1.5,77.8
	c0,0,1.5,31.3,1.5,31.3C-470.4,4266.7-468.7,4268.4-466.6,4268.4L-466.6,4268.4z M-474.1,4233.3l-1.8-65.4c0-2-1.6-3.6-3.6-3.6
	c-2,0-3.6,1.6-3.6,3.6l-1.6,65.4l1.6,31.5c0,2,1.6,3.6,3.6,3.6c2,0,3.6-1.6,3.6-3.6v0L-474.1,4233.3L-474.1,4233.3z M-492.3,4268.3
	c1.8,0,3.3-1.5,3.4-3.3v0l2-31.7l-2-67.9c0-1.9-1.5-3.3-3.4-3.3c-1.8,0-3.3,1.5-3.4,3.3l-1.8,67.9l1.8,31.7
	C-495.7,4266.8-494.2,4268.3-492.3,4268.3L-492.3,4268.3z M-505.1,4268.3c1.7,0,3-1.4,3.1-3.1l0,0l2.2-32l-2.2-69.7
	c-0.1-1.7-1.4-3.1-3.1-3.1c-1.7,0-3.1,1.4-3.1,3.1l-1.9,69.7l1.9,32C-508.1,4267-506.8,4268.3-505.1,4268.3L-505.1,4268.3z
	 M-517.7,4163.1c-1.5,0-2.8,1.2-2.8,2.8c0,0-2.1,67.4-2.1,67.4l2.1,32.2c0.1,1.6,1.3,2.8,2.8,2.8c1.5,0,2.8-1.2,2.8-2.8l0,0
	l2.4-32.2l-2.4-67.4C-514.9,4164.3-516.2,4163.1-517.7,4163.1L-517.7,4163.1z M-530.2,4268.3c1.4,0,2.5-1.1,2.6-2.6l0,0l2.5-32.5
	l-2.5-62.2c-0.1-1.4-1.2-2.6-2.6-2.6c-1.4,0-2.5,1.1-2.6,2.6c0,0-2.2,62.2-2.2,62.2l2.2,32.5
	C-532.7,4267.2-531.6,4268.3-530.2,4268.3L-530.2,4268.3z M-537.6,4233.3l-2.7-50.6c-0.1-1.3-1.1-2.3-2.3-2.3c-1.2,0-2.3,1-2.3,2.3
	c0,0-2.4,50.6-2.4,50.6l2.4,32.7c0.1,1.3,1.1,2.3,2.3,2.3c1.2,0,2.2-1,2.3-2.3v0L-537.6,4233.3L-537.6,4233.3z M-555,4268
	c1.1,0,2-0.9,2.1-2l0,0l2.9-32.7l-2.9-31.1c-0.1-1.1-1-2-2.1-2c-1.1,0-2,0.9-2.1,2l-2.5,31.1l2.5,32.7
	C-557,4267.1-556.1,4268-555,4268L-555,4268z M-567.2,4267.4c0.9,0,1.7-0.8,1.8-1.8l0,0l3.1-32.4l-3.1-33.5c-0.1-1-0.9-1.8-1.8-1.8
	c-0.9,0-1.7,0.8-1.8,1.8l-2.7,33.5l2.7,32.4C-568.9,4266.7-568.2,4267.4-567.2,4267.4L-567.2,4267.4z M-577.8,4200.6
	c-0.1-0.9-0.7-1.5-1.5-1.5c-0.8,0-1.5,0.6-1.5,1.5c0,0-2.9,32.6-2.9,32.6l2.9,31.5c0.1,0.9,0.7,1.5,1.5,1.5c0.8,0,1.4-0.6,1.5-1.5
	l3.2-31.5L-577.8,4200.6L-577.8,4200.6z M-602.7,4251.2c0.6,0,1.1-0.5,1.2-1.2l2.7-16.7l-2.7-17c-0.1-0.7-0.6-1.2-1.2-1.2
	c-0.6,0-1.1,0.5-1.2,1.2l-2.2,17l2.2,16.7C-603.9,4250.7-603.3,4251.2-602.7,4251.2L-602.7,4251.2z M-601.5,4250
	C-601.5,4250-601.5,4250-601.5,4250L-601.5,4250L-601.5,4250L-601.5,4250z M-591.4,4261.4c0.6,0,1.2-0.5,1.3-1.2l3.4-26.9l-3.4-27.5
	c-0.1-0.7-0.6-1.2-1.3-1.2c-0.7,0-1.2,0.5-1.3,1.2c0,0-3,27.5-3,27.5l3,26.9C-592.6,4260.9-592,4261.4-591.4,4261.4L-591.4,4261.4z"
	/>
<polygon points="1383.6,4007.2 1383.6,4422.2 1798.6,4422.2 1798.6,4007.2 1383.6,4007.2 "/>
<path fill-rule="evenodd" clip-rule="evenodd" fill="#FFFFFF" d="M1675.9,4080c7.5,3.4,18.1,11.6,23.9,20.2c5.8,8.6,6.7,17.6,6.6,26
	c-0.1,8.4-1.4,16.1-10.7,37.3c-9.3,21.2-26.7,55.8-51.2,87c-24.5,31.2-56.3,58.8-76.3,75.3c-20,16.5-28.4,21.7-37.2,24.2
	c-8.9,2.5-18.2,2.4-28.5-2.3c-10.2-4.7-21.3-13.8-25-23.3c-3.8-9.5-0.2-19.4,5.3-28.6c5.5-9.3,13-18,21-24c8-6,16.4-9.3,23.2-8
	c6.8,1.3,12.1,7.3,15.4,11.3c3.3,4,4.8,6.1,6.3,7.5c1.5,1.4,3,2.1,5.9,0.9c2.9-1.2,7.1-4.2,17.8-12.2c10.7-8,28-21,42.2-37.6
	c14.2-16.6,25.4-36.9,30.1-48.7c4.7-11.8,2.8-15.1-2.2-18.1c-5-3-13-5.8-17.5-9.9s-5.3-9.4-5.1-14.7c0.2-5.3,1.6-10.5,4.2-16.8
	c2.6-6.3,6.4-13.8,11.2-21c4.8-7.2,10.6-14.1,14.8-18.3c4.2-4.2,6.7-5.6,10.3-7C1663.9,4077.9,1668.4,4076.6,1675.9,4080
	L1675.9,4080z"/>
<polygon points="361.6,4007.2 361.6,4422.2 776.6,4422.2 776.6,4007.2 361.6,4007.2 "/>
<path fill-rule="evenodd" clip-rule="evenodd" fill="#FFFFFF" d="M674.9,4250.6c-5.8,12.7-8.5,18.4-15.9,29.7
	c-10.3,15.7-24.9,35.3-42.9,35.5c-16,0.1-20.2-10.4-41.9-10.3c-21.8,0.1-26.3,10.5-42.3,10.3c-18-0.2-31.9-17.9-42.2-33.6
	c-17.2-26.1-25.2-54.9-25.2-79.8c0-17,3.8-32.1,11.1-43.3c12.7-19.5,32.6-30.9,51.4-30.9c19.1,0,31.2,10.5,47,10.5
	c15.3,0,24.7-10.5,46.8-10.5c16.7,0,34.4,9.1,47.1,24.8C626.4,4175.7,633.1,4234.8,674.9,4250.6L674.9,4250.6L674.9,4250.6z
	 M603.9,4110.7c8-10.3,14.1-24.9,11.9-39.8c-13.1,0.9-28.5,9.3-37.4,20.1c-8.1,9.9-14.9,24.5-12.2,38.8
	C580.5,4130.3,595.3,4121.7,603.9,4110.7L603.9,4110.7L603.9,4110.7z"/>
<polygon points="-149.5,4007.2 -149.5,4422.2 265.5,4422.2 265.5,4007.2 -149.5,4007.2 "/>
<path fill="#FFFFFF" d="M4.5,4064.6l14.2,24.7c-25.9,12.7-43.4,37.5-43.4,66H58h82.7c0-28.5-17.5-53.3-43.4-66l14.2-24.7
	c0,0,0.7-1.3-0.6-2c-1.3-0.7-2.1,0.5-2.1,0.5l-14.4,24.9c-11-4.9-23.3-7.6-36.4-7.6c-13.1,0-25.4,2.8-36.4,7.6L7.2,4063
	c0,0-0.8-1.3-2.1-0.5C3.8,4063.2,4.5,4064.6,4.5,4064.6L4.5,4064.6L4.5,4064.6z M18.7,4112.4L18.7,4112.4c4.3,0,7.9,3.5,7.9,7.9
	c0,4.3-3.5,7.8-7.9,7.8c-4.3,0-7.9-3.4-7.9-7.8C10.8,4115.9,14.4,4112.4,18.7,4112.4L18.7,4112.4z M97.4,4112.4L97.4,4112.4
	c4.3,0,7.9,3.5,7.9,7.9c0,4.3-3.5,7.8-7.9,7.8c-4.3,0-7.9-3.4-7.9-7.8C89.5,4115.9,93,4112.4,97.4,4112.4L97.4,4112.4z"/>
<path fill="#FFFFFF" d="M-25.3,4164.9v125.5c0,6.2,7.5,14.4,13.8,14.4H8.1v42.8c0,10.9,7.9,19.7,17.8,19.7c9.9,0,17.8-8.8,17.8-19.7
	v-42.8h28.6v42.8c0,10.9,7.9,19.7,17.8,19.7c9.9,0,17.9-8.8,17.9-19.7v-42.8h19.6c6.2,0,13.8-8.1,13.8-14.4v-125.5H-25.3
	L-25.3,4164.9z"/>
<path fill="#FFFFFF" d="M-52.8,4162.2c9.8,0,17.8,8.8,17.8,19.7v74.5c0,10.9-8,19.7-17.8,19.7c-9.8,0-17.8-8.8-17.8-19.7v-74.5
	C-70.6,4171-62.6,4162.2-52.8,4162.2L-52.8,4162.2z"/>
<path fill="#FFFFFF" d="M168.8,4162.2c9.8,0,17.8,8.8,17.8,19.7v74.5c0,10.9-8,19.7-17.8,19.7c-9.8,0-17.8-8.8-17.8-19.7v-74.5
	C151,4171,159,4162.2,168.8,4162.2L168.8,4162.2z"/>
<polygon points="-660.5,4518.2 -660.5,4933.2 -245.5,4933.2 -245.5,4518.2 -660.5,4518.2 "/>
<path fill-rule="evenodd" clip-rule="evenodd" fill="#FFFFFF" d="M-427,4726.5c3.1-2.1,6.5-6.6,8.4-8.7c16-17.2,38.1-35.2,63-25.1
	c11,4.5,19.2,19.1,19.2,32c0,34.2-26.9,44.1-55.3,31.3c-1.7-0.8-2.4-1.3-4-2.1c-4.2-2.1-13.2-8.8-16.7-12.2c-2.6-2.7-5.3-4-9.1-8.9
	C-423.4,4730.4-425.2,4729.2-427,4726.5L-427,4726.5z M-536,4761.6c-10.7,0-17.6-3.4-24.2-10c-12.2-12-12-35.2-0.3-50.5
	c16.4-21.5,44.1-8.7,60.7,5.4c0.7,0.6,0.8,0.8,1.6,1.4c3.8,3,17.9,16.6,19.5,19c-4.9,5.7-8.6,9.5-14.1,14.3
	C-504.7,4751.9-519.3,4761.6-536,4761.6L-536,4761.6z M-539.1,4804.9c14.5,0,20.4-0.3,33.8-5.6c9.7-3.9,21.3-11.4,28.7-18.6l4.2-3.7
	c1.4-1.4,2.5-2.5,3.9-3.9l15.7-16.3c0.3,0.2,3.3,3.5,3.8,4.1c1.5,1.8,2.1,2.5,3.7,4.1l20.2,19.2c5.5,4.3,13.2,9.4,19.5,12.4
	c17.5,8.6,36.7,10.7,55.9,5.9c14.2-3.5,28-12.5,36.8-24.1c2.8-3.7,7.2-10.7,8.9-14.8c5.1-12.5,8.4-22.5,8.4-38.9
	c0-23.5-8.8-47.6-27-62.3c-11.4-9.2-22.6-13.5-38.3-15.5c-4.1-0.5-12.7-0.5-16.8,0c-25.2,3.2-41,14.8-58,31.7c-1,1-1.2,1.3-2,2.4
	c-1.3,1.7-2.3,2.2-4.2,4.6l-10.8,12c-1.3-0.9-2-2.2-3.2-3.4l-4.6-5.4c-2.9-3.6-15.2-16.3-18.9-19.2c-11.6-8.9-19.6-15.3-34.9-19.9
	c-32.8-9.7-68.1,2.5-85.1,31.7c-5.2,8.9-8.6,20.3-10,31.2c-3.9,31.1,5.5,60.3,29.3,78.2c4.7,3.6,12.3,7.6,17.9,9.6
	C-555.6,4802.9-548.1,4804.9-539.1,4804.9L-539.1,4804.9z"/>
<polygon points="-149.5,4518.2 -149.5,4933.2 265.5,4933.2 265.5,4518.2 -149.5,4518.2 "/>
<path fill="#FFFFFF" d="M-64,4725.7c0,48.3,28.1,90,68.8,109.8l-58.2-159.5C-60.2,4691.3-64,4708.1-64,4725.7L-64,4725.7z
	 M140.4,4719.6c0-15.1-5.4-25.5-10.1-33.7c-6.2-10.1-12-18.6-12-28.6c0-11.2,8.5-21.7,20.5-21.7c0.5,0,1.1,0.1,1.6,0.1
	c-21.7-19.9-50.6-32-82.4-32c-42.6,0-80.1,21.9-101.9,55c2.9,0.1,5.6,0.1,7.9,0.1c12.8,0,32.5-1.6,32.5-1.6
	c6.6-0.4,7.4,9.3,0.8,10.1c0,0-6.6,0.8-14,1.2l44.4,132.2l26.7-80.1l-19-52.1c-6.6-0.4-12.8-1.2-12.8-1.2
	c-6.6-0.4-5.8-10.4,0.8-10.1c0,0,20.1,1.6,32.1,1.6c12.8,0,32.5-1.6,32.5-1.6c6.6-0.4,7.4,9.3,0.8,10.1c0,0-6.6,0.8-14,1.2
	l44.1,131.2l12.2-40.7C136.4,4742.1,140.4,4730,140.4,4719.6L140.4,4719.6z M60.2,4736.4l-36.6,106.4c10.9,3.2,22.5,5,34.5,5
	c14.2,0,27.8-2.5,40.5-6.9c-0.3-0.5-0.6-1.1-0.9-1.7L60.2,4736.4L60.2,4736.4z M165.1,4667.2c0.5,3.9,0.8,8.1,0.8,12.5
	c0,12.4-2.3,26.3-9.3,43.7l-37.3,107.8c36.3-21.2,60.7-60.5,60.7-105.5C180,4704.5,174.6,4684.6,165.1,4667.2L165.1,4667.2z
	 M58,4861.5c-74.8,0-135.7-60.9-135.7-135.7c0-74.8,60.9-135.7,135.7-135.7c74.8,0,135.7,60.9,135.7,135.7
	C193.7,4800.6,132.8,4861.5,58,4861.5L58,4861.5z M58,4583.5c-78.4,0-142.2,63.8-142.2,142.2c0,78.4,63.8,142.2,142.2,142.2
	c78.4,0,142.2-63.8,142.2-142.2C200.3,4647.3,136.4,4583.5,58,4583.5L58,4583.5z"/>
<polygon points="361.6,4518.2 361.6,4933.2 776.6,4933.2 776.6,4518.2 361.6,4518.2 "/>
<path fill="#FFFFFF" d="M627.8,4596.3c-18.6-8.4-38.4-12.8-58.8-12.8c-17,0-33.7,3.3-49.8,9.3c3.8,3.4,103.7,94.1,108.5,98.5
	C627.8,4684.8,627.8,4598.3,627.8,4596.3L627.8,4596.3z M642.8,4604.5c0,5.7,0,165.5,0,168.5c2.9,0,58.4,0,60.7,0
	c5.3-15.2,8.1-31,8.1-46.9C711.6,4676.5,685.2,4630.3,642.8,4604.5L642.8,4604.5z M510.7,4788c0,3,0,66,0,68
	c14.5,6.5,29.6,10.5,45.2,12h26.2c49.2-4.6,93.2-34.9,115-80C691.9,4788,513.7,4788,510.7,4788L510.7,4788z M426.5,4726
	c0,12.2,1.8,24.7,5.2,37c3.9-3.5,123.9-112.5,126.3-114.8c-2.4-2.2-52.3-47.5-53.9-49C456.2,4623.9,426.5,4672.3,426.5,4726
	L426.5,4726z M495.7,4847.8c0-5.6,0-116,0-122.6c-4.8,4.3-57.3,52-58.9,53.5C448.2,4807.4,469.1,4831.7,495.7,4847.8L495.7,4847.8z"
	/>
<polygon points="872.6,4518.2 872.6,4933.2 1287.6,4933.2 1287.6,4518.2 872.6,4518.2 "/>
<path fill-rule="evenodd" clip-rule="evenodd" fill="#FFFFFF" d="M1080.9,4583.5c21.8,0.2,42.5,5.4,61,14.4c3,1.4,5.9,2.9,8.9,4.7
	l-13.1,11.7L1118,4594l-33.2,29.6l-19.7-21.5l-61.8,55.8l39.6,43.7l-15.6,13.7l39.1,43.8l-15.5,13.7l55.8,62.1l33.1-30.5l28.6,32.7
	c-5.7,4.4-11.9,8.6-18.7,12.4c-20.7,11.8-44.6,18.6-70.1,18.6c-78.3,0-142.2-63.9-142.2-142.2c0-78.2,63.6-141.9,141.7-142.2H1080.9
	L1080.9,4583.5z M1114.9,4693.6l25.4-22.8l22.8,25.4l-25.4,22.8L1114.9,4693.6L1114.9,4693.6L1114.9,4693.6z M1190.7,4731.3
	l16.9-15.2l15.2,16.9v0l-16.9,15.2L1190.7,4731.3L1190.7,4731.3L1190.7,4731.3z M1147.5,4630.8l16.9-15.2l15.2,16.9l-16.9,15.2
	L1147.5,4630.8L1147.5,4630.8L1147.5,4630.8z M1169.1,4681l16.9-15.2l15.2,16.9l-16.9,15.2L1169.1,4681L1169.1,4681L1169.1,4681z
	 M1158.9,4798.5l25.4-22.8l22.8,25.4l-25.4,22.8L1158.9,4798.5L1158.9,4798.5L1158.9,4798.5z M1136.6,4747.2l25.4-22.8l22.8,25.4
	l-25.4,22.8L1136.6,4747.2L1136.6,4747.2L1136.6,4747.2z M1091.5,4642.6l25.4-22.8l22.8,25.4l-25.4,22.8L1091.5,4642.6
	L1091.5,4642.6L1091.5,4642.6z M1029.4,4659l33.8-30.4l30.4,33.8l-33.8,30.5L1029.4,4659L1029.4,4659L1029.4,4659z M1077.7,4775.2
	l33.8-30.5l30.5,33.8l-33.8,30.5L1077.7,4775.2L1077.7,4775.2L1077.7,4775.2z M1053.6,4716.8l33.8-30.5l30.5,33.8l-33.8,30.4
	L1053.6,4716.8L1053.6,4716.8L1053.6,4716.8z"/>
<polygon points="1383.6,4518.2 1383.6,4933.2 1798.6,4933.2 1798.6,4518.2 1383.6,4518.2 "/>
<path fill="#FFFFFF" d="M1595.1,4665.3c8.7-5.8,17-3.9,18.5,4.2c1.5,8.1-3.6,18.5-12.3,24.3c-8.7,5.8-17,3.9-18.5-4.2
	C1581.3,4681.5,1586.4,4671.1,1595.1,4665.3L1595.1,4665.3z M1684.5,4675.6h-13.7v85.3c0,15.3-6.5,24.1-25.9,28.6l-124,35.1
	c0,0-10.6,2.9-10.6-6.7c0-8,9.4-8.9,10.9-10.4l-0.6,0.2l113.1-45c9.3-5.2,16.9-17.1,16.9-26.5v-134.5c0-21.2-20.7-14-25.2-11.3
	c-4.9,2.9-131.1,73.6-131.1,73.6c-9.3,5.2-16.8,17.2-16.8,26.6v134c0,9.4,13.4,21.9,22.1,22v0h184.9c11.1,0,20.2-7.7,20.2-17.1
	v-136.7C1704.7,4683.3,1695.6,4675.6,1684.5,4675.6L1684.5,4675.6z"/>
<polygon points="872.6,941.1 872.6,1356.1 1287.6,1356.1 1287.6,941.1 872.6,941.1 "/>
<path fill="#FFFFFF" d="M1205.3,1177.2c4.9,9.8,7.6,20.9,7.6,32.6c0,40.6-32.9,73.5-73.5,73.5c-12.6,0-24.4-3.2-34.7-8.7
	c-7.5,1.4-15.3,2.1-23.2,2.1c-70,0-126.7-56.7-126.7-126.7c0-8.7,0.9-17.2,2.6-25.5c-6.4-10.9-10.1-23.6-10.1-37.2
	c0-40.6,32.9-73.5,73.5-73.5c14.4,0,27.8,4.1,39.1,11.3c7-1.2,14.3-1.9,21.7-1.9c70,0,126.7,56.7,126.7,126.7
	C1208.2,1159.3,1207.2,1168.4,1205.3,1177.2L1205.3,1177.2z M1043.5,1066.7c-10.7,3.9-18.9,9.7-24.6,17.1
	c-5.7,7.4-8.6,16.1-8.6,25.6c0,10,2.8,18.6,8.2,25.4c5.4,6.7,12.7,12.1,21.8,15.9c8.9,3.8,20.1,7.1,33.2,9.9c9.7,2,17.5,4,23.3,5.8
	c5.5,1.7,10.1,4.2,13.5,7.5c3.3,3.1,4.9,7,4.9,12c0,6.3-3.1,11.5-9.4,15.8c-6.5,4.4-15.1,6.6-25.5,6.6c-7.6,0-13.8-1.1-18.4-3.3
	c-4.6-2.2-8.1-4.9-10.6-8.2c-2.6-3.4-5-7.8-7.3-12.9c-2-4.7-4.5-8.4-7.4-10.9c-3.1-2.6-6.8-3.9-11.2-3.9c-5.3,0-9.8,1.7-13.2,4.9
	c-3.5,3.3-5.3,7.3-5.3,12c0,7.4,2.7,15.1,8.1,22.9c5.3,7.7,12.4,13.9,20.9,18.5c11.9,6.3,27.2,9.5,45.4,9.5c15.2,0,28.5-2.3,39.6-7
	c11.2-4.7,19.9-11.2,25.7-19.5c5.9-8.3,8.9-17.8,8.9-28.3c0-8.7-1.7-16.2-5.2-22.3c-3.4-6.1-8.2-11.1-14.3-15.1
	c-5.9-3.9-13.2-7.2-21.7-9.9c-8.3-2.7-17.8-5.1-28-7.3c-8.1-1.9-14-3.3-17.5-4.3c-3.4-1-6.9-2.3-10.2-4c-3.2-1.6-5.8-3.5-7.6-5.7
	c-1.7-2.1-2.5-4.5-2.5-7.4c0-4.7,2.6-8.7,7.9-12.1c5.5-3.6,12.9-5.4,22-5.4c9.8,0,16.9,1.6,21.2,4.9c4.4,3.3,8.2,8.1,11.4,14.1
	c2.7,4.7,5.2,8,7.6,10.1c2.5,2.3,6.2,3.4,10.9,3.4c5.2,0,9.5-1.8,13-5.4c3.5-3.6,5.2-7.7,5.2-12.2c0-4.7-1.3-9.6-4-14.5
	c-2.6-4.8-6.8-9.5-12.3-13.9c-5.5-4.3-12.6-7.8-20.9-10.4c-8.3-2.6-18.3-3.9-29.6-3.9C1066.5,1060.8,1054,1062.8,1043.5,1066.7
	L1043.5,1066.7z"/>
<polygon points="872.6,430.1 872.6,845.1 1287.6,845.1 1287.6,430.1 872.6,430.1 "/>
<path fill-rule="evenodd" clip-rule="evenodd" fill="#FFFFFF" d="M1116.5,648.6l45-4l15.9-0.4l4,0.4c6,2,11.6,5.6,14.7,11.5
	c4,4.4,6,10.4,6,17.1l-1.2,8c-2,8-6.8,13.9-13.5,17.1c-7.2,4-14.3,4.8-22.3,2c-4.8-1.2-8-3.2-10.8-6.4l-41.8-34.6l2.8-6
	L1116.5,648.6L1116.5,648.6z M1098.6,673.3l16.7,17.1l10.4,12.7l2,4c3.6,6.8,5.6,13.1,4.8,20.7c-0.8,7.2-3.2,12.3-8,14.3
	c-2.8,2-6,2-9.2,1.6c-7.6-2-13.5-8-17.9-17.5l-4.8-13.1l-6-34.6l6.8-2.4L1098.6,673.3L1098.6,673.3z M1067.9,678.5
	c0.8,13.5,2,27.9,4,43.4v15.9l-0.4,4c-2.8,7.2-7.6,13.1-14.7,16.3c-7.2,4-14.7,4.8-21.9,2.8c-8-2-13.9-6.8-17.1-13.1
	c-2-4-3.6-8.8-3.6-13.5l2-9.2c0.8-4,2.8-8,6-11.2l33.4-39.8C1059.5,676.1,1063.5,678.1,1067.9,678.5L1067.9,678.5L1067.9,678.5z
	 M1058.7,620.7c4.8-4.4,11.1-7.2,18.7-7.2c7.2,0,13.9,2.8,18.3,7.2c5.6,5.6,8,11.6,8,18.7c0,7.2-2.4,13.9-8,18.7
	c-5.2,5.2-11.1,8-18.3,8c-7.6,0-13.9-2.8-18.7-8c-5.2-4.8-8-11.6-8-18.7C1050.8,632.3,1053.6,626.3,1058.7,620.7L1058.7,620.7
	L1058.7,620.7z M1160.3,582.9c7.2-3.2,13.9-4,21.1-3.2c6.8,0.8,11.6,4,13.9,8.8l1.6,5.2l-0.8,4c-2.8,7.2-8.8,12.7-18.7,17.1
	c-4,2-8.4,2.8-13.1,3.6l-49,6l-0.8-2.8l-0.8-1.2l1.6-2l40.2-33.4L1160.3,582.9L1160.3,582.9z M998.2,582.5l10.8,4.4l35,25.5
	c-3.2,4-5.2,8-6.4,11.9l-57.3,7.2l-4-0.8c-7.2-1.2-11.9-4.4-15.1-10.4c-3.2-6-3.2-11.9-0.8-17.9c2.8-7.6,8-13.5,15.5-16.7
	C983.1,581.7,990.3,580.5,998.2,582.5L998.2,582.5L998.2,582.5z M1019.7,535.9c0.4-7.2,3.2-11.9,8-14.7c2.4-2,6-2,9.2-0.4
	c7.2,2,13.1,7.2,17.9,17.1c2,4,4,8,4.8,12.7l8,47l-6,2l-35.4-38.6l-2-4C1020.9,549.8,1018.9,543.1,1019.7,535.9L1019.7,535.9
	L1019.7,535.9z M1143.2,527.9c2,4,3.2,8.8,3.2,13.9l-1.2,8.8c-1.6,4.4-3.6,8.4-6,11.9l-35.8,43.8c-3.6-2.8-7.6-4.8-11.5-6.8l-4-45
	l-0.4-15.9l0.4-4c2-8,7.6-13.9,14.7-17.9c7.2-4,15.1-4.8,22.7-2C1133.6,516.8,1139.6,521.2,1143.2,527.9L1143.2,527.9L1143.2,527.9z
	 M1041.6,504.1c-8.8-2-15.9-1.2-23.5,2.8c-8.4,5.2-13.1,13.1-15.1,24.3c-2,11.5,0,22.7,6,33.8l2.8,4l-9.6-3.2
	c-11.9-2.8-23.1-1.2-34.2,4.8c-11.5,6-18.7,14.3-23.5,25.9c-4.4,11.2-4,21.9,1.6,31.9c2.4,4.4,6,8,9.2,10.4
	c4.8,4.8,10.8,7.6,17.9,8.8l2.8,0.8l-6,5.2c-5.6,4.8-8.8,10.7-10.7,16.7c-2,7.2-1.2,14.3,2.8,21.1c2,3.2,4,6,7.2,8
	c3.2,2.8,7.2,4.8,11.9,5.2c8.8,2,17.9,2,27.9-1.2l-7.2,11.9l-2,5.2c-4,12.7-2.8,23.9,3.2,35.4c2.8,4.4,6,8.4,9.2,11.9
	c4.8,4.4,10.8,7.2,17.9,9.2c11.9,3.2,23.9,2.8,35.4-3.2c11.2-6,18.3-15.5,21.9-27.5l0.4-2.4c7.6,8.4,14.7,13.9,22.7,15.9
	c8,2.4,15.9,2,23.1-2.8c6.8-4,11.5-10.8,13.9-19.1c2-8.8,2-17.5,0-27.5c4,2.8,8,4.8,12.7,6c12.7,4,23.9,3.6,35-2.4
	c10.8-6,17.9-15.5,21.5-27.9c3.2-11.9,2.4-23.5-3.6-34.6l-2-3.2c-3.2-4.8-6.4-9.6-11.1-12.7c-4-2.8-8.8-4.8-13.1-6.8
	c12.3-6,21.1-14.3,25.1-25.1c2.8-8.8,2-15.9-2-23.1v-0.8c-4.8-8-11.1-13.1-21.1-15.9c-6-1.2-12.7-1.2-18.7-0.8l-13.1,2.8l4.4-10
	c4-12.7,2.8-25.1-4-36.6l-1.2-2c-6-10-14.7-15.9-26.7-19.1c-12.3-3.2-23.9-2-35,4c-11.1,6-19.1,15.1-22.7,27.1v0.8l-0.4,2.8
	l-1.6-2.8l-4-7.2C1059.5,512.8,1051.6,506.8,1041.6,504.1L1041.6,504.1L1041.6,504.1z"/>
<path fill-rule="evenodd" clip-rule="evenodd" d="M1058.7,620.7c4.8-4.4,11.1-7.2,18.7-7.2c7.2,0,13.9,2.8,18.3,7.2
	c5.6,5.6,8,11.6,8,18.7c0,7.2-2.4,13.9-8,18.7c-5.2,5.2-11.1,8-18.3,8c-7.6,0-13.9-2.8-18.7-8c-5.2-4.8-8-11.6-8-18.7
	C1050.8,632.3,1053.6,626.3,1058.7,620.7L1058.7,620.7L1058.7,620.7z"/>
<polygon points="872.6,1452.1 872.6,1867.1 1287.6,1867.1 1287.6,1452.1 872.6,1452.1 "/>
<path fill-rule="evenodd" clip-rule="evenodd" fill="#FFFFFF" d="M1080.1,1520.7c-78.7,0-142.5,63.8-142.5,142.5
	c0,62.9,40.8,116.3,97.4,135.2c7.1,1.3,9.7-3.1,9.7-6.9c0-3.4-0.1-12.3-0.2-24.2c-39.6,8.6-48-19.1-48-19.1
	c-6.5-16.5-15.8-20.8-15.8-20.8c-12.9-8.8,1-8.7,1-8.7c14.3,1,21.8,14.7,21.8,14.7c12.7,21.8,33.3,15.5,41.5,11.8
	c1.3-9.2,5-15.5,9-19c-31.6-3.6-64.9-15.8-64.9-70.4c0-15.6,5.6-28.3,14.7-38.2c-1.5-3.6-6.4-18.1,1.4-37.7c0,0,12-3.8,39.2,14.6
	c11.4-3.2,23.6-4.7,35.7-4.8c12.1,0.1,24.3,1.6,35.7,4.8c27.2-18.4,39.1-14.6,39.1-14.6c7.8,19.6,2.9,34.1,1.4,37.7
	c9.1,10,14.6,22.7,14.6,38.2c0,54.7-33.3,66.8-65,70.3c5.1,4.4,9.7,13.1,9.7,26.4c0,19-0.2,34.4-0.2,39.1c0,3.8,2.6,8.2,9.8,6.8
	c56.6-18.9,97.3-72.2,97.3-135.2C1222.5,1584.5,1158.8,1520.7,1080.1,1520.7L1080.1,1520.7z"/>
</svg>
