<?xml version="1.0" encoding="utf-8"?>
<!-- Generator: Adobe Illustrator 18.1.1, SVG Export Plug-In . SVG Version: 6.00 Build 0)  -->
<svg version="1.1" id="Layer_1" xmlns="http://www.w3.org/2000/svg" xmlns:xlink="http://www.w3.org/1999/xlink" x="0px" y="0px"
	 width="51px" height="58.2px" viewBox="0 0 51 58.2" enable-background="new 0 0 51 58.2" xml:space="preserve">
<circle fill="none" stroke="#231F20" stroke-width="1.8" stroke-linecap="round" stroke-linejoin="round" stroke-miterlimit="10" cx="25.5" cy="25.4" r="18.6"/>
<path fill="none" stroke="#231F20" stroke-width="1.8" stroke-linecap="round" stroke-linejoin="round" stroke-miterlimit="10" d="
	M22.8,1.4c1.5,0.9,3.9,0.9,5.4,0c1.5-0.9,3.5-0.5,4.5,1c1,1.4,3.2,2.4,4.9,2.2c1.7-0.2,3.4,1,3.7,2.7c0.3,1.7,1.9,3.5,3.6,4
	c1.7,0.5,2.7,2.3,2.3,4c-0.4,1.7,0.3,4,1.7,5.1c1.3,1.1,1.5,3.2,0.5,4.6c-1.1,1.4-1.3,3.8-0.6,5.4c0.8,1.6,0.1,3.5-1.4,4.4
	c-1.5,0.8-2.8,2.9-2.7,4.7c0,1.7-1.3,3.3-3.1,3.4c-1.7,0.1-3.7,1.6-4.4,3.2c-0.7,1.6-2.6,2.5-4.2,1.9c-1.6-0.6-4-0.1-5.3,1.1
	c-1.3,1.2-3.3,1.2-4.6,0c-1.3-1.2-3.6-1.7-5.3-1.1c-1.6,0.6-3.5-0.3-4.2-1.9c-0.7-1.6-2.6-3-4.4-3.2c-1.7-0.1-3.1-1.7-3.1-3.4
	c0-1.7-1.2-3.9-2.7-4.7c-1.5-0.8-2.2-2.8-1.4-4.4c0.8-1.6,0.5-4-0.6-5.4c-1.1-1.4-0.8-3.4,0.5-4.6c1.3-1.1,2.1-3.4,1.7-5.1
	c-0.4-1.7,0.6-3.5,2.3-4c1.7-0.5,3.3-2.3,3.6-4c0.3-1.7,2-2.9,3.7-2.7c1.7,0.2,4-0.8,4.9-2.2C19.3,0.9,21.3,0.5,22.8,1.4z"/>
<g>
	
		<polyline fill="none" stroke="#231F20" stroke-width="1.8" stroke-linecap="round" stroke-linejoin="round" stroke-miterlimit="10" points="
		40.4,43.1 48.1,50.9 42.4,51.5 41.7,57.3 32.3,47.9 	"/>
	
		<polyline fill="none" stroke="#231F20" stroke-width="1.8" stroke-linecap="round" stroke-linejoin="round" stroke-miterlimit="10" points="
		10.6,43.1 2.9,50.9 8.6,51.5 9.3,57.3 18.9,47.6 	"/>
</g>
<polygon fill="none" stroke="#231F20" stroke-width="1.8" stroke-linecap="round" stroke-linejoin="round" stroke-miterlimit="10" points="
	25.5,15.3 28.6,21.6 35.5,22.6 30.5,27.4 31.7,34.3 25.5,31.1 19.3,34.3 20.5,27.4 15.5,22.6 22.4,21.6 "/>
</svg>
