<?xml version="1.0" encoding="utf-8"?>
<!-- Generator: Adobe Illustrator 18.1.1, SVG Export Plug-In . SVG Version: 6.00 Build 0)  -->
<svg version="1.1" id="Layer_1" xmlns="http://www.w3.org/2000/svg" xmlns:xlink="http://www.w3.org/1999/xlink" x="0px" y="0px"
	 width="21.7px" height="17.8px" viewBox="-54 38.2 21.7 17.8" enable-background="new -54 38.2 21.7 17.8" xml:space="preserve">
<path fill="#222222" d="M-35.4,48.7v-3c0-4.1-3.3-7.4-7.4-7.4h-0.6c-4.2-0.1-7.5,3.2-7.5,7.3v3c-1.5,0.4-3.1,1.5-3.1,2.9v1.6
	c0,1.7,2,2.9,3.9,2.9c0.4,0,0.8-0.4,0.8-0.8v-9.6c0-3.2,2.6-5.8,5.8-5.8h0.6c3.2,0,5.8,2.6,5.8,5.8v9.6c0,0.4,0.4,0.8,0.8,0.8
	c1.8,0,3.9-1.3,3.9-2.9v-1.6C-32.3,50.1-33.9,49-35.4,48.7z M-35.4,54.3v-4c0.8,0.2,1.5,0.7,1.5,1.2v1.6
	C-33.9,53.6-34.6,54.1-35.4,54.3z M-50.9,50.3v4c-0.8-0.2-1.5-0.7-1.5-1.2v-1.6C-52.4,51-51.7,50.5-50.9,50.3z"/>
</svg>
