<?xml version="1.0" encoding="utf-8"?>
<!-- Generator: Adobe Illustrator 18.1.1, SVG Export Plug-In . SVG Version: 6.00 Build 0)  -->
<svg version="1.1" id="Layer_1" xmlns="http://www.w3.org/2000/svg" xmlns:xlink="http://www.w3.org/1999/xlink" x="0px" y="0px"
	 width="42.3px" height="39.7px" viewBox="-44 27.3 42.3 39.7" enable-background="new -44 27.3 42.3 39.7" xml:space="preserve">
<line fill="none" stroke="#000000" stroke-width="2" stroke-linecap="round" stroke-linejoin="round" stroke-miterlimit="10" x1="-43" y1="50.7" x2="-29.4" y2="50.7"/>
<line fill="none" stroke="#000000" stroke-width="2" stroke-linecap="round" stroke-linejoin="round" stroke-miterlimit="10" x1="-43" y1="56.3" x2="-34" y2="56.3"/>
<path fill="none" stroke="#000000" stroke-width="2" stroke-linecap="round" stroke-linejoin="round" stroke-miterlimit="10" d="
	M-13.3,28.3c-5.8,0-10.7,5.4-10.7,11.5c0,3.1,3,8.4,4.7,13.6v6.7c0,3.2,2.6,5.9,5.9,5.9l0,0l0,0c3.2,0,5.9-2.6,5.9-5.9v-6.7
	c1.7-5.3,4.7-10.6,4.7-13.6C-2.7,33.7-7.6,28.3-13.3,28.3z"/>
<path fill="none" stroke="#000000" stroke-width="2" stroke-linecap="round" stroke-linejoin="round" stroke-miterlimit="10" d="
	M-19.2,61.2h0.1c4.1,0,8-0.6,11.6-1.7"/>
<path fill="none" stroke="#000000" stroke-width="2" stroke-linecap="round" stroke-linejoin="round" stroke-miterlimit="10" d="
	M-19.2,57.6h0.1c4.1,0,8-0.6,11.6-1.7"/>
<path fill="none" stroke="#000000" stroke-width="2" stroke-linecap="round" stroke-linejoin="round" stroke-miterlimit="10" d="
	M-19.2,54.2h0.1c4.1,0,8-0.6,11.6-1.7"/>
<line fill="none" stroke="#000000" stroke-width="2" stroke-linecap="round" stroke-linejoin="round" stroke-miterlimit="10" x1="-19.3" y1="51.3" x2="-7.4" y2="51.3"/>
<polyline fill="none" stroke="#000000" stroke-width="2" stroke-linecap="round" stroke-linejoin="round" stroke-miterlimit="10" points="
	-18.4,39.5 -16,41.9 -13.3,37 -9.4,41.8 -8.3,38.7 "/>
</svg>
