<?xml version="1.0" encoding="utf-8"?>
<!-- Generator: Adobe Illustrator 19.0.0, SVG Export Plug-In . SVG Version: 6.00 Build 0)  -->
<svg version="1.1" id="Capa_1" xmlns="http://www.w3.org/2000/svg" xmlns:xlink="http://www.w3.org/1999/xlink" x="0px" y="0px"
	 viewBox="6683.7 -3.5 855.9 857.4" style="enable-background:new 6683.7 -3.5 855.9 857.4;" xml:space="preserve">
<style type="text/css">
	.st0{stroke:#000000;stroke-width:7;stroke-miterlimit:10;}
</style>
<g>
	<path class="st0" d="M6878.9,217.5c15.1-15.1,39.6-15.1,54.7,0c15.1,15.1,15.1,39.6,0,54.7l-114.4,114.4h449.6
		c21.3,0,38.7,17.3,38.7,38.7c0,21.3-17.3,38.7-38.7,38.7h-449.6l114.4,114.4c15.1,15.1,15.1,39.6,0,54.7
		c-7.5,7.5-17.4,11.3-27.3,11.3s-19.8-3.8-27.3-11.3l-180.4-180.4c-15.1-15.1-15.1-39.6,0-54.7L6878.9,217.5z"/>
	<path class="st0" d="M7162.4,850.4c-21.3,0-38.7-17.3-38.7-38.7c0-21.3,17.3-38.7,38.7-38.7h296.3V77.3h-296.3
		c-21.3,0-38.7-17.3-38.7-38.7c0-21.3,17.3-38.7,38.7-38.7l335,0c21.3,0,38.7,17.3,38.7,38.7v773.1c0,21.3-17.3,38.7-38.7,38.7
		H7162.4z"/>
</g>
</svg>
