<?xml version="1.0" encoding="utf-8"?>
<!-- Generator: Adobe Illustrator 18.1.1, SVG Export Plug-In . SVG Version: 6.00 Build 0)  -->
<svg version="1.1" id="Layer_1" xmlns="http://www.w3.org/2000/svg" xmlns:xlink="http://www.w3.org/1999/xlink" x="0px" y="0px"
	 width="31px" height="43.1px" viewBox="0 0 31 43.1" enable-background="new 0 0 31 43.1" xml:space="preserve">
<linearGradient id="SVGID_1_" gradientUnits="userSpaceOnUse" x1="15.5152" y1="43.1299" x2="15.5152" y2="0">
	<stop  offset="0" style="stop-color:#0D6D53"/>
	<stop  offset="1" style="stop-color:#428448"/>
</linearGradient>
<path fill="url(#SVGID_1_)" d="M15.5,0C6.9,0,0,6.9,0,15.5C0,24.1,6.9,31,15.5,31v12.1l12.7-18.8c1.8-2.5,2.8-5.6,2.8-8.9
	C31,6.9,24.1,0,15.5,0z M15.5,21.9c-3.3,0-5.9-2.6-5.9-5.9c0-3.3,2.6-5.9,5.9-5.9c3.3,0,5.9,2.6,5.9,5.9
	C21.4,19.2,18.8,21.9,15.5,21.9z"/>
<polygon fill="#066B54" points="-64.9,-687.2 -67.9,-690.3 -71,-687.2 "/>
<line fill="none" stroke="#066B54" stroke-width="2" stroke-linejoin="round" stroke-miterlimit="10" x1="-67.9" y1="-687.2" x2="-67.9" y2="-689"/>
<path fill="none" stroke="#066B54" stroke-width="2" stroke-miterlimit="10" d="M-73.4-689.6"/>
<g>
	
		<rect x="-121" y="-694.5" fill="none" stroke="#066B54" stroke-width="1.3" stroke-linejoin="round" stroke-miterlimit="10" width="3.1" height="7"/>
	
		<rect x="-115.3" y="-694.5" fill="none" stroke="#066B54" stroke-width="1.3" stroke-linejoin="round" stroke-miterlimit="10" width="3.1" height="7"/>
	
		<rect x="-109.7" y="-694.5" fill="none" stroke="#066B54" stroke-width="1.3" stroke-linejoin="round" stroke-miterlimit="10" width="3.1" height="7"/>
</g>
<polygon fill="none" stroke="#066B54" stroke-width="1.3" stroke-linejoin="round" stroke-miterlimit="10" points="-103.7,-696.9 
	-123.8,-696.9 -113.8,-701.1 "/>
<rect x="-154.5" y="-700.3" fill="none" stroke="#066B54" stroke-width="1.3" stroke-linejoin="round" stroke-miterlimit="10" width="10.7" height="7.7"/>
<line fill="none" stroke="#066B54" stroke-width="1.3" stroke-linejoin="round" stroke-miterlimit="10" x1="-179.2" y1="-695.4" x2="-179.2" y2="-691"/>
<line fill="none" stroke="#066B54" stroke-width="1.3" stroke-linejoin="round" stroke-miterlimit="10" x1="-176.2" y1="-688.8" x2="-179.2" y2="-691"/>
</svg>
