<?xml version="1.0" encoding="utf-8"?>
<!-- Generator: Adobe Illustrator 18.1.1, SVG Export Plug-In . SVG Version: 6.00 Build 0)  -->
<svg version="1.1" id="Layer_1" xmlns="http://www.w3.org/2000/svg" xmlns:xlink="http://www.w3.org/1999/xlink" x="0px" y="0px"
	 width="54.2px" height="54.5px" viewBox="-38 19.5 54.2 54.5" enable-background="new -38 19.5 54.2 54.5" xml:space="preserve">
<path fill="none" stroke="#FFFFFF" stroke-width="2" stroke-linecap="round" stroke-linejoin="round" stroke-miterlimit="10" d="
	M-13.4,70.2c-0.7-3-1.4-5.1-2-7.7c-0.6-2.6-1.3-2.8-2.8-2.8H-24h-0.4h-5.8c-1.6,0-2.2,0.2-2.8,2.8s-1.3,4.7-2,7.7s1.3,2.8,2.8,2.8
	h7.8h0.4h7.8C-14.7,73-12.8,73.2-13.4,70.2z"/>
<path fill="none" stroke="#FFFFFF" stroke-width="2" stroke-linecap="round" stroke-linejoin="round" stroke-miterlimit="10" d="
	M12.6,70.2c-0.7-3-1.4-5.1-2-7.7c-0.6-2.6-1.3-2.8-2.8-2.8H2H1.6h-5.8c-1.6,0-2.2,0.2-2.8,2.8c-0.6,2.6-1.3,4.7-2,7.7
	S-7.7,73-6.2,73h7.8H2h7.8C11.3,73,13.2,73.2,12.6,70.2z"/>
<path fill="none" stroke="#FFFFFF" stroke-width="2" stroke-linecap="round" stroke-linejoin="round" stroke-miterlimit="10" d="
	M-0.7,53.1c-0.7-3-1.4-5.1-2-7.7c-0.6-2.7-1.3-2.9-2.8-2.9h-5.8h-0.4h-5.8c-1.6,0-2.2,0.2-2.8,2.8c-0.6,2.6-1.3,4.7-2,7.7
	s1.3,2.8,2.8,2.8h7.8h0.4h7.8C-2,55.9,0,56-0.7,53.1z"/>
<line fill="none" stroke="#FFFFFF" stroke-width="2" stroke-linecap="round" stroke-linejoin="round" stroke-miterlimit="10" x1="-12.1" y1="33.9" x2="-12.1" y2="20.5"/>
<line fill="none" stroke="#FFFFFF" stroke-width="2" stroke-linecap="round" stroke-linejoin="round" stroke-miterlimit="10" x1="-19.5" y1="36.5" x2="-24.2" y2="30"/>
<line fill="none" stroke="#FFFFFF" stroke-width="2" stroke-linecap="round" stroke-linejoin="round" stroke-miterlimit="10" x1="-24.3" y1="41.8" x2="-37" y2="36.4"/>
<line fill="none" stroke="#FFFFFF" stroke-width="2" stroke-linecap="round" stroke-linejoin="round" stroke-miterlimit="10" x1="-2.3" y1="36.5" x2="2.4" y2="30"/>
<line fill="none" stroke="#FFFFFF" stroke-width="2" stroke-linecap="round" stroke-linejoin="round" stroke-miterlimit="10" x1="2.5" y1="41.8" x2="15.2" y2="36.4"/>
</svg>
