<?xml version="1.0" encoding="utf-8"?>
<!-- Generator: Adobe Illustrator 18.1.1, SVG Export Plug-In . SVG Version: 6.00 Build 0)  -->
<svg version="1.1" id="Layer_1" xmlns="http://www.w3.org/2000/svg" xmlns:xlink="http://www.w3.org/1999/xlink" x="0px" y="0px"
	 width="23.9px" height="39.7px" viewBox="-53 27.3 23.9 39.7" enable-background="new -53 27.3 23.9 39.7" xml:space="preserve">
<path fill="#7C7C7C" d="M-29.5,48.6c-0.6-1.1-2.1-2.1-4.2-0.4c-2.8,2.2-7.4,2.2-7.4,2.2s-4.5,0-7.4-2.2c-2.1-1.6-3.7-0.7-4.2,0.4
	c-1,2,0.1,2.9,2.6,4.6c2.2,1.4,5.1,1.9,7,2.1l-1.6,1.6c-2.1,2.2-4.3,4.4-5.8,5.9c-0.9,0.9-0.9,2.4,0,3.3l0.3,0.2
	c0.4,0.4,1,0.7,1.6,0.7l0,0c0.6,0,1.2-0.2,1.6-0.7l5.9-5.9c2.2,2.2,4.4,4.4,5.9,5.9c0.9,0.9,2.4,0.9,3.3,0l0.3-0.3
	c0.9-0.9,0.9-2.4,0-3.3l-5.9-5.9l-1.6-1.5c1.9-0.2,4.8-0.7,7-2.1C-29.6,51.6-28.5,50.6-29.5,48.6L-29.5,48.6z M-41.1,32.4
	c2.7,0,4.9,2.2,4.9,4.9s-2.2,4.9-4.9,4.9c-2.7,0.1-4.9-2.1-4.9-4.9C-46,34.6-43.8,32.4-41.1,32.4L-41.1,32.4z M-41.1,47.4
	c5.5,0,10-4.5,10-10s-4.5-10-10-10s-10,4.5-10,10S-46.6,47.4-41.1,47.4L-41.1,47.4z"/>
</svg>
