<?xml version="1.0" encoding="utf-8"?>
<!-- Generator: Adobe Illustrator 18.1.1, SVG Export Plug-In . SVG Version: 6.00 Build 0)  -->
<svg version="1.1" id="Layer_1" xmlns="http://www.w3.org/2000/svg" xmlns:xlink="http://www.w3.org/1999/xlink" x="0px" y="0px"
	 width="25.2px" height="27.5px" viewBox="-52 33.5 25.2 27.5" enable-background="new -52 33.5 25.2 27.5" xml:space="preserve">
<path fill="none" stroke="#000000" stroke-width="2" stroke-linecap="round" stroke-linejoin="round" stroke-miterlimit="10" d="
	M-36.4,48.2c0,0,2.4-2.8,2.4-4.7v-3c0-1.6-0.7-3.1-1.7-4.2c-1.2-1.1-2.6-1.8-4.3-1.8c-3.3,0-5.9,2.7-5.9,5.9v3
	c0,1.6,2.3,4.7,2.6,4.9"/>
<line fill="none" stroke="#000000" stroke-width="2" stroke-linecap="round" stroke-linejoin="round" stroke-miterlimit="10" x1="-43" y1="51.9" x2="-43" y2="48.6"/>
<line fill="none" stroke="#000000" stroke-width="2" stroke-linecap="round" stroke-linejoin="round" stroke-miterlimit="10" x1="-36.5" y1="51.9" x2="-36.5" y2="48.5"/>
<line fill="none" stroke="#000000" stroke-width="2" stroke-linecap="round" stroke-linejoin="round" stroke-miterlimit="10" x1="-43" y1="51.9" x2="-50.3" y2="55.2"/>
<line fill="none" stroke="#000000" stroke-width="2" stroke-linecap="round" stroke-linejoin="round" stroke-miterlimit="10" x1="-36.5" y1="51.9" x2="-29.3" y2="55.1"/>
<line fill="none" stroke="#000000" stroke-width="2" stroke-linecap="round" stroke-linejoin="round" stroke-miterlimit="10" x1="-50.4" y1="55.3" x2="-51" y2="58.2"/>
<polyline fill="none" stroke="#000000" stroke-width="2" stroke-linecap="round" stroke-linejoin="round" stroke-miterlimit="10" points="
	-29,55.3 -27.8,60 -40.2,60 "/>
<line fill="none" stroke="#000000" stroke-width="2" stroke-linecap="round" stroke-linejoin="round" stroke-miterlimit="10" x1="-44.2" y1="59.9" x2="-46.9" y2="59.9"/>
</svg>
