<?xml version="1.0" encoding="utf-8"?>
<!-- Generator: Adobe Illustrator 18.1.1, SVG Export Plug-In . SVG Version: 6.00 Build 0)  -->
<svg version="1.1" id="Layer_1" xmlns="http://www.w3.org/2000/svg" xmlns:xlink="http://www.w3.org/1999/xlink" x="0px" y="0px"
	 width="25.2px" height="27.5px" viewBox="-104 67 25.2 27.5" enable-background="new -104 67 25.2 27.5" xml:space="preserve">
<path fill="none" stroke="#FFFFFF" stroke-width="2" stroke-linecap="round" stroke-linejoin="round" stroke-miterlimit="10" d="
	M-88.4,81.7c0,0,2.4-2.8,2.4-4.7v-3c0-1.6-0.7-3.1-1.7-4.2c-1.2-1.1-2.6-1.8-4.3-1.8c-3.3,0-5.9,2.7-5.9,5.9v3
	c0,1.6,2.3,4.7,2.6,4.9"/>
<line fill="none" stroke="#FFFFFF" stroke-width="2" stroke-linecap="round" stroke-linejoin="round" stroke-miterlimit="10" x1="-95" y1="85.4" x2="-95" y2="82.1"/>
<line fill="none" stroke="#FFFFFF" stroke-width="2" stroke-linecap="round" stroke-linejoin="round" stroke-miterlimit="10" x1="-88.5" y1="85.4" x2="-88.5" y2="82"/>
<line fill="none" stroke="#FFFFFF" stroke-width="2" stroke-linecap="round" stroke-linejoin="round" stroke-miterlimit="10" x1="-95" y1="85.4" x2="-102.3" y2="88.7"/>
<line fill="none" stroke="#FFFFFF" stroke-width="2" stroke-linecap="round" stroke-linejoin="round" stroke-miterlimit="10" x1="-88.5" y1="85.4" x2="-81.3" y2="88.6"/>
<line fill="none" stroke="#FFFFFF" stroke-width="2" stroke-linecap="round" stroke-linejoin="round" stroke-miterlimit="10" x1="-102.4" y1="88.8" x2="-103" y2="91.7"/>
<polyline fill="none" stroke="#FFFFFF" stroke-width="2" stroke-linecap="round" stroke-linejoin="round" stroke-miterlimit="10" points="
	-81,88.8 -79.8,93.5 -92.2,93.5 "/>
<line fill="none" stroke="#FFFFFF" stroke-width="2" stroke-linecap="round" stroke-linejoin="round" stroke-miterlimit="10" x1="-96.2" y1="93.4" x2="-98.9" y2="93.4"/>
</svg>
