<?xml version="1.0" encoding="utf-8"?>
<!-- Generator: Adobe Illustrator 18.1.1, SVG Export Plug-In . SVG Version: 6.00 Build 0)  -->
<svg version="1.1" id="Layer_1" xmlns="http://www.w3.org/2000/svg" xmlns:xlink="http://www.w3.org/1999/xlink" x="0px" y="0px"
	 width="23.7px" height="22.2px" viewBox="-53 35.8 23.7 22.2" enable-background="new -53 35.8 23.7 22.2" xml:space="preserve">
<g>
	<path fill="#076A54" d="M-34.9,46.7c-1.7,0-3.2,0.7-4.3,2l-0.1,0.1l-2.4-1.1v-1.6l0,0c0.4-0.4,1.9-2.4,1.9-3.7v-2.1
		c0-2.5-2-4.5-4.5-4.5c-1.2,0-2.3,0.5-3.2,1.3c-0.9,0.9-1.3,2-1.3,3.2v2.1c0,1.2,1.1,2.8,1.6,3.4l0,0v1.9l-4.5,2
		c-0.1,0-0.1,0.1-0.2,0.2l0,0c-0.1,0.1-0.2,0.2-0.3,0.3l-0.8,3.1c0,0.2,0,0.3,0.1,0.5c0.1,0.1,0.3,0.2,0.4,0.2h12.2v0.1
		c0.8,2.3,2.9,3.8,5.3,3.8c3.1,0,5.6-2.5,5.6-5.6C-29.3,49.2-31.8,46.7-34.9,46.7z M-40,49.8c-0.4,0.8-0.6,1.6-0.6,2.5
		c0,0.2,0,0.3,0,0.5v0.1h-11.2l0.6-2.3h0.1l4.7-2.1l0,0c0.1,0,0.1-0.1,0.1-0.1l0,0l0,0c0,0,0-0.1,0.1-0.1v-0.1c0,0,0,0,0-0.1v-2.3
		l0,0l0,0l0,0l0,0c0-0.1,0-0.3-0.1-0.4c-0.6-0.7-1.5-2-1.5-2.8v-2.3c0-0.9,0.4-1.8,1-2.4c0.7-0.7,1.5-1,2.4-1c1.9,0,3.5,1.5,3.5,3.4
		v2.1c0,0.8-1.2,2.6-1.5,2.9l0,0l0,0l0,0c-0.2,0.1-0.3,0.3-0.3,0.5V48c0,0.2,0,0.3,0.2,0.4c0,0,0,0,0.1,0l0,0c0,0,0.1,0,0.1,0.1
		l2.5,1.1L-40,49.8z M-34.9,56.9c-2.5,0-4.6-2-4.6-4.6c0-2.5,2-4.6,4.6-4.6c2.5,0,4.6,2,4.6,4.6C-30.4,54.8-32.4,56.9-34.9,56.9z"/>
	<path fill="#076A54" d="M-33.2,51.8h-1.2v-1.2c0-0.3-0.2-0.5-0.5-0.5s-0.5,0.2-0.5,0.5v1.2h-1.2c-0.3,0-0.5,0.2-0.5,0.5
		s0.2,0.5,0.5,0.5h1.2V54c0,0.3,0.2,0.5,0.5,0.5s0.5-0.2,0.5-0.5v-1.2h1.2c0.3,0,0.5-0.2,0.5-0.5C-32.6,52-32.9,51.8-33.2,51.8z"/>
</g>
</svg>
