<?xml version="1.0" encoding="utf-8"?>
<!-- Generator: Adobe Illustrator 18.1.1, SVG Export Plug-In . SVG Version: 6.00 Build 0)  -->
<svg version="1.1" id="Layer_1" xmlns="http://www.w3.org/2000/svg" xmlns:xlink="http://www.w3.org/1999/xlink" x="0px" y="0px"
	 width="43px" height="36.8px" viewBox="-44 28.2 43 36.8" enable-background="new -44 28.2 43 36.8" xml:space="preserve">
<path fill="none" stroke="#000000" stroke-width="2" stroke-linecap="round" stroke-linejoin="round" stroke-miterlimit="10" d="
	M-2,51c0,3.1-2.5,5.7-5.7,5.7h-15.2L-35.1,64l2.8-7.3h-5c-3.2,0-5.7-2.5-5.7-5.7V34.9c0-3.2,2.5-5.7,5.7-5.7h29.7
	c3.1,0,5.6,2.5,5.6,5.7V51z"/>
<g>
	<path d="M-13.7,44.5c0-0.7,0.1-1.3,0.3-1.6c0.2-0.3,0.6-0.7,1.3-1.2c0.4-0.3,0.7-0.6,0.9-1c0.2-0.3,0.3-0.7,0.3-1.2
		s-0.1-0.9-0.4-1.1c-0.2-0.3-0.6-0.4-1.1-0.4c-0.4,0-0.7,0.1-1,0.3s-0.4,0.6-0.4,1h-2.3c0-1,0.3-1.8,1-2.3c0.7-0.5,1.6-0.8,2.7-0.8
		c1.2,0,2.1,0.3,2.8,0.9c0.7,0.6,1,1.4,1,2.4c0,0.7-0.2,1.3-0.6,1.8c-0.4,0.6-0.9,1-1.5,1.4c-0.3,0.2-0.5,0.5-0.6,0.7
		c-0.1,0.2-0.1,0.6-0.1,1L-13.7,44.5L-13.7,44.5z M-11.4,47.7h-2.3v-2h2.3V47.7z"/>
</g>
<line fill="none" stroke="#000000" stroke-width="2" stroke-linecap="round" stroke-linejoin="round" stroke-miterlimit="10" x1="-35.6" y1="39.3" x2="-22" y2="39.3"/>
<line fill="none" stroke="#000000" stroke-width="2" stroke-linecap="round" stroke-linejoin="round" stroke-miterlimit="10" x1="-35.6" y1="45" x2="-26.5" y2="45"/>
</svg>
