<?xml version="1.0" encoding="utf-8"?>
<!-- Generator: Adobe Illustrator 18.1.1, SVG Export Plug-In . SVG Version: 6.00 Build 0)  -->
<svg version="1.1" id="Layer_1" xmlns="http://www.w3.org/2000/svg" xmlns:xlink="http://www.w3.org/1999/xlink" x="0px" y="0px"
	 width="18.4px" height="18.1px" viewBox="-56 37.9 18.4 18.1" enable-background="new -56 37.9 18.4 18.1" xml:space="preserve">
<g>
	<path fill="#212221" d="M-38.8,50.7c0.5-1.2,0.8-2.5,0.8-3.8c0-5-4-9-9-9s-9,4-9,9s4,9,9,9c1.5,0,3-0.4,4.3-1.1l5.1,1.2L-38.8,50.7
		z M-39.5,54l-3.3-0.8l-0.3,0.2c-1.2,0.7-2.5,1.1-3.8,1.1c-4.2,0-7.5-3.4-7.5-7.5s3.3-7.6,7.4-7.6c4.2,0,7.5,3.4,7.5,7.5
		c0,1.2-0.3,2.3-0.8,3.4l-0.1,0.2L-39.5,54z"/>
	<path fill="#212221" d="M-47,49.8c-0.3,0-0.5,0.1-0.7,0.2c-0.2,0.2-0.3,0.4-0.3,0.6c0,0.3,0.1,0.5,0.3,0.6c0.2,0.2,0.4,0.2,0.7,0.2
		s0.5-0.1,0.7-0.2c0.2-0.1,0.3-0.3,0.3-0.6s-0.1-0.5-0.3-0.6C-46.5,49.8-46.7,49.8-47,49.8z"/>
	<path fill="#212221" d="M-46.9,43c-0.8,0-1.4,0.2-1.9,0.6c-0.5,0.4-0.7,1-0.7,1.7h1.7c0-0.3,0.1-0.5,0.3-0.7
		c0.2-0.2,0.4-0.3,0.7-0.3c0.6,0,0.9,0.3,0.9,1c-0.1,0.2-0.1,0.4-0.2,0.6c-0.1,0.2-0.4,0.4-0.7,0.7c-0.4,0.4-0.6,0.7-0.7,1
		c-0.2,0.3-0.2,0.7-0.2,1.3h1.5v-0.4c0-0.4,0.2-0.7,0.5-1l0.5-0.4c0.4-0.4,0.6-0.7,0.8-1c0.1-0.3,0.2-0.6,0.2-0.9
		c0-0.7-0.2-1.3-0.7-1.7C-45.4,43.1-46,43-46.9,43z"/>
</g>
</svg>
