<?xml version="1.0" encoding="utf-8"?>
<!-- Generator: Adobe Illustrator 18.1.1, SVG Export Plug-In . SVG Version: 6.00 Build 0)  -->
<svg version="1.1" id="Layer_1" xmlns="http://www.w3.org/2000/svg" xmlns:xlink="http://www.w3.org/1999/xlink" x="0px" y="0px"
	 width="27px" height="27px" viewBox="-52 33 27 27" enable-background="new -52 33 27 27" xml:space="preserve">
<circle fill="none" stroke="#000000" stroke-width="2" stroke-linecap="round" stroke-linejoin="round" stroke-miterlimit="10" cx="-38.5" cy="46.5" r="12.5"/>
<g>
	<path d="M-39.8,49.3c0-0.7,0.1-1.3,0.3-1.6c0.2-0.3,0.6-0.7,1.3-1.2c0.4-0.3,0.7-0.6,0.9-1c0.2-0.3,0.3-0.7,0.3-1.2
		s-0.1-0.9-0.4-1.1c-0.2-0.3-0.6-0.4-1.1-0.4c-0.4,0-0.7,0.1-1,0.3c-0.3,0.2-0.4,0.6-0.4,1h-2.2c0-1,0.4-1.8,1-2.3
		c0.7-0.5,1.5-0.8,2.6-0.8c1.2,0,2.1,0.3,2.8,0.9c0.7,0.6,1,1.4,1,2.4c0,0.7-0.2,1.3-0.6,1.8c-0.4,0.6-0.9,1-1.5,1.4
		c-0.3,0.2-0.5,0.5-0.6,0.7c-0.1,0.2-0.1,0.6-0.1,1h-2.3V49.3z M-37.5,52.5h-2.3v-2h2.3V52.5z"/>
</g>
</svg>
