<?xml version="1.0" encoding="utf-8"?>
<!-- Generator: Adobe Illustrator 18.1.1, SVG Export Plug-In . SVG Version: 6.00 Build 0)  -->
<svg version="1.1" id="Layer_1" xmlns="http://www.w3.org/2000/svg" xmlns:xlink="http://www.w3.org/1999/xlink" x="0px" y="0px"
	 width="31.2px" height="34.3px" viewBox="-49 29.7 31.2 34.3" enable-background="new -49 29.7 31.2 34.3" xml:space="preserve">
<g>
	<path fill="#7C7C7C" d="M-22.5,46.8l-0.1-0.1l4.4-5.2c0.1-0.2,0.2-0.4,0.1-0.6s-0.2-0.3-0.4-0.4l-9.4-2.3l0,0L-33,30
		c-0.1-0.2-0.3-0.3-0.5-0.3s-0.4,0.1-0.5,0.3l-5.1,8.2h-0.1l-9.4,2.3c-0.2,0-0.4,0.2-0.4,0.4c-0.1,0.2,0,0.4,0.1,0.6l6.3,7.4
		l-0.7,9.7c0,0.2,0.1,0.4,0.2,0.5c0.2,0.1,0.4,0.1,0.6,0.1l6.4-2.6v0.2c0.9,4.2,4.7,7.3,9,7.3c5.1,0,9.2-4.1,9.2-9.2
		C-17.8,51.5-19.6,48.4-22.5,46.8z M-36.2,54.8c0,0.1,0,0.2,0,0.3v0.3h-0.1l-5.8,2.3l0.7-9c0-0.2,0-0.3-0.1-0.4l-5.8-6.9l8.7-2.1
		c0.1,0,0.3-0.1,0.4-0.3l4.7-7.7l4.7,7.7c0.1,0.1,0.2,0.2,0.4,0.3l8.7,2.1l-4,4.7h-0.1c-1.1-0.4-2.1-0.6-3.2-0.6
		C-32.1,45.6-36.2,49.7-36.2,54.8z M-27,62.8c-4.4,0-8-3.6-8-8s3.6-8,8-8s8,3.6,8,8S-22.6,62.8-27,62.8z"/>
	<g>
		<path fill="#7C7C7C" d="M-27.7,53.1c0,1.6-1,2.5-2.1,2.5c-1.2,0-2.1-0.9-2.1-2.3c0-1.4,0.8-2.4,2.2-2.4
			C-28.5,50.8-27.7,51.7-27.7,53.1z M-30.6,53.1c0,0.8,0.3,1.4,0.8,1.4S-29,54-29,53.1c0-0.8-0.2-1.4-0.8-1.4
			C-30.4,51.8-30.6,52.4-30.6,53.1z M-29.8,58.8l4.4-8h1l-4.5,8H-29.8z M-22.1,56.3c0,1.6-1,2.5-2.1,2.5c-1.2,0-2.1-0.9-2.1-2.3
			c0-1.4,0.8-2.4,2.2-2.4C-22.9,54-22.1,55-22.1,56.3z M-25,56.4c0,0.8,0.3,1.4,0.8,1.4s0.8-0.5,0.8-1.4c0-0.8-0.2-1.4-0.8-1.4
			S-25,55.6-25,56.4z"/>
	</g>
</g>
</svg>
