<?xml version="1.0" encoding="utf-8"?>
<!-- Generator: Adobe Illustrator 18.1.1, SVG Export Plug-In . SVG Version: 6.00 Build 0)  -->
<svg version="1.1" id="Layer_1" xmlns="http://www.w3.org/2000/svg" xmlns:xlink="http://www.w3.org/1999/xlink" x="0px" y="0px"
	 width="26.8px" height="30.3px" viewBox="-52 31.7 26.8 30.3" enable-background="new -52 31.7 26.8 30.3" xml:space="preserve">
<g>
	<g>
		<g>
			<path fill="#7C7C7C" d="M-32,62h-18.1c-1,0-1.9-0.8-1.9-1.9V36.9c0-1,0.8-1.9,1.9-1.9h4.4c0.3,0,0.6,0.3,0.6,0.6
				c0,0.3-0.3,0.6-0.6,0.6h-4.4c-0.3,0-0.6,0.3-0.6,0.6V60c0,0.3,0.3,0.6,0.6,0.6H-32c0.3,0,0.6-0.3,0.6-0.6V47.6
				c0-0.3,0.3-0.6,0.6-0.6s0.6,0.3,0.6,0.6v12.6C-30.2,61.2-31,62-32,62z"/>
		</g>
		<g>
			<path fill="#7C7C7C" d="M-30.8,43.8c-0.3,0-0.6-0.3-0.6-0.6v-6.3c0-0.3-0.3-0.6-0.6-0.6h-4c-0.3,0-0.6-0.3-0.6-0.6
				s0.3-0.6,0.6-0.6h4c1,0,1.9,0.8,1.9,1.9v6.2C-30.2,43.5-30.4,43.8-30.8,43.8z"/>
		</g>
		<g>
			<path fill="#7C7C7C" d="M-37,38.9h-8.2c-0.7,0-1.2-0.5-1.2-1.2v-3.1c0-0.6,0.5-1.2,1.2-1.2h1.9c0.3-1,1.1-1.7,2.2-1.7
				c1.1,0,2,0.7,2.2,1.7h1.9c0.6,0,1.2,0.5,1.2,1.2v3.1C-35.8,38.4-36.3,38.9-37,38.9z M-45.1,37.6h8.1v-2.9h-2.3
				c-0.4,0-0.7-0.3-0.7-0.7c0-0.6-0.5-1.1-1.1-1.1c-0.6,0-1.1,0.5-1.1,1.1c0.1,0.4-0.2,0.7-0.5,0.7h-2.4V37.6L-45.1,37.6z"/>
		</g>
		<g>
			<path fill="#7C7C7C" d="M-43.7,51.8h-4.2v-4.3h4.3v4.3H-43.7z M-46.7,50.5h1.7v-1.7h-1.7V50.5z"/>
		</g>
		<g>
			<path fill="#7C7C7C" d="M-38.5,50.3h-2.7c-0.3,0-0.6-0.3-0.6-0.6s0.3-0.6,0.6-0.6h2.7c0.3,0,0.6,0.3,0.6,0.6
				C-37.8,50-38.1,50.3-38.5,50.3z"/>
		</g>
		<g>
			<path fill="#7C7C7C" d="M-43.7,58.1h-4.2v-4.3h4.3v4.3H-43.7z M-46.7,56.8h1.7v-1.7h-1.7V56.8z"/>
		</g>
		<g>
			<path fill="#7C7C7C" d="M-43.7,45.5h-4.2v-4.3h4.3v4.3H-43.7z M-46.7,44.2h1.7v-1.7h-1.7V44.2z"/>
		</g>
		<g>
			<path fill="#7C7C7C" d="M-34.9,42.7h-6.3c-0.3,0-0.6-0.3-0.6-0.6c0-0.3,0.3-0.6,0.6-0.6h6.3c0.3,0,0.6,0.3,0.6,0.6
				C-34.2,42.4-34.5,42.7-34.9,42.7z"/>
		</g>
		<g>
			<path fill="#7C7C7C" d="M-36.5,45.2h-4.6c-0.3,0-0.6-0.3-0.6-0.6c0-0.3,0.3-0.6,0.6-0.6h4.7c0.3,0,0.6,0.3,0.6,0.6
				C-35.9,44.9-36.1,45.2-36.5,45.2z"/>
		</g>
		<g>
			<path fill="#7C7C7C" d="M-25.5,39.7l-1.9-1.4c-0.3-0.2-0.7-0.1-0.9,0.2l-0.4,0.6l1,0.7l0,0l1.4,1c0.3,0.2,0.7,0.1,0.9-0.2
				C-25.1,40.3-25.2,39.9-25.5,39.7z"/>
			<path fill="#7C7C7C" d="M-26.5,41.1l-1.4-1l0,0l-1-0.7l-0.4,0.5c0,0,0,0,0,0.1l0,0l-8.8,12.8c0,0-0.1,0.1-0.1,0.2l-0.8,3.3
				c-0.1,0.3,0,0.5,0.3,0.7c0.1,0.1,0.2,0.1,0.3,0.1c0.1,0,0.3,0,0.3-0.1l2.7-1.9c0.1,0,0.1-0.1,0.2-0.2l8.9-13
				c0.1-0.1,0.1-0.3,0.1-0.5C-26.2,41.3-26.3,41.2-26.5,41.1z M-36.1,54.2l-1.3,0.8l0.3-1.5l8.5-12.4l0.9,0.6L-36.1,54.2z"/>
		</g>
	</g>
</g>
</svg>
