<?xml version="1.0" encoding="utf-8"?>
<!-- Generator: Adobe Illustrator 18.1.1, SVG Export Plug-In . SVG Version: 6.00 Build 0)  -->
<svg version="1.1" id="Слой_1" xmlns="http://www.w3.org/2000/svg" xmlns:xlink="http://www.w3.org/1999/xlink" x="0px" y="0px"
	 width="265.1px" height="215.5px" viewBox="0 0 265.1 215.5" enable-background="new 0 0 265.1 215.5" xml:space="preserve">
<path fill="#7C7C7C" d="M-441.8,62.9h26.1V51.1V39.5v-1.9c0-11.2,0.3-28.4,8.4-39.1c8.6-11.3,20.3-19,40.5-19
	c32.9,0,46.8,4.7,46.8,4.7l-6.5,38.7c0,0-10.9-3.1-21-3.1c-10.2,0-19.3,3.6-19.3,13.8v4.1v13.5v11.8h41.6l-2.9,37.8h-38.7V232h-48.9
	V100.7h-26.1V62.9L-441.8,62.9z"/>
<polygon points="-80.2,1942.5 -80.2,2357.5 334.8,2357.5 334.8,1942.5 -80.2,1942.5 "/>
<polygon fill="#FFFFFF" points="99.1,2004.9 78,2004.9 65.1,2058.7 63.8,2058.7 50.3,2004.9 29.3,2004.9 29.3,2004.9 54.1,2086.2 
	54.1,2139.6 74.9,2139.6 74.9,2083.7 99.1,2004.9 "/>
<path fill="#FFFFFF" d="M105.4,2134.6c4.8,5,11.3,7.5,19.3,7.5h0.2c8.4,0,14.9-2.4,19.7-7.3c4.8-4.8,7.2-11.5,7.2-20v-51.4
	c0-7.6-2.4-13.8-7.3-18.6c-4.9-4.8-11.1-7.2-18.8-7.2c-8.4,0-15.1,2.3-20.1,6.8c-5,4.6-7.5,10.7-7.5,18.4l0,51.5
	C98.2,2122.9,100.6,2129.6,105.4,2134.6L105.4,2134.6z M117.2,2062.2L117.2,2062.2c0-2.2,0.7-3.9,2.1-5.3c1.4-1.3,3.2-2,5.5-2
	c2.4,0,4.4,0.7,5.9,2c1.5,1.3,2.3,3.1,2.3,5.3v54.1c0,2.7-0.7,4.8-2.2,6.3c-1.5,1.5-3.5,2.3-6,2.3c-2.4,0-4.3-0.7-5.6-2.2
	c-1.3-1.5-2-3.6-2-6.3V2062.2L117.2,2062.2z"/>
<path fill="#FFFFFF" d="M201.7,2040.2v75.4c-1.7,2.2-3.6,3.9-5.7,5.3c-2.1,1.4-3.8,2.1-5.1,2.1c-1.7,0-3-0.5-3.8-1.6
	c-0.8-1.1-1.2-2.8-1.2-5.1v-76.2h-18.5v83.1c0,5.9,1.1,10.3,3.2,13.3c2.2,3,5.4,4.4,9.7,4.4c3.5,0,7-1.1,10.7-3.2
	c3.7-2.1,7.2-5.2,10.6-9.2v11h18.5v-99.4H201.7L201.7,2040.2z"/>
<g>
	<defs>
		<path id="SVGID_1_" d="M127.3,2159c1.1,0,2.2,0,3.3,0c8.1,0,16.2,0.1,24.2,0.2c15.4,0.2,30.5,0.6,45,1.2l0.1,0h0.1
			c14.4,0,26.1,11.6,26.1,25.8v0.1l0,0.2c0.9,11.3,1.3,23,1.4,34.9v0.2v7.1v0.2c-0.1,11.9-0.5,23.7-1.4,34.9l0,0.2v0.2c0,0,0,0,0,0
			c0,0,0,0,0,0c0,0,0,0,0,0c0,14.2-11.8,25.7-26.1,25.7h-0.1h-0.1c-21.1,0.9-43.3,1.3-66.1,1.4h-6.3h-6.3c-22.8,0-45.1-0.5-66.1-1.4
			h-0.1h-0.1c-14.4,0-26.1-11.6-26.1-25.8v-0.2l0-0.2c-0.9-11.7-1.4-23.8-1.4-36.2v-2.5v-2.5c0-12.4,0.5-24.6,1.4-36.2l0-0.2v-0.1
			c0-14.2,11.7-25.8,26.1-25.8h0.1l0.1,0c22-0.9,45.2-1.4,69.1-1.4h0C125,2159,126.1,2159,127.3,2159
			C127.3,2159,127.3,2159,127.3,2159L127.3,2159z"/>
	</defs>
	<clipPath id="SVGID_2_">
		<use xlink:href="#SVGID_1_"  overflow="visible"/>
	</clipPath>
	<g clip-path="url(#SVGID_2_)">
		<defs>
			<rect id="SVGID_3_" x="27.1" y="2159" width="200.4" height="132.3"/>
		</defs>
		<clipPath id="SVGID_4_">
			<use xlink:href="#SVGID_3_"  overflow="visible"/>
		</clipPath>
		<g clip-path="url(#SVGID_4_)">
			
				<image overflow="visible" width="424" height="279" xlink:href="BB87779.jpg"  transform="matrix(0.48 0 0 -0.48 25.8025 2292.2996)">
			</image>
		</g>
	</g>
</g>
<path fill="#FFFFFF" d="M130.9,2155.1c-1.2,0-2.4,0-3.7,0c-1.2,0-2.5,0-3.7,0c-23.4,0-46.5,0.4-69,1.4c-16.6,0-30.1,13.3-30.1,29.7
	c-1,13-1.4,26-1.4,39c0,13,0.4,26,1.4,39c0,16.4,13.5,29.7,30.1,29.7c22.6,0.9,45.7,1.4,69.3,1.4c1.1,0,2.2,0,3.3,0
	c1.1,0,2.2,0,3.3,0c23.6,0,46.7-0.4,69.3-1.4c16.6,0,30.1-13.3,30.1-29.7c1-13,1.4-26,1.4-39c0-13-0.4-26-1.4-39
	c0-16.4-13.5-29.7-30.1-29.7C177.4,2155.5,154.4,2155.1,130.9,2155.1L130.9,2155.1z"/>
<path d="M83.5,2177.8H39.8v13.4h14.7v78.7h14.2v-78.7h14.7V2177.8L83.5,2177.8z M106.7,2253.5L106.7,2253.5
	c-1.2,1.5-2.5,2.7-3.9,3.7c-1.4,1-2.6,1.4-3.5,1.4c-1.2,0-2-0.4-2.6-1.1c-0.5-0.7-0.8-1.9-0.8-3.5v-52.1H83.3v56.8
	c0,4,0.7,7.1,2.2,9.1c1.5,2,3.7,3,6.6,3c2.4,0,4.8-0.7,7.3-2.2c2.5-1.4,4.9-3.5,7.3-6.3v7.5h12.6v-67.9h-12.6V2253.5L106.7,2253.5z
	 M155.7,2201.1L155.7,2201.1c-2,0-3.9,0.5-5.8,1.6c-1.9,1.1-3.7,2.7-5.4,4.7v-29.7h-12.7v92.1h12.7v-5.2c1.7,2.1,3.5,3.6,5.4,4.6
	c1.9,1,4.1,1.5,6.6,1.5c3.7,0,6.6-1.3,8.6-3.8c2-2.6,3-6.3,3-11.1v-37.7c0-5.6-1-9.8-3.2-12.7
	C162.7,2202.5,159.7,2201.1,155.7,2201.1L155.7,2201.1z M155,2253.9L155,2253.9c0,2.2-0.4,3.7-1.1,4.7c-0.7,1-1.9,1.4-3.4,1.4
	c-1.1,0-2.1-0.2-3-0.7c-1-0.5-2-1.3-3-2.4v-42.3c0.9-0.9,1.7-1.6,2.6-2.1c0.9-0.4,1.8-0.7,2.7-0.7c1.7,0,3,0.6,3.9,1.8
	c0.9,1.2,1.4,2.9,1.4,5.2V2253.9L155,2253.9z M214.7,2237.5L214.7,2237.5v-17.3c0-6.4-1.5-11.4-4.6-14.8c-3.1-3.4-7.6-5.2-13.3-5.2
	c-5.6,0-10.3,1.9-13.8,5.6c-3.6,3.7-5.3,8.5-5.3,14.4v30.5c0,6.5,1.6,11.7,4.9,15.4c3.3,3.7,7.7,5.6,13.4,5.6c6.3,0,11-1.8,14.2-5.3
	c3.2-3.5,4.7-8.8,4.7-15.7v-5.1h-13v4.7c0,4-0.4,6.6-1.2,7.8c-0.8,1.2-2.3,1.8-4.4,1.8c-2,0-3.4-0.7-4.3-2.1
	c-0.8-1.4-1.3-3.9-1.3-7.4v-12.8H214.7L214.7,2237.5z M190.5,2220.1L190.5,2220.1c0-2.8,0.4-4.9,1.3-6.1c0.9-1.2,2.3-1.8,4.3-1.8
	c1.9,0,3.3,0.6,4.2,1.8c0.9,1.2,1.3,3.3,1.3,6.1v6.9h-11.2V2220.1L190.5,2220.1z"/>
<path fill="#7C7C7C" d="M265.1,25.5c-9.8,4.3-20.2,7.2-31.2,8.6c11.2-6.7,19.9-17.4,23.9-30.1c-10.5,6.2-22.2,10.8-34.5,13.2
	C213.3,6.6,199.2,0,183.6,0c-30,0-54.4,24.4-54.4,54.4c0,4.3,0.5,8.4,1.4,12.4C85.4,64.5,45.3,42.9,18.5,10
	c-4.7,8-7.4,17.4-7.4,27.3c0,18.9,9.6,35.5,24.2,45.3c-8.9-0.3-17.3-2.7-24.6-6.8c0,0.2,0,0.5,0,0.7c0,26.4,18.7,48.3,43.6,53.3
	c-4.6,1.2-9.4,1.9-14.3,1.9c-3.5,0-6.9-0.3-10.2-1c6.9,21.6,27,37.3,50.8,37.8c-18.6,14.6-42.1,23.3-67.6,23.3
	c-4.4,0-8.7-0.3-13-0.8c24.1,15.4,52.7,24.4,83.4,24.4c100,0,154.8-82.9,154.8-154.8c0-2.4-0.1-4.7-0.2-7
	C248.6,46,257.8,36.4,265.1,25.5L265.1,25.5z"/>
<polygon points="-1102.3,409.5 -1102.3,824.5 -687.3,824.5 -687.3,409.5 -1102.3,409.5 "/>
<path fill-rule="evenodd" clip-rule="evenodd" fill="#FFFFFF" d="M-874.2,700c2-6.4,7.1-13.1,9.7-21.1c3.6-10.9,2.9-15,3.1-26.7
	c25.4,5.3,29.3,2.3,49.5-6.6c2.6,3.4,10.4,60.1,11,68.9c-2.8,1.8-5.6,2.5-8.5,4.6c-3.7,2.7-3.6,4.2-6.8,6.9L-874.2,700L-874.2,700z
	 M-937.3,558.4c3.4,2.4,19.1,24.3,23.2,29.8l34.5,46.3c8.8,12.1,14.2,21.4,8.4,41.9c-1,3.5-2.2,6.8-3.9,9.9
	c-0.8,1.6-1.3,2.5-2.3,4.1c-1,1.5-0.2,0.4-1.3,1.9c-0.1,0.2-0.4,0.4-0.5,0.6l-1.1,1.2c-0.1,0.1-0.4,0.4-0.6,0.6
	c-1.3-1.2-1.8-1.7-3.2-3.5l-47.7-63.9c-8.6-11.7-16.8-22.1-25.5-34.1C-964.5,583.4-942.8,563.5-937.3,558.4L-937.3,558.4z
	 M-931.5,552.5c5.2-1.9,33.1-21.3,39.9-14.5l12.7,17.1c7.8,10.6,59.5,78.3,62.6,84.7c-12.4,6.9-28.8,10-44.4,4.5
	c-8-2.8-19.6-21.7-25.1-29.1c-7.8-10.4-15.1-20.2-22.7-30.5C-912.2,579.8-930.3,556.9-931.5,552.5L-931.5,552.5z M-911.2,527.6
	c-5.9,2.3-19.5,9.2-23.2,9.9c-2.1,3.1-7.1,6.1-10.1,8.3c-11.5,8.6-15.9,17.3-22.7,28.3l-2,2.6c-4.7-4.9-9.4-11.2-13.3-17.4
	c2.8-15.5,23.9-34.6,34.4-40.8c6.2-3.7,16-9.3,24.3-10.7l7.7-1.8c3,2.8,13.9,16.7,14.3,19.6L-911.2,527.6L-911.2,527.6z
	 M-992.2,545.5c-4.6-27.2,38-62.2,66.6-50.9c-3.4,2.3-34.9,7.8-55.2,34.1C-985,534.2-990.4,544.6-992.2,545.5L-992.2,545.5z
	 M-894.5,705.8c6.1,8.4,8.3,7.6,21,13c28.5,12.2,67,27.9,94.2,40.6c-2.1-31-9.8-82.6-14.4-115.2c-1.8-12.5-111.1-156.8-120.8-164
	c-33.7-24.8-119.8,38.1-89.6,78.9c7.4,10,13.4,18,20.9,28C-879.9,724.3-975.7,594.2-894.5,705.8L-894.5,705.8z"/>
<polygon points="-591.3,409.5 -591.3,824.5 -176.3,824.5 -176.3,409.5 -591.3,409.5 "/>
<path fill-rule="evenodd" clip-rule="evenodd" fill="#FFFFFF" d="M-483.5,484.6h145.3c14.2,0.1,12-0.4,19.7,12.9l63.7,108.9
	c5.3,7.1,4.5,13.5,0.3,20.3l-68.7,114.6c-4.5,8.2-6.2,8-15.1,8h-145.2c-18.1,0-33-14.8-33-33V517.6
	C-516.5,499.4-501.6,484.6-483.5,484.6L-483.5,484.6z"/>
<path d="M-347.3,522h-28.9c-28.4,0-52.4,21.6-52.4,63.5c0,25.1,11.7,43.7,32.4,52.8l-38.7,70.1c-1.3,2.3,0,4.1,2,4.1h18
	c1.5,0,2.5-0.5,3-1.8l35.2-68.8h12.7v68.8c0,0.8,0.8,1.8,1.8,1.8h15.7c1.5,0,2-0.8,2-2V524.6C-344.6,522.8-345.6,522-347.3,522
	L-347.3,522z M-364,625.6L-364,625.6h-10.6c-16.7,0-32.9-12.2-32.9-42.7c0-31.8,15.2-44.7,30.6-44.7h12.9V625.6L-364,625.6z"/>
<polygon points="-591.3,920.5 -591.3,1335.5 -176.3,1335.5 -176.3,920.5 -591.3,920.5 "/>
<path fill-rule="evenodd" clip-rule="evenodd" fill="#FFFFFF" d="M-483.5,995.6h145.3c14.2,0.1,12-0.4,19.7,12.9l63.7,108.9
	c5.3,7.1,4.5,13.5,0.3,20.3l-68.7,114.6c-4.5,8.2-6.2,8-15.1,8h-145.2c-18.1,0-33-14.8-33-33v-198.8
	C-516.5,1010.5-501.6,995.6-483.5,995.6L-483.5,995.6z"/>
<path fill-rule="evenodd" clip-rule="evenodd" stroke="#000000" stroke-width="0.5669" stroke-miterlimit="22.9256" d="
	M-417.1,1034.8c17.6,0,31.9,14.3,31.9,31.9s-14.3,31.9-31.9,31.9s-31.9-14.3-31.9-31.9S-434.7,1034.8-417.1,1034.8L-417.1,1034.8z"
	/>
<path fill-rule="evenodd" clip-rule="evenodd" stroke="#000000" stroke-width="0.5669" stroke-miterlimit="22.9256" d="
	M-353.6,1049.7c17.6,0,31.9,14.3,31.9,31.9c0,17.6-14.3,31.9-31.9,31.9c-17.6,0-31.9-14.3-31.9-31.9
	C-385.5,1063.9-371.2,1049.7-353.6,1049.7L-353.6,1049.7z"/>
<path fill-rule="evenodd" clip-rule="evenodd" stroke="#000000" stroke-width="0.5669" stroke-miterlimit="22.9256" d="
	M-334.7,1112.1c17.6,0,31.9,14.3,31.9,31.9c0,17.6-14.3,31.9-31.9,31.9s-31.9-14.3-31.9-31.9
	C-366.6,1126.4-352.3,1112.1-334.7,1112.1L-334.7,1112.1z"/>
<path fill-rule="evenodd" clip-rule="evenodd" stroke="#000000" stroke-width="0.5669" stroke-miterlimit="22.9256" d="
	M-379.3,1159.7c17.6,0,31.9,14.3,31.9,31.9c0,17.6-14.3,31.9-31.9,31.9s-31.9-14.3-31.9-31.9C-411.2,1174-397,1159.7-379.3,1159.7
	L-379.3,1159.7z"/>
<path fill-rule="evenodd" clip-rule="evenodd" stroke="#000000" stroke-width="0.5669" stroke-miterlimit="22.9256" d="
	M-442.9,1144.8c17.6,0,31.9,14.3,31.9,31.9s-14.3,31.9-31.9,31.9c-17.6,0-31.9-14.3-31.9-31.9S-460.5,1144.8-442.9,1144.8
	L-442.9,1144.8z"/>
<path fill-rule="evenodd" clip-rule="evenodd" stroke="#000000" stroke-width="0.5669" stroke-miterlimit="22.9256" d="
	M-461.8,1082.4c17.6,0,31.9,14.3,31.9,31.9s-14.3,31.9-31.9,31.9s-31.9-14.3-31.9-31.9S-479.4,1082.4-461.8,1082.4L-461.8,1082.4z"
	/>
<polygon points="-591.3,1431.5 -591.3,1846.5 -176.3,1846.5 -176.3,1431.5 -591.3,1431.5 "/>
<polygon fill-rule="evenodd" clip-rule="evenodd" fill="#FFFFFF" points="-494.6,1658.8 -494.6,1773.8 -309.9,1773.8 -309.9,1658.8 
	-329.7,1658.8 -329.7,1755 -474.3,1755 -474.3,1658.8 -494.6,1658.8 "/>
<path fill-rule="evenodd" clip-rule="evenodd" fill="#FFFFFF" d="M-382,1528.3l30.4,45.8c10.1,14.5,22.1,31.3,30.9,45.7l19.8-12.3
	l-60.7-92.2L-382,1528.3L-382,1528.3z"/>
<polygon fill-rule="evenodd" clip-rule="evenodd" fill="#FFFFFF" points="-459.5,1736.2 -348.1,1736.2 -347.9,1712.2 -458.9,1712.2 
	-459.5,1736.2 "/>
<polygon fill-rule="evenodd" clip-rule="evenodd" fill="#FFFFFF" points="-314.4,1495.5 -296.3,1604.8 -273.3,1601.7 -292.1,1491.8 
	-314.4,1495.5 "/>
<polygon fill-rule="evenodd" clip-rule="evenodd" fill="#FFFFFF" points="-451.9,1644.7 -344.8,1673.6 -338,1650.8 -445.7,1621.8 
	-451.9,1644.7 "/>
<polygon fill-rule="evenodd" clip-rule="evenodd" fill="#FFFFFF" points="-431.9,1587.3 -336.3,1643.9 -324,1624 -420.2,1566.7 
	-431.9,1587.3 "/>
<polygon fill-rule="evenodd" clip-rule="evenodd" fill="#FFFFFF" points="-458.5,1695.1 -348.3,1705.4 -345.2,1682.2 -456.3,1671.5 
	-458.5,1695.1 "/>
<polygon points="941.8,-101.5 941.8,313.5 1356.8,313.5 1356.8,-101.5 941.8,-101.5 "/>
<path fill-rule="evenodd" clip-rule="evenodd" fill="#FFFFFF" d="M1207.1,63.6c23.4,0,42.4-19,42.4-42.4c0-23.4-19-42.4-42.4-42.4
	c-23.4,0-42.4,19-42.4,42.4C1164.7,44.6,1183.7,63.6,1207.1,63.6L1207.1,63.6z M1068.4,52.8c14,0,25.4-11.4,25.4-25.4
	c0-14-11.4-25.4-25.4-25.4c-14,0-25.4,11.4-25.4,25.4C1043,41.4,1054.4,52.8,1068.4,52.8L1068.4,52.8z M1068.4,57.4
	c-19.2,0-34.7,15.5-34.7,34.7c0,0.8,0.1,1.5,0.1,2.3h-0.1v60.1h53.9v26.2h61.6v52.4h115.6V132.9h-0.2c0.1-1.3,0.2-2.5,0.2-3.8
	c0-31.9-25.9-57.8-57.8-57.8c-14.9,0-28.5,5.7-38.8,14.9c-6.8-14.3-21.4-24.2-38.3-24.2c-12.3,0-23.4,5.2-31.1,13.6
	C1093.1,64.8,1081.6,57.4,1068.4,57.4L1068.4,57.4z M1130.1,56.4c17.2,0,31.1-13.9,31.1-31.1c0-17.2-13.9-31.1-31.1-31.1
	c-17.2,0-31.1,13.9-31.1,31.1C1099,42.5,1112.9,56.4,1130.1,56.4L1130.1,56.4z"/>
<polygon points="-1102.3,1431.5 -1102.3,1846.5 -687.3,1846.5 -687.3,1431.5 -1102.3,1431.5 "/>
<polygon fill-rule="evenodd" clip-rule="evenodd" fill="#FFFFFF" points="-989.1,1519.4 -919.2,1519.4 -919.2,1591.9 -870.3,1591.9 
	-870.3,1519.4 -800.5,1519.4 -800.5,1758.7 -870.3,1758.7 -870.3,1663.5 -919.2,1663.5 -919.2,1758.7 -989.1,1758.7 -989.1,1519.4 
	"/>
<polygon points="-591.3,1942.5 -591.3,2357.5 -176.3,2357.5 -176.3,1942.5 -591.3,1942.5 "/>
<path fill-rule="evenodd" clip-rule="evenodd" fill="#FFFFFF" d="M-245.8,2074.5c2.1-11.7,2-23.8-5.2-32.9
	c-10.1-12.8-31.6-13.3-46.3-11c-12,1.8-52.5,19.7-66.3,62.5c24.4-1.9,37.2,1.8,34.9,28.7c-1,11.3-6.7,23.6-13,35.4
	c-7.3,13.6-21.1,40.4-39.1,21.1c-16.2-17.4-15-50.6-18.7-72.7c-2.1-12.4-4.3-27.9-8.3-40.6c-3.5-11-11.5-24.2-21.4-27.1
	c-10.6-3.1-23.6,1.7-31.3,6.3c-24.4,14.3-43,34.7-64.1,51.6v1.6c4.2,4,5.3,10.6,11.5,11.4c14.5,2.1,28.4-13.5,38,2.8
	c5.9,10,7.7,20.9,11.5,31.6c5,14.3,8.9,29.9,13,46.3c7,27.9,15.5,69.5,39.6,79.7c12.3,5.2,30.8-1.8,40.1-7.3
	c25.3-15,45.1-36.7,62-58.8C-270.3,2150.8-249,2091.5-245.8,2074.5L-245.8,2074.5z"/>
<polygon points="941.8,409.5 941.8,824.5 1356.8,824.5 1356.8,409.5 941.8,409.5 "/>
<path fill-rule="evenodd" clip-rule="evenodd" fill="#FFFFFF" d="M1235.6,627.9c-4.2-8.5-15.9-15.5-31.5-3.3
	c-21,16.6-54.8,16.6-54.8,16.6s-33.8,0-54.8-16.6c-15.6-12.3-27.3-5.2-31.5,3.3c-7.4,14.8,1,22,19.7,34c16,10.3,38.1,14.1,52.3,15.6
	l-11.9,11.9c-16.7,16.7-32.9,32.9-44.1,44.1c-6.7,6.7-6.7,17.6,0,24.3l2,2c3.3,3.3,7.7,5,12.1,5h0.1c4.4,0,8.8-1.7,12.1-5l44.1-44.1
	c16.7,16.7,32.9,32.9,44.1,44.1c6.7,6.7,17.6,6.7,24.3,0l2-2c6.7-6.7,6.7-17.6,0-24.3l-44.1-44.1l-11.9-11.9
	c14.2-1.5,36.1-5.3,52-15.5C1234.6,649.9,1242.9,642.7,1235.6,627.9L1235.6,627.9z M1149.3,507.1c20.3,0,36.8,16.5,36.8,36.8
	c0,20.3-16.5,36.8-36.8,36.8s-36.8-16.5-36.8-36.8C1112.5,523.6,1129,507.1,1149.3,507.1L1149.3,507.1z M1149.3,618.8
	c41.3,0,74.8-33.5,74.8-74.8c0-41.3-33.5-74.8-74.8-74.8c-41.3,0-74.8,33.5-74.8,74.8C1074.5,585.3,1108,618.8,1149.3,618.8
	L1149.3,618.8z"/>
<polygon points="430.8,1942.5 430.8,2357.5 845.8,2357.5 845.8,1942.5 430.8,1942.5 "/>
<path fill="#FFFFFF" d="M536.2,2070L536.2,2070h26.7c1.5,0,2.8-1.2,2.8-2.8c0,0-0.3-22.9-0.3-29.2v-0.1c0-5.2,1.1-9.8,3-13.6
	l0.9-1.7c-0.1,0-0.2,0.1-0.3,0.2l-51.8,51.3c-0.1,0.1-0.2,0.2-0.2,0.3c1.1-0.5,2.5-1.3,2.7-1.3C524.2,2071.1,529.6,2070,536.2,2070
	L536.2,2070z M743.5,2064.4L743.5,2064.4c-2.1-11.3-8.9-16.9-14.9-19.1c-6.6-2.4-19.9-4.8-36.6-6.8c-13.5-1.6-29.3-1.5-38.9-1.2
	c-1.1-7.9-6.7-15-12.8-17.5c-16.4-6.6-41.8-5-48.4-3.2c-5.2,1.5-10.9,4.4-14.1,9c-2.1,3.1-3.5,7-3.5,12.4c0,3.1,0.1,10.4,0.2,16.9
	c0.1,6.5,0.2,12.3,0.2,12.3c0,5.8-4.7,10.5-10.5,10.5h-26.7c-5.7,0-10,1-13.3,2.5c-3.3,1.5-5.7,3.5-7.5,5.9
	c-3.6,4.8-4.2,10.7-4.2,16.7c0,0,0.1,4.9,1.2,14.4c1,7.4,9,58.8,16.6,74.5c2.9,6.1,4.9,8.6,10.7,11.3c12.9,5.5,42.3,11.6,56.1,13.4
	c13.8,1.8,22.4,5.5,27.5-5.3c0,0,1-2.7,2.4-6.6c4.5-13.5,5.1-25.5,5.1-34.2c0-0.9,1.3-0.9,1.3,0c0,6.1-1.2,27.9,15.2,33.7
	c6.5,2.3,19.9,4.3,33.6,5.9c12.3,1.4,21.3,6.3,21.3,37.9c0,19.3-4,21.9-25.2,21.9c-17.1,0-23.7,0.4-23.7-13.2c0-11,10.9-9.9,19-9.9
	c3.6,0,1-2.7,1-9.5c0-6.8,4.2-10.7,0.2-10.8c-27.9-0.8-44.3,0-44.3,34.9c0,31.7,12.1,37.6,51.7,37.6c31.1,0,42-1,54.8-40.8
	c2.5-7.9,8.7-31.8,12.4-72.1C751.7,2160.6,747.1,2083.8,743.5,2064.4L743.5,2064.4z M689.4,2149.3L689.4,2149.3
	c-3.8-0.1-7.5,0.1-11,0.7c1-7.8,4.2-17.4,15.6-17c12.7,0.4,14.4,12.4,14.5,20.5C703.2,2151.1,696.6,2149.5,689.4,2149.3
	L689.4,2149.3z"/>
<polygon points="941.8,920.5 941.8,1335.5 1356.8,1335.5 1356.8,920.5 941.8,920.5 "/>
<path fill="#FFFFFF" d="M1046.1,1141.8v-109.5c0-18.1,4.6-23.8,21.2-23.8h165.5c15.7,0,21.3,6.8,21.3,23.8v106.1l12.8-8.8v-109
	c0-14.3-10.8-25.9-24-25.9h-186.9c-13.3,0-24,11.6-24,25.9v112.3L1046.1,1141.8L1046.1,1141.8z"/>
<path fill="#FFFFFF" d="M1152.8,1161.9c0-9.3,4.3-15.5,17.6-14.9c19.2,0.6,57,5,99.5-25.4c8-5.6,13.2,2,8.3,9.2
	c-9.5,11.6-27.6,26.1-55.3,37.5c29.4,99.9-71.6,115.7-70,64.5C1153,1234.4,1152.8,1161.9,1152.8,1161.9L1152.8,1161.9z"/>
<path fill="#FFFFFF" d="M1145.8,1161.9c0-9.3-4.3-15.5-17.6-14.9c-19.2,0.6-57,5-99.5-25.4c-8-5.6-13.2,2-8.3,9.2
	c9.5,11.6,27.6,26.1,55.3,37.5c-29.3,99.9,71.6,115.7,70,64.5C1145.7,1234.4,1145.8,1161.9,1145.8,1161.9L1145.8,1161.9z"/>
<path fill="#FFFFFF" d="M1145.9,1104.8c0,16.6-14.4,30.1-32.1,30.1c-17.7,0-32.1-13.5-32.1-30.1c0-16.6,14.4-30.1,32.1-30.1
	C1131.5,1074.7,1145.9,1088.2,1145.9,1104.8L1145.9,1104.8z"/>
<path fill="#FFFFFF" d="M1156.4,1104.8c0,16.6,14.4,30.1,32.1,30.1c17.7,0,32.1-13.5,32.1-30.1c0-16.6-14.4-30.1-32.1-30.1
	C1170.8,1074.7,1156.4,1088.2,1156.4,1104.8L1156.4,1104.8z"/>
<path fill="#FFFFFF" d="M1193.8,1154.9c-13.9,19.1-30.5,15.6-50-2.5c-20.2-18.9-6.8,28.1,1.5,30c12.1,2.8,16.9,5.5,33.3,1.7
	c15.5-3.6,23-14.6,26.2-22.4C1210.2,1148.7,1201,1145,1193.8,1154.9L1193.8,1154.9z"/>
<polygon points="-1102.3,920.5 -1102.3,1335.5 -687.3,1335.5 -687.3,920.5 -1102.3,920.5 "/>
<path fill="#FFFFFF" d="M-890.7,1172.4l0,6.1l51.6,40l29.3-17.7l0.2-6.2l-27.4,16.4c-1.2,0.7-2.7,0.6-3.7-0.2l0,0L-890.7,1172.4
	L-890.7,1172.4z M-942.3,1219.6l51.6-41.1l0-6.1l-49.8,38.3c-1.1,0.8-2.6,0.9-3.7,0.2l0,0l-26.7-15.8l0,6.9L-942.3,1219.6
	L-942.3,1219.6z M-893.3,1263.8l-76.1-50.8c-1-0.7-1.5-1.8-1.5-2.9l0-14.9l-52.8-31.3c-1.6-0.9-2.1-3-1.2-4.6c0.2-0.4,0.6-0.8,1-1
	l51.1-38.9l-51.2-39c-1.5-1.1-1.7-3.2-0.6-4.7c0.3-0.4,0.6-0.6,1-0.9l79.3-51.7c1.3-0.8,2.9-0.7,4,0.3l0,0l49.7,42.7l50.9-42.7
	c1.2-1,2.9-1,4.1-0.1l77,49.2c1.5,1,2,3,1,4.6c-0.2,0.3-0.5,0.6-0.7,0.8l-47.6,39.6l47.7,40.9c1.4,1.2,1.6,3.3,0.4,4.7
	c-0.3,0.3-0.6,0.6-0.9,0.8l-50.9,30.6l-0.4,16c0,1.1-0.5,2.2-1.5,2.8l-77.9,50.5C-890.7,1264.6-892.2,1264.6-893.3,1263.8
	L-893.3,1263.8z M-890,1074.1l-71.4,45l70.5,45L-890,1074.1L-890,1074.1z M-890,1074.1l-0.8,90l73.5-46.5L-890,1074.1L-890,1074.1z"
	/>
<polygon points="-80.2,920.5 -80.2,1335.5 334.8,1335.5 334.8,920.5 -80.2,920.5 "/>
<path fill="#FFFFFF" d="M155,1174.5c-1.8,2.1-4.1,4.2-6.9,6.3c-2.7,2.1-5.9,4.1-9.4,5.7c-3.5,1.7-7.3,3-11.5,4.1
	c-4.2,1-8.6,1.5-13.2,1.5c-6.3,0-12.2-1-17.5-3c-5.4-2-9.9-4.8-13.9-8.4c-3.9-3.6-6.9-8-9.1-13.2c-2.2-5.1-3.2-10.9-3.2-17.3
	c0-7,1.3-13.4,3.8-18.9c2.6-5.5,6.1-10.2,10.7-14c4.5-3.8,10-6.8,16.4-8.8c6.4-2,13.4-3,21.1-3c6.3,0,11.7,0.4,16.2,1.1
	c4.5,0.8,8.4,1.6,11.7,2.4v-5.2c0-3-0.5-5.9-1.5-8.8c-1.1-2.8-2.7-5.3-5-7.5c-2.3-2.2-5.2-4-8.9-5.3c-3.7-1.3-8.2-2-13.5-2
	c-6.5,0-12.9,0.7-19.3,2.2c-6.4,1.5-13.4,3.6-20.9,6.5v-24.8c2.7-1.4,5.8-2.5,9.2-3.6c3.4-1.1,7-2,10.8-2.8
	c3.8-0.8,7.8-1.4,11.8-1.9c4.1-0.5,8.1-0.7,12.1-0.7c9.5,0,17.8,1.2,25,3.5c7.1,2.3,13,5.5,17.7,9.6c4.7,4.1,8.2,8.9,10.7,14.5
	c2.4,5.5,3.6,11.6,3.6,18.1v55.1c0,2.1,0.1,4,0.3,5.6c0.2,1.7,0.7,3.2,1.4,4.4c0.7,1.3,1.7,2.2,2.9,2.8c1.2,0.6,2.8,1,4.7,1
	c4.4,0,8.6-1.3,12.4-4c3.9-2.7,7.2-6.4,10.1-11.2c2.8-4.9,5.1-10.8,6.8-17.8c1.6-6.9,2.5-14.8,2.5-23.5c0-15.3-2.6-28.6-7.6-40
	c-5.1-11.4-12-21-20.7-28.6c-8.7-7.7-18.9-13.4-30.5-17.2c-11.6-3.8-24-5.6-37.1-5.6c-17.6,0-32.7,2.9-45.4,8.7
	c-12.6,5.8-23,13.6-31,23.3c-8.1,9.7-14,20.8-17.8,33.4c-3.8,12.6-5.7,25.7-5.7,39.3c0,14.5,2.2,28,6.5,40.4
	c4.3,12.4,10.9,23.2,19.6,32.2c8.7,9.1,19.6,16.3,32.7,21.4c13.1,5.2,28.4,7.7,45.9,7.7c7.8,0,15.4-0.4,22.8-1.2
	c7.4-0.8,14.4-1.8,21-3.1c6.6-1.3,12.7-2.8,18.3-4.4c5.6-1.6,10.5-3.3,14.7-5.1v22.6c-4.2,1.7-9.3,3.4-15.2,5
	c-5.9,1.6-12.3,3.1-19.1,4.4c-6.8,1.3-13.9,2.3-21.3,3c-7.4,0.7-14.7,1.1-22,1.1c-12.2,0-23.7-1.2-34.7-3.6
	c-11-2.4-21.3-6-30.9-10.8c-9.5-4.7-18.2-10.6-26-17.5c-7.8-6.9-14.4-15-19.8-24.1c-5.5-9.1-9.7-19.2-12.7-30.3
	c-3-11.1-4.5-23.2-4.5-36.3c0-19.1,2.9-36.5,8.8-52.3c5.8-15.8,14.2-29.3,25-40.7c10.8-11.3,23.9-20.1,39.4-26.3
	c15.4-6.2,32.7-9.4,51.8-9.4c17.6,0,33.8,2.7,48.6,8.2c14.8,5.4,27.4,13,38.2,22.9c10.7,9.9,19.1,21.7,25,35.5c6,13.7,9,29,9,45.8
	c0,13-1.5,24.5-4.7,34.5c-3.1,10-7.4,18.4-13,25.2c-5.6,6.8-12.2,12-19.7,15.5c-7.6,3.5-15.9,5.2-24.8,5.2c-4.6,0-8.5-0.4-11.9-1.3
	c-3.3-0.9-6.1-2.1-8.5-3.6c-2.4-1.5-4.4-3.4-5.9-5.6c-1.5-2.1-2.8-4.5-3.9-7.2H155L155,1174.5z M150.2,1133.1
	c-3-0.7-6.4-1.3-10.1-1.9s-7.8-0.9-12.1-0.9c-7.7,0-13.8,1.5-18.4,4.5c-4.6,3-6.8,7.8-6.8,14.3c0,3,0.5,5.6,1.5,7.9
	c1.1,2.3,2.4,4.1,4.1,5.5c1.7,1.4,3.8,2.5,6.1,3.2c2.4,0.7,4.8,1.1,7.3,1.1c3.2,0,6.2-0.4,9.1-1.3c2.9-0.9,5.5-2,7.9-3.3
	c2.4-1.4,4.5-2.8,6.5-4.4c1.9-1.6,3.6-3.2,4.9-4.7V1133.1L150.2,1133.1z"/>
<polygon points="-80.2,1431.5 -80.2,1846.5 334.8,1846.5 334.8,1431.5 -80.2,1431.5 "/>
<path fill="#FFFFFF" d="M105,1670.5l-80.8-53.6v109.9L105,1670.5L105,1670.5z M13,1597l108.9-77c2.7-1.9,6.2-1.7,8.7,0.2l110.7,76.7
	c2.2,1.3,3.6,3.6,3.6,6.3v137.5c0,4-3.3,7.3-7.3,7.3H16.9c-4,0-7.3-3.3-7.3-7.3v-137.5C9.6,1600.6,11,1598.3,13,1597L13,1597z
	 M230.3,1616.8l-81.4,53.9l81.4,56.1V1616.8L230.3,1616.8z M214.2,1733.4l-82.2-56.6c-0.2-0.1-0.4-0.3-0.6-0.4l-4.7-3.3l-86.6,60.3
	H214.2L214.2,1733.4z M136,1661.8l88.7-58.7l-98.5-68.2L29.8,1603l88.1,58.5l4.7-3.3c2.7-1.9,6.3-1.7,8.7,0.3L136,1661.8L136,1661.8
	z"/>
<polygon points="-80.2,409.5 -80.2,824.5 334.8,824.5 334.8,409.5 -80.2,409.5 "/>
<path fill-rule="evenodd" clip-rule="evenodd" fill="#FFFFFF" d="M27.6,541.9c19.8,0,32.1-13.1,32.1-29.5
	c-0.4-16.8-12.3-29.5-31.8-29.5c-19.4,0-32.2,12.8-32.2,29.5c0,16.4,12.3,29.5,31.4,29.5H27.6L27.6,541.9z M56,736.2v-171H-0.8v171
	H56L56,736.2z"/>
<path fill-rule="evenodd" clip-rule="evenodd" fill="#FFFFFF" d="M87.5,736.2h56.8v-95.5c0-5.1,0.4-10.2,1.9-13.9
	c4.1-10.2,13.5-20.8,29.2-20.8c20.6,0,28.8,15.7,28.8,38.7v91.5h56.8v-98c0-52.5-28-77-65.4-77c-30.7,0-44.1,17.1-51.6,28.8h0.4
	v-24.8H87.5C88.2,581.2,87.5,736.2,87.5,736.2L87.5,736.2L87.5,736.2z"/>
<polygon points="941.8,1942.5 941.8,2357.5 1356.8,2357.5 1356.8,1942.5 941.8,1942.5 "/>
<path fill-rule="evenodd" clip-rule="evenodd" fill="#FFFFFF" d="M1129.9,2219.2l-11.5-31.4c0,0-18.8,20.9-46.9,20.9
	c-24.9,0-42.6-21.6-42.6-56.3c0-44.4,22.4-60.2,44.4-60.2c31.7,0,41.8,20.6,50.5,46.9l11.5,36.1c11.5,35,33.2,63.1,95.6,63.1
	c44.7,0,75-13.7,75-49.8c0-29.2-16.6-44.4-47.6-51.6l-23.1-5c-15.9-3.6-20.6-10.1-20.6-20.9c0-12.3,9.7-19.5,25.6-19.5
	c17.3,0,26.7,6.5,28.1,22l36.1-4.3c-2.9-32.5-25.2-45.8-62-45.8c-32.5,0-64.2,12.3-64.2,51.6c0,24.5,11.9,40,41.8,47.3l24.5,5.8
	c18.4,4.3,24.5,11.9,24.5,22.4c0,13.3-13,18.8-37.5,18.8c-36.4,0-51.6-19.1-60.2-45.4l-11.9-36.1c-15.1-46.9-39.3-64.2-87.3-64.2
	c-53,0-81.2,33.5-81.2,90.5c0,54.8,28.1,84.4,78.6,84.4C1110.4,2238.4,1129.9,2219.2,1129.9,2219.2L1129.9,2219.2L1129.9,2219.2z"/>
<polygon points="941.8,1431.5 941.8,1846.5 1356.8,1846.5 1356.8,1431.5 941.8,1431.5 "/>
<path fill="#FFFFFF" d="M1134.1,1524.5v211.2c-48.2-6-84.5-32.4-84.5-64c0-29.9,32.6-55.2,77.1-62.9v-26.8
	c-68,8.2-119.4,45.3-119.4,89.7c0,46.1,55.1,84.1,126.8,90.5l42.3-19.9v-238.5L1134.1,1524.5L1134.1,1524.5z M1183.7,1582.1
	L1183.7,1582.1v26.8c16.6,2.9,31.5,8.2,43.7,15.2l-22.9,12.9l81.7,17.8l-5.8-60.6l-21.7,12.2
	C1238.5,1594.2,1212.6,1585.6,1183.7,1582.1L1183.7,1582.1z"/>
<polygon points="845.8,313.5 430.8,313.5 430.8,-101.5 845.8,-101.5 845.8,313.5 "/>
<g>
	<defs>
		<polygon id="SVGID_5_" points="799.1,30.4 745.4,30.4 745.4,-23.4 731.9,-23.4 731.9,30.4 678.1,30.4 678.1,43.8 731.9,43.8 
			731.9,97.6 745.4,97.6 745.4,43.8 799.1,43.8 799.1,30.4 		"/>
	</defs>
	<clipPath id="SVGID_6_">
		<use xlink:href="#SVGID_5_"  overflow="visible"/>
	</clipPath>
	<g clip-path="url(#SVGID_6_)">
		<defs>
			<rect id="SVGID_7_" x="678.1" y="-23.4" width="121" height="121"/>
		</defs>
		<clipPath id="SVGID_8_">
			<use xlink:href="#SVGID_7_"  overflow="visible"/>
		</clipPath>
		<g clip-path="url(#SVGID_8_)">
			
				<image overflow="visible" width="260" height="257" xlink:href="BB8777B.png"  transform="matrix(0.48 0 0 -0.48 676.8411 98.9941)">
			</image>
		</g>
	</g>
</g>
<g>
	<defs>
		<path id="SVGID_9_" d="M619.2,131.1c-7.5-5.3-21.9-18.3-21.9-25.9c0-8.9,2.5-13.3,16-23.8C627,70.7,636.8,55.6,636.8,38
			c0-20.9-9.3-41.3-26.8-48h26.4l18.6-13.4c0,0-62.3,0-83.1,0c-37.3,0-72.3,28.2-72.3,60.9c0,33.4,25.4,60.4,63.3,60.4
			c2.6,0,5.2-0.1,7.7-0.2c-2.5,4.7-4.2,10-4.2,15.5c0,9.3,5,16.8,11.3,23c-4.8,0-9.4,0.1-14.4,0.1c-46.2,0-81.7,29.4-81.7,59.9
			c0,30,38.9,48.8,85.1,48.8c52.6,0,81.7-29.9,81.7-59.9C648.3,161,641.2,146.6,619.2,131.1L619.2,131.1z M574.8,89.4L574.8,89.4
			c-21.4-0.6-41.8-24-45.5-52.1c-3.7-28.1,10.7-49.6,32.1-49c21.4,0.6,41.8,23.2,45.5,51.3C610.6,67.8,596.2,90.1,574.8,89.4
			L574.8,89.4z M566.4,231.7L566.4,231.7c-31.9,0-54.9-20.2-54.9-44.4c0-23.8,28.6-43.6,60.5-43.2c7.4,0.1,14.4,1.3,20.7,3.3
			c17.3,12,29.7,18.8,33.2,32.6c0.7,2.8,1,5.6,1,8.6C626.9,212.7,611.3,231.7,566.4,231.7L566.4,231.7z"/>
	</defs>
	<clipPath id="SVGID_10_">
		<use xlink:href="#SVGID_9_"  overflow="visible"/>
	</clipPath>
	<g clip-path="url(#SVGID_10_)">
		<defs>
			<rect id="SVGID_11_" x="481.5" y="-23.4" width="173.4" height="268.4"/>
		</defs>
		<clipPath id="SVGID_12_">
			<use xlink:href="#SVGID_11_"  overflow="visible"/>
		</clipPath>
		<g transform="matrix(1 0 0 1 0 -1.525879e-005)" clip-path="url(#SVGID_12_)">
			
				<image overflow="visible" width="368" height="563" xlink:href="BB87779.png"  transform="matrix(0.48 0 0 -0.48 480.2244 246.2681)">
			</image>
		</g>
	</g>
</g>
<polygon points="-1102.3,-101.5 -1102.3,313.5 -687.3,313.5 -687.3,-101.5 -1102.3,-101.5 "/>
<path fill-rule="evenodd" clip-rule="evenodd" fill="#FFFFFF" d="M-978.2-6.7h98.5c32.4,0,60,15.9,60,48c0,26.8-9.7,37.2-29.7,49
	c1.7,1.4,13.1,4.8,17,6.7c6.1,3,9.8,6.1,13.8,10.2c11.3,11.5,13.4,22,13.4,40.1c0,41.9-40.5,62.9-79.5,62.9h-93.9L-978.2-6.7
	L-978.2-6.7z M-924.7,50.2l0,28.2c25.4,0,49.2,3.3,49.2-24.2c0-25.5-27-21.3-49.2-21.3L-924.7,50.2L-924.7,50.2z M-924.7,170.2
	c27.8,0,62.1,4.6,62.7-27c0.6-32.9-35.3-27-62.7-27L-924.7,170.2L-924.7,170.2z"/>
<polygon points="941.8,2453.6 941.8,2868.6 1356.8,2868.6 1356.8,2453.6 941.8,2453.6 "/>
<path fill="#FFFFFF" d="M1146.6,2616.5l70.1,70.1c5.6,5.6,5.6,14.7,0,20.3l-70.1,70.1c-5.6,5.6-14.7,5.6-20.3,0l-70.1-70.1
	c-5.6-5.6-5.6-14.7,0-20.3l70.1-70.1C1131.9,2610.9,1141,2610.9,1146.6,2616.5L1146.6,2616.5z"/>
<path d="M1243.4,2541.4l-104.2,144.9c-3.7,5.1-7,0.3-7,0.3l-11.2-14.8c5.6-16.4,3.5-35.2-7.3-50.4c-17.9-25-52.6-30.8-77.5-12.9
	c-25,17.8-30.8,52.6-12.9,77.5c14.3,20,39.3,27.6,61.6,20.8l47.6,39c0,0,2.9,2.7,6.1,0.1l146.7-123.6v-80.9L1243.4,2541.4
	L1243.4,2541.4z"/>
<path fill="#FFFFFF" d="M1252.7,2540.8l-113.6,156c-3.2,3.6-6.1,1.7-7.2,0.4c-0.4-0.5-8.1-10.5-18.1-23.6c7.3-16.8,5-37.1-7.7-51.9
	c-17.7-20.7-48.9-23.2-69.6-5.4c-20.7,17.7-23.2,48.9-5.4,69.6c13.9,16.3,36.2,21.3,55.1,14.1l46.5,37.4c0,0,2.5,2.4,5.4,0.1
	l147.8-124.7v-71.9H1252.7L1252.7,2540.8z"/>
<polygon points="-1102.3,1942.5 -1102.3,2357.5 -687.3,2357.5 -687.3,1942.5 -1102.3,1942.5 "/>
<path fill-rule="evenodd" clip-rule="evenodd" fill="#FFFFFF" d="M-738,2150c0,40.8-33,73.8-73.8,73.8c-40.8,0-73.8-33-73.8-73.8
	c0-40.8,33-73.8,73.8-73.8C-771,2076.3-738,2109.3-738,2150L-738,2150z M-904,2150c0,40.8-33,73.8-73.8,73.8
	c-40.8,0-73.8-33-73.8-73.8c0-40.8,33-73.8,73.8-73.8C-937,2076.3-904,2109.3-904,2150L-904,2150z M-917.9,2150
	c0,33.1-26.8,59.9-59.9,59.9c-33.1,0-59.9-26.8-59.9-59.9c0-33.1,26.8-59.9,59.9-59.9C-944.7,2090.1-917.9,2117-917.9,2150
	L-917.9,2150z"/>
<polygon points="430.8,2453.6 430.8,2868.6 845.8,2868.6 845.8,2453.6 430.8,2453.6 "/>
<path fill-rule="evenodd" clip-rule="evenodd" fill="#FFFFFF" d="M594.4,2540.8h53.1c19.6,2.3,48.1,19.1,58.7,41.5
	c2.9,6.3,4.4,7.2,6.8,25.8c1.3,9.6,1.9,16.6,6.2,20.6c6,5.5,28.4,1.8,32.8,5.2l3.4,2.7l2,4.2l0.7,3.4l-0.5,61.4
	c-0.2,41.7-34.2,75.9-76,75.9h-87.3c-41.8,0-76-34.2-76-75.9v-88.7C518.4,2575,552.6,2540.8,594.4,2540.8L594.4,2540.8z
	 M595.4,2689.9H681c8,0,14.5,6.5,14.5,14.5c0,7.9-6.5,14.5-14.5,14.5h-85.6c-8,0-14.5-6.6-14.5-14.5
	C580.8,2696.4,587.3,2689.9,595.4,2689.9L595.4,2689.9z M595.4,2602.9h42.1c8,0,14.5,6.5,14.5,14.5c0,8-6.5,14.5-14.5,14.5h-42.1
	c-8,0-14.5-6.6-14.5-14.5C580.8,2609.4,587.3,2602.9,595.4,2602.9L595.4,2602.9z"/>
<polygon points="-80.2,2453.6 -80.2,2868.6 334.8,2868.6 334.8,2453.6 -80.2,2453.6 "/>
<path fill-rule="evenodd" clip-rule="evenodd" fill="#FFFFFF" d="M127.3,2523.9c-75.8,0-137.2,61.4-137.2,137.2
	c0,56.2,33.8,104.4,82.1,125.7c-0.4-9.6-0.1-21.1,2.4-31.5c2.6-11.1,17.7-74.8,17.7-74.8s-4.4-8.8-4.4-21.7
	c0-20.3,11.8-35.5,26.5-35.5c12.5,0,18.5,9.4,18.5,20.6c0,12.5-8,31.3-12.1,48.7c-3.4,14.6,7.3,26.4,21.7,26.4
	c26,0,43.5-33.4,43.5-72.9c0-30.1-20.3-52.6-57.1-52.6c-41.6,0-67.5,31-67.5,65.7c0,12,3.5,20.4,9,26.9c2.5,3,2.9,4.2,2,7.6
	c-0.7,2.5-2.2,8.6-2.8,11c-0.9,3.5-3.7,4.7-6.9,3.4c-19.2-7.8-28.1-28.8-28.1-52.4c0-39,32.9-85.7,98.1-85.7
	c52.4,0,86.9,37.9,86.9,78.6c0,53.8-29.9,94-74,94c-14.8,0-28.7-8-33.5-17.1c0,0-8,31.6-9.7,37.7c-2.9,10.6-8.6,21.1-13.8,29.4
	c12.3,3.6,25.4,5.6,38.9,5.6c75.8,0,137.2-61.4,137.2-137.2C264.5,2585.3,203,2523.9,127.3,2523.9L127.3,2523.9z"/>
<polygon points="-591.3,2453.6 -591.3,2868.6 -176.3,2868.6 -176.3,2453.6 -591.3,2453.6 "/>
<path fill-rule="evenodd" clip-rule="evenodd" fill="#FFFFFF" d="M-510.4,2582.6c112.8,0,204.6,92.3,204.6,205.7h48.8
	c0-140.3-113.7-254.5-253.4-254.5V2582.6L-510.4,2582.6z M-442.9,2754.2c0,18.7-15.1,33.8-33.8,33.8c-18.7,0-33.8-15.1-33.8-33.8
	c0-18.7,15.1-33.8,33.8-33.8C-458.1,2720.5-442.9,2735.6-442.9,2754.2L-442.9,2754.2z M-510.5,2669.1c31.7,0,61.4,12.4,83.8,34.9
	c22.4,22.5,34.7,52.5,34.7,84.4h48.8c0-92.6-75.1-168-167.3-168V2669.1L-510.5,2669.1z"/>
<polygon points="-1102.3,2453.6 -1102.3,2868.6 -687.3,2868.6 -687.3,2453.6 -1102.3,2453.6 "/>
<path fill-rule="evenodd" clip-rule="evenodd" fill="#FFFFFF" d="M-951.2,2741.7c0.1,13.8,3,27.1,12,37.1c1.2,1.3,2.2,2,3.3,3.1
	c8.5,8.9,21,15.8,36.6,19.5c16,3.8,35.3,3.7,51.4,1c11.9-2,32.8-8.5,41.3-13.9l0-44.8c-4.3,1-23.1,16.2-48.5,13.4
	c-20.2-2.2-27.2-15.6-28-34.3c-0.8-6.5-0.8-86.3-0.7-87.6l67.7,0l0-44.8l-68-0.2l-0.3-72.3l-32.8,0c-4.9,0-7.2-1.4-8,2.6
	c-2.8,13.6-3.6,22.5-9.7,34.2c-9.6,18.3-27.6,35.2-48.1,39.8v40.8l31.7,0.3L-951.2,2741.7L-951.2,2741.7z"/>
<polygon points="-1102.3,2964.6 -1102.3,3379.6 -687.3,3379.6 -687.3,2964.6 -1102.3,2964.6 "/>
<path fill-rule="evenodd" clip-rule="evenodd" fill="#FFFFFF" d="M-949.8,3195.1c8.4,0,13.4-0.1,21.1,3.6c2.5,1.2,3.9,2.1,6,3.5
	c28.4,19.4,19.8,70.7-25.2,70.7c-2.6,0-8.3-1.3-10.5-2.1c-3.3-1.2-6-2.4-8.5-4.2c-3.6-2.6-10.8-8.8-12-13.3c12,2.8,31,19.5,51.7,0.5
	c11.3-10.3,13-29.6,3.2-41.5c-7.1-8.5-10.8-9.5-21.2-13.6c-2.4-1-4-1.8-6.5-2.3C-950.9,3195.3-951.6,3195.1-949.8,3195.1
	L-949.8,3195.1z M-1031.7,3229.2v-60.9c0.2-3,1.1-3.7,3.4-3l10.5,4.2c12.8,5.1,24.7,9.9,37.5,15c5.1,2.1,6.5,3.5,9.5,2.2
	c13.7-6.2,16.5-6.5,31.2-6.2c1.9-3.6,4.2-6.2,6.3-9.5l25.5-36.5c2-2.7,12-17,12.3-18.1c0.3-1.4,0.4-5.7,0.6-7
	c3.1-20.6,9.2-31.2,23.4-45.5c4.2-4.2,12.9-9.6,18.7-12.3c11.7-5.5,20.6-5.9,33.3-5.9c13.9,0,33.6,8.2,42.5,16.9l8.5,8.5
	c1.3,1.4,2.4,3,3.6,4.6c7.7,11.2,12.1,24,13,36.9v10.1c-0.8,11.6-4.5,23-11.1,33.2c-8.9,13.7-21.6,23.9-37.2,29.2
	c-15,5.1-20.2,1.7-27,6.6l-57.7,42.2c-8.4,6.4-6.8,4.1-7.6,9.5c-7,47.9-76.7,60.1-99.5,17.1c-5.1-9.6-4.3-14.2-7.6-15.8l-29.7-11.9
	C-1030.5,3232.4-1031.6,3231.4-1031.7,3229.2L-1031.7,3229.2z M-861.9,3115.4c0,9.2,1.8,16.5,6.7,23.7c14.5,21.2,45.9,22.2,60.9,3.4
	c0.8-1,1.3-1.4,2.1-2.3c1.5-1.9,2.3-3.7,3.5-6c13.3-26.5-7.9-55.5-32.7-55.5c-12.6,0-21.4,3.3-29.3,11.2
	C-855.9,3095.2-861.9,3105.1-861.9,3115.4L-861.9,3115.4z M-871.4,3117.3c0-12,5.3-24.7,13.8-33.1c21.3-21.3,54.7-17.6,70.3,2.1
	c8.1,10.3,11.5,18.1,11.5,32.8c0,24.7-23.6,47.5-48.5,45.9c-20.7-1.4-34.1-10.5-42.6-28.2C-869.4,3131.7-871.4,3123.2-871.4,3117.3
	L-871.4,3117.3z"/>
<polygon points="-591.3,2964.6 -591.3,3379.6 -176.3,3379.6 -176.3,2964.6 -591.3,2964.6 "/>
<path fill-rule="evenodd" clip-rule="evenodd" fill="#FFFFFF" d="M-397.4,3173.9c0-4.3-0.8-9-3.3-12.5c-5-7.2-15.7-9.5-23.1-4.9
	c-3.8,2.3-5.9,6.3-7,10.4c-2.3,8.2-1.3,17.5,0.4,25.7c0.5,2.6,1.1,5.2,1.8,7.8c0.3,0.9,0.4,2.3,1,3.1c1.1,1.4,3.6,1.7,5.2,1.5
	c4.7-0.8,3.6-8.6,3.4-11.9c-0.4-7.8-2.7-15.3-0.4-23c0.9-3.3,2.8-6.9,6.1-8.4c3-1.3,6,0.3,7.2,3.2c1.9,4.7,1.4,10.2,2.6,15.1
	c0.4,1.7,0.9,3.3,1.6,4.9c0.2,0.4,0.5,1.4,1.1,1.3c1.5-0.1,3.7-2.7,4.9-3.6c3.7-3.1,7.5-6.4,11.8-8.6c2-1.1,5.3-2.8,7.4-1
	c0.5,0.5,0.9,1,1.3,1.6c2.4,3.8,0,6.7-1.6,10.3c-2,4.7-4.1,9.3-7.1,13.4c-2.5,3.6-6,6.7-8,10.6c-1.3,2.5-2,5.3-1.5,8.1
	c0.4,2.3,2.2,3.7,4.6,3.1c1.8-0.4,2.9-1.9,3.9-3.3c1.8-2.5,3.4-5,5.2-7.5c3.4-4.8,7.5-9.3,10.4-14.5c3.5-6.2,5.1-13.3,5.1-20.4
	c0-5.8-2.1-14.7-8.9-15.9c-1.3-0.2-2.7-0.1-4,0.1c-1.6,0.3-3.1,0.8-4.6,1.5c-3.8,1.9-7.2,4.6-10,7.8
	C-393.7,3169.8-395.3,3172.3-397.4,3173.9L-397.4,3173.9L-397.4,3173.9z M-454.8,3283.9c-2.1,0.2-3.7,1.3-5.1,2.9
	c-1,1.1-1.9,2-2.4,3.4c-3,7.4,5,14.5,10.6,18c6.2,3.9,12.9,6.8,19.8,9.3c15.5,5.5,33.7,9,49.7,4.1c4.8-1.5,9.5-4.1,13-7.8
	c2-2,3.3-5.1-0.3-6.4c-2.1-0.8-4.7,1.2-6.6,2c-4.6,1.8-9.3,3.2-14.2,3.8c-6.4,0.8-12.2-0.6-18.4-2.2c-5.3-1.3-10.7-2.7-15.8-4.6
	c-4.4-1.6-8.7-3.6-12.5-6.3c-1.1-0.8-2.5-1.5-3.5-2.6c-3.1-3.4-5.4-7.5-8.7-10.8C-450.6,3285.4-452.6,3283.6-454.8,3283.9
	L-454.8,3283.9L-454.8,3283.9z M-457.7,3256.3c-1.5,0.2-3.2,0.1-4.4,1.1c-2.6,1.9,0.3,5.8,1.7,7.6c4,5.1,9.3,9.3,14.6,13.1
	c14.7,10.4,31.4,16.4,49.3,17.6c5.2,0.4,10.4,0,15.5-0.9c1.9-0.3,4.2-0.5,5.9-1.3c4.9-2.3,3.5-11.5-0.9-13.5
	c-1.9-0.9-4.9,0.3-6.9,0.6c-4.7,0.7-9.4,0.7-14.2,0.6c-12.4-0.3-25.6-4.1-36.5-10.2c-4.3-2.4-8.2-5.3-11.8-8.5
	c-2.2-2-4.5-5.2-7.4-6.1C-454.2,3255.9-456.3,3256.1-457.7,3256.3L-457.7,3256.3L-457.7,3256.3z M-450.2,3223.5
	c-5.8,0.8-7.5,5.5-6.4,10.7c1.4,6.7,6.6,11.8,11.9,15.8c13.4,10.3,30.7,15.9,47.5,15.2c6.6-0.3,13.7-1.4,19.8-4.2
	c3.2-1.5,6.6-6.9,2.2-9.2c-0.6-0.3-1.4-0.5-2.1-0.6c-1.9-0.3-4.1,0.5-5.9,1c-3.2,0.9-6.4,1.9-9.7,2.4c-9.9,1.6-20.6-0.7-28.8-6.5
	c-6.6-4.7-12-11-17-17.3C-441.8,3227-444.6,3222.7-450.2,3223.5L-450.2,3223.5L-450.2,3223.5z M-403.7,3030.5
	c-5.3,0.7-10.7,0.6-16.1,1.5c-10.2,1.6-20.1,4.8-29.7,8.6c-3.5,1.4-6.9,3-10.3,4.6c-1.3,0.6-3.2,1.1-4.2,2.1
	c-0.5,0.5-0.5,1.7-0.5,2.4c-0.2,1.9-0.4,3.8-0.6,5.8c-0.7,7.4-1.2,15-0.2,22.4c0.3,2.4,1.1,6.7,4,7.2c4.5,0.7,8-4.9,10.2-7.9
	c5.2-7.2,11.1-13.8,19.6-17.1c10-3.8,21.4-4.7,32-5.4c29.7-2,62.1,3.4,84,25.2c3.1,3.1,6.1,6.4,8.6,10c9.8,14.2,15,30.3,17.5,47.2
	c1.2,7.9,2,16,0.2,23.9c-3.1,13.7-11.4,25.7-20.9,35.9c-6.5,7-13.8,13.3-21.4,19c-4.2,3.2-9,5.9-13,9.4c-4.6,4-8.4,9.1-11.3,14.4
	c-7.8,14.4-9.9,31.8-7.6,48c0.5,3.3,0.9,6.6,1.6,9.9c0.2,1,0.3,2.7,0.9,3.4c1.2,1.5,4.4,2.3,6.2,2.4c1.9,0.1,3.1-1.4,3.6-3
	c0.8-2.9,0.3-6.1-0.1-9c-0.9-6-1.8-12-1.5-18c0.5-11.2,4.8-21.6,12.5-29.7c7.9-8.2,18.5-13,27.4-19.9c18-13.9,34.2-32.6,40.4-55
	c2.2-8,3-16.4,1.9-24.6c-1.3-10.4-5.1-20.8-8.7-30.5c-10.9-29.8-29.6-58.2-59.3-71.8c-11.8-5.4-24.1-7.9-36.9-9.7
	c-6-0.8-12-1.3-18-1.6C-396.7,3030.4-400.4,3030-403.7,3030.5L-403.7,3030.5L-403.7,3030.5z M-397.4,3173.9L-397.4,3173.9
	L-397.4,3173.9L-397.4,3173.9z M-454.8,3283.9L-454.8,3283.9L-454.8,3283.9L-454.8,3283.9z M-457.7,3256.3L-457.7,3256.3
	L-457.7,3256.3L-457.7,3256.3z M-450.2,3223.5L-450.2,3223.5L-450.2,3223.5L-450.2,3223.5z M-403.7,3030.5L-403.7,3030.5
	L-403.7,3030.5L-403.7,3030.5z"/>
<path d="M8.8,5197.6v-90h11v32.3c5.2-6,11.7-9,19.5-9c4.8,0,9,1,12.6,2.9c3.6,1.9,6.1,4.5,7.7,7.9c1.5,3.4,2.3,8.2,2.3,14.6v41.3
	H50.9v-41.3c0-5.5-1.2-9.5-3.6-12.1c-2.4-2.5-5.8-3.8-10.2-3.8c-3.3,0-6.4,0.9-9.2,2.6c-2.9,1.7-4.9,4-6.2,6.9
	c-1.2,2.9-1.8,6.9-1.8,12v35.7H8.8L8.8,5197.6z M121.3,5189.5c-4.1,3.5-8,5.9-11.8,7.4c-3.8,1.4-7.9,2.1-12.2,2.1
	c-7.2,0-12.7-1.7-16.5-5.2c-3.8-3.5-5.8-8-5.8-13.4c0-3.2,0.7-6.1,2.2-8.8c1.4-2.6,3.4-4.8,5.7-6.4c2.4-1.6,5-2.8,8-3.6
	c2.2-0.6,5.4-1.1,9.8-1.7c8.9-1.1,15.5-2.3,19.7-3.8c0-1.5,0.1-2.5,0.1-2.9c0-4.5-1-7.7-3.1-9.5c-2.8-2.5-7-3.8-12.6-3.8
	c-5.2,0-9,0.9-11.5,2.7c-2.5,1.8-4.3,5.1-5.5,9.7l-10.8-1.5c1-4.6,2.6-8.4,4.8-11.2c2.2-2.9,5.5-5.1,9.8-6.6s9.2-2.3,14.8-2.3
	c5.6,0,10.1,0.7,13.6,2c3.5,1.3,6,3,7.7,4.9c1.6,2,2.8,4.5,3.4,7.5c0.4,1.9,0.5,5.3,0.5,10.2v14.7c0,10.3,0.2,16.8,0.7,19.5
	c0.5,2.7,1.4,5.3,2.8,7.8h-11.5C122.4,5195.3,121.6,5192.6,121.3,5189.5L121.3,5189.5z M120.4,5164.8c-4,1.7-10,3-18,4.2
	c-4.5,0.6-7.8,1.4-9.6,2.2c-1.9,0.8-3.4,2-4.4,3.6c-1,1.6-1.6,3.3-1.6,5.2c0,3,1.1,5.4,3.4,7.4c2.2,1.9,5.5,2.9,9.8,2.9
	c4.3,0,8-0.9,11.4-2.8c3.3-1.9,5.8-4.4,7.3-7.7c1.2-2.5,1.8-6.2,1.8-11V5164.8L120.4,5164.8z M148.7,5197.6v-65.2h9.9v9.3
	c4.8-7.2,11.7-10.8,20.8-10.8c3.9,0,7.5,0.7,10.8,2.1c3.3,1.4,5.8,3.3,7.4,5.6c1.7,2.3,2.8,5,3.5,8.2c0.4,2.1,0.6,5.6,0.6,10.8v40.1
	h-11.1v-39.7c0-4.5-0.4-7.9-1.3-10.1c-0.9-2.2-2.4-4-4.6-5.3c-2.2-1.3-4.8-2-7.7-2c-4.7,0-8.8,1.5-12.2,4.5c-3.4,3-5.1,8.7-5.1,17
	v35.6H148.7L148.7,5197.6z M261,5197.6v-8.2c-4.1,6.5-10.2,9.7-18.2,9.7c-5.2,0-10-1.4-14.3-4.3c-4.4-2.9-7.7-6.9-10.1-12
	c-2.4-5.1-3.6-11-3.6-17.7c0-6.5,1.1-12.4,3.2-17.7c2.2-5.3,5.4-9.4,9.8-12.2c4.3-2.8,9.2-4.3,14.6-4.3c3.9,0,7.4,0.8,10.5,2.5
	c3.1,1.7,5.6,3.8,7.5,6.5v-32.3h11v90H261L261,5197.6z M226,5165c0,8.4,1.8,14.6,5.3,18.7c3.5,4.1,7.7,6.2,12.5,6.2
	c4.8,0,8.9-2,12.3-5.9c3.4-3.9,5.1-10,5.1-18.1c0-8.9-1.7-15.5-5.2-19.6c-3.4-4.2-7.7-6.3-12.7-6.3c-4.9,0-9,2-12.3,6
	C227.7,5150,226,5156.4,226,5165L226,5165z M284.2,5178.1l10.9-1.7c0.6,4.4,2.3,7.7,5.1,10.1c2.8,2.3,6.7,3.5,11.8,3.5
	c5.1,0,8.8-1,11.3-3.1c2.5-2.1,3.7-4.5,3.7-7.3c0-2.5-1.1-4.5-3.3-5.9c-1.5-1-5.3-2.2-11.3-3.7c-8.1-2.1-13.7-3.8-16.9-5.3
	c-3.1-1.5-5.5-3.6-7.1-6.2c-1.6-2.6-2.4-5.6-2.4-8.7c0-2.9,0.7-5.6,2-8.1c1.3-2.5,3.1-4.5,5.4-6.2c1.7-1.3,4.1-2.3,7-3.2
	c3-0.9,6.2-1.3,9.6-1.3c5.1,0,9.6,0.8,13.5,2.2c3.9,1.5,6.7,3.5,8.6,6c1.8,2.5,3.1,5.9,3.8,10.1l-10.8,1.5c-0.5-3.4-1.9-6-4.3-7.9
	c-2.3-1.9-5.7-2.8-10-2.8c-5.1,0-8.7,0.8-10.9,2.5c-2.2,1.7-3.3,3.6-3.3,5.9c0,1.4,0.5,2.7,1.4,3.9c0.9,1.2,2.3,2.2,4.2,3
	c1.1,0.4,4.4,1.3,9.8,2.8c7.8,2.1,13.3,3.8,16.4,5.1c3.1,1.3,5.5,3.3,7.3,5.8c1.8,2.5,2.6,5.7,2.6,9.5c0,3.7-1.1,7.1-3.2,10.4
	c-2.2,3.2-5.3,5.8-9.3,7.5s-8.6,2.7-13.8,2.7c-8.5,0-14.9-1.8-19.4-5.3C288.2,5190.2,285.4,5185,284.2,5178.1L284.2,5178.1z
	 M347.2,5170.5v-11.1h34v11.1H347.2L347.2,5170.5z M435.9,5173.7l10.9,1.4c-1.2,7.5-4.2,13.4-9.1,17.6c-4.9,4.2-10.9,6.4-18,6.4
	c-8.9,0-16.1-2.9-21.5-8.7c-5.4-5.8-8.2-14.2-8.2-25.1c0-7,1.2-13.2,3.5-18.5c2.3-5.3,5.9-9.2,10.7-11.9c4.8-2.6,10-4,15.6-4
	c7.1,0,12.9,1.8,17.4,5.4c4.5,3.6,7.4,8.7,8.7,15.3l-10.8,1.7c-1-4.4-2.8-7.7-5.4-9.9c-2.6-2.2-5.7-3.3-9.4-3.3
	c-5.6,0-10.1,2-13.6,6c-3.5,4-5.2,10.3-5.2,18.9c0,8.8,1.7,15.1,5.1,19.1c3.4,4,7.7,6,13.1,6c4.3,0,7.9-1.3,10.9-4
	C433.3,5183.3,435.2,5179.2,435.9,5173.7L435.9,5173.7z M456.2,5197.6v-65.2h9.9v9.9c2.5-4.6,4.9-7.7,7-9.1c2.1-1.5,4.5-2.2,7.1-2.2
	c3.7,0,7.5,1.2,11.4,3.6l-3.8,10.3c-2.7-1.6-5.4-2.4-8.1-2.4c-2.4,0-4.6,0.7-6.5,2.2c-1.9,1.5-3.3,3.5-4.1,6.1
	c-1.2,3.9-1.8,8.2-1.8,12.9v34.1H456.2L456.2,5197.6z M542.8,5176.6l11.4,1.4c-1.8,6.7-5.1,11.9-10,15.6c-4.9,3.7-11.1,5.5-18.7,5.5
	c-9.5,0-17.1-2.9-22.7-8.8c-5.6-5.9-8.4-14.1-8.4-24.7c0-11,2.8-19.5,8.5-25.6c5.7-6.1,13-9.1,22-9.1c8.7,0,15.8,3,21.4,8.9
	c5.5,5.9,8.3,14.3,8.3,25c0,0.7,0,1.7-0.1,3h-48.6c0.4,7.2,2.4,12.7,6.1,16.5c3.6,3.8,8.2,5.7,13.6,5.7c4,0,7.5-1.1,10.4-3.2
	C538.8,5184.6,541.1,5181.2,542.8,5176.6L542.8,5176.6z M506.5,5158.7h36.4c-0.5-5.5-1.9-9.6-4.2-12.3c-3.5-4.3-8.1-6.4-13.7-6.4
	c-5.1,0-9.3,1.7-12.8,5.1C508.8,5148.5,506.9,5153,506.5,5158.7L506.5,5158.7z M610.7,5189.5c-4.1,3.5-8,5.9-11.8,7.4
	c-3.8,1.4-7.9,2.1-12.2,2.1c-7.2,0-12.7-1.7-16.5-5.2c-3.8-3.5-5.8-8-5.8-13.4c0-3.2,0.7-6.1,2.2-8.8c1.4-2.6,3.4-4.8,5.7-6.4
	c2.4-1.6,5-2.8,8-3.6c2.2-0.6,5.4-1.1,9.8-1.7c8.9-1.1,15.5-2.3,19.7-3.8c0-1.5,0.1-2.5,0.1-2.9c0-4.5-1-7.7-3.1-9.5
	c-2.8-2.5-7-3.8-12.6-3.8c-5.2,0-9,0.9-11.5,2.7c-2.5,1.8-4.3,5.1-5.5,9.7l-10.8-1.5c1-4.6,2.6-8.4,4.8-11.2
	c2.2-2.9,5.5-5.1,9.8-6.6c4.3-1.5,9.2-2.3,14.8-2.3c5.6,0,10.1,0.7,13.6,2c3.5,1.3,6,3,7.7,4.9c1.6,2,2.8,4.5,3.4,7.5
	c0.4,1.9,0.5,5.3,0.5,10.2v14.7c0,10.3,0.2,16.8,0.7,19.5c0.5,2.7,1.4,5.3,2.8,7.8h-11.6C611.7,5195.3,611,5192.6,610.7,5189.5
	L610.7,5189.5z M609.7,5164.8c-4,1.7-10,3-18,4.2c-4.5,0.6-7.8,1.4-9.6,2.2c-1.9,0.8-3.4,2-4.4,3.6c-1,1.6-1.6,3.3-1.6,5.2
	c0,3,1.1,5.4,3.4,7.4c2.2,1.9,5.5,2.9,9.8,2.9c4.3,0,8-0.9,11.4-2.8c3.3-1.9,5.8-4.4,7.3-7.7c1.2-2.5,1.8-6.2,1.8-11V5164.8
	L609.7,5164.8z M662.2,5187.7l1.6,9.8c-3.1,0.6-5.9,1-8.3,1c-4,0-7.1-0.6-9.3-1.9c-2.2-1.3-3.8-2.9-4.7-5c-0.9-2.1-1.4-6.4-1.4-13
	V5141H632v-8.6h8.1v-16.2l11-6.6v22.8h11.1v8.6h-11.1v38.1c0,3.2,0.2,5.2,0.6,6.1c0.4,0.9,1,1.6,1.9,2.2c0.9,0.5,2.1,0.8,3.8,0.8
	C658.6,5188.1,660.2,5188,662.2,5187.7L662.2,5187.7z M673,5120.3v-12.7h11.1v12.7H673L673,5120.3z M673,5197.6v-65.2h11.1v65.2H673
	L673,5197.6z M719.1,5197.6l-24.8-65.2h11.7l14,39.1c1.5,4.2,2.9,8.6,4.2,13.1c1-3.4,2.3-7.6,4.1-12.4l14.5-39.8h11.4l-24.7,65.2
	H719.1L719.1,5197.6z M808.5,5176.6l11.4,1.4c-1.8,6.7-5.1,11.9-10,15.6c-4.9,3.7-11.1,5.5-18.7,5.5c-9.5,0-17.1-2.9-22.7-8.8
	c-5.6-5.9-8.4-14.1-8.4-24.7c0-11,2.8-19.5,8.5-25.6c5.7-6.1,13-9.1,22-9.1c8.7,0,15.8,3,21.4,8.9c5.5,5.9,8.3,14.3,8.3,25
	c0,0.7,0,1.7-0.1,3h-48.6c0.4,7.2,2.4,12.7,6.1,16.5c3.6,3.8,8.2,5.7,13.6,5.7c4,0,7.5-1.1,10.4-3.2
	C804.5,5184.6,806.8,5181.2,808.5,5176.6L808.5,5176.6z M772.2,5158.7h36.4c-0.5-5.5-1.9-9.6-4.2-12.3c-3.5-4.3-8.1-6.4-13.7-6.4
	c-5.1,0-9.3,1.7-12.8,5.1C774.5,5148.5,772.5,5153,772.2,5158.7L772.2,5158.7z M836.9,5197.6V5185h12.6v12.6H836.9L836.9,5197.6z
	 M911.3,5173.7l10.9,1.4c-1.2,7.5-4.2,13.4-9.1,17.6c-4.9,4.2-10.9,6.4-18,6.4c-8.9,0-16.1-2.9-21.5-8.7c-5.4-5.8-8.2-14.2-8.2-25.1
	c0-7,1.2-13.2,3.5-18.5c2.3-5.3,5.9-9.2,10.7-11.9c4.8-2.6,10-4,15.6-4c7.1,0,12.9,1.8,17.4,5.4c4.5,3.6,7.4,8.7,8.7,15.3l-10.8,1.7
	c-1-4.4-2.8-7.7-5.4-9.9c-2.6-2.2-5.7-3.3-9.4-3.3c-5.6,0-10.1,2-13.6,6c-3.5,4-5.2,10.3-5.2,18.9c0,8.8,1.7,15.1,5.1,19.1
	c3.4,4,7.7,6,13.1,6c4.3,0,7.9-1.3,10.9-4C908.6,5183.3,910.5,5179.2,911.3,5173.7L911.3,5173.7z M927.5,5165
	c0-12.1,3.4-21,10.1-26.8c5.6-4.8,12.4-7.3,20.5-7.3c9,0,16.3,2.9,22,8.8c5.7,5.9,8.5,14,8.5,24.3c0,8.4-1.3,15-3.8,19.8
	c-2.5,4.8-6.2,8.6-11,11.2c-4.8,2.7-10.1,4-15.8,4c-9.1,0-16.5-2.9-22.1-8.8C930.3,5184.4,927.5,5176,927.5,5165L927.5,5165z
	 M938.8,5165c0,8.4,1.8,14.6,5.5,18.8c3.6,4.2,8.2,6.2,13.8,6.2c5.5,0,10.1-2.1,13.7-6.3c3.6-4.2,5.5-10.5,5.5-19.1
	c0-8.1-1.8-14.2-5.5-18.3c-3.7-4.2-8.2-6.2-13.7-6.2c-5.5,0-10.1,2.1-13.8,6.2C940.7,5150.4,938.8,5156.6,938.8,5165L938.8,5165z
	 M1001.6,5197.6v-65.2h9.9v9.1c2.1-3.2,4.8-5.8,8.2-7.7c3.4-1.9,7.3-2.9,11.6-2.9c4.8,0,8.8,1,11.9,3c3.1,2,5.3,4.8,6.5,8.4
	c5.2-7.6,11.9-11.4,20.1-11.4c6.5,0,11.4,1.8,14.9,5.4s5.2,9.1,5.2,16.5v44.8h-11v-41.1c0-4.4-0.4-7.6-1.1-9.6
	c-0.7-1.9-2-3.5-3.9-4.7c-1.9-1.2-4.1-1.8-6.6-1.8c-4.6,0-8.4,1.5-11.4,4.6c-3,3-4.5,7.9-4.5,14.6v37.9h-11v-42.4
	c0-4.9-0.9-8.6-2.7-11.1c-1.8-2.5-4.7-3.7-8.8-3.7c-3.1,0-6,0.8-8.6,2.5c-2.6,1.6-4.6,4-5.7,7.2c-1.2,3.2-1.8,7.7-1.8,13.6v33.8
	H1001.6L1001.6,5197.6z M1098,5199.1l26.1-93.1h8.8l-26,93.1H1098L1098,5199.1z M1141.3,5120.3v-12.7h11.1v12.7H1141.3
	L1141.3,5120.3z M1141.3,5197.6v-65.2h11.1v65.2H1141.3L1141.3,5197.6z M1211.8,5173.7l10.9,1.4c-1.2,7.5-4.2,13.4-9.1,17.6
	c-4.9,4.2-10.9,6.4-18,6.4c-8.9,0-16.1-2.9-21.5-8.7c-5.4-5.8-8.2-14.2-8.2-25.1c0-7,1.2-13.2,3.5-18.5c2.3-5.3,5.9-9.2,10.7-11.9
	c4.8-2.6,10-4,15.6-4c7.1,0,12.9,1.8,17.4,5.4c4.5,3.6,7.4,8.7,8.7,15.3l-10.8,1.7c-1-4.4-2.8-7.7-5.4-9.9c-2.6-2.2-5.7-3.3-9.4-3.3
	c-5.6,0-10.1,2-13.6,6c-3.5,4-5.2,10.3-5.2,18.9c0,8.8,1.7,15.1,5.1,19.1c3.4,4,7.7,6,13.1,6c4.3,0,7.9-1.3,10.9-4
	C1209.1,5183.3,1211,5179.2,1211.8,5173.7L1211.8,5173.7z M1228,5165c0-12.1,3.4-21,10.1-26.8c5.6-4.8,12.4-7.3,20.5-7.3
	c9,0,16.3,2.9,22,8.8c5.7,5.9,8.5,14,8.5,24.3c0,8.4-1.3,15-3.8,19.8c-2.5,4.8-6.2,8.6-11,11.2c-4.8,2.7-10.1,4-15.8,4
	c-9.1,0-16.5-2.9-22.1-8.8C1230.8,5184.4,1228,5176,1228,5165L1228,5165z M1239.3,5165c0,8.4,1.8,14.6,5.5,18.8
	c3.6,4.2,8.2,6.2,13.8,6.2c5.5,0,10.1-2.1,13.7-6.3c3.6-4.2,5.4-10.5,5.4-19.1c0-8.1-1.8-14.2-5.5-18.3c-3.7-4.2-8.2-6.2-13.7-6.2
	c-5.5,0-10.1,2.1-13.8,6.2C1241.1,5150.4,1239.3,5156.6,1239.3,5165L1239.3,5165z M1302,5197.6v-65.2h9.9v9.3
	c4.8-7.2,11.7-10.8,20.8-10.8c3.9,0,7.5,0.7,10.8,2.1c3.3,1.4,5.8,3.3,7.4,5.6c1.7,2.3,2.8,5,3.5,8.2c0.4,2.1,0.6,5.6,0.6,10.8v40.1
	H1344v-39.7c0-4.5-0.4-7.9-1.3-10.1c-0.9-2.2-2.4-4-4.6-5.3c-2.2-1.3-4.8-2-7.7-2c-4.7,0-8.8,1.5-12.2,4.5c-3.4,3-5.1,8.7-5.1,17
	v35.6H1302L1302,5197.6z"/>
<polygon points="-80.2,2964.6 -80.2,3379.6 334.8,3379.6 334.8,2964.6 -80.2,2964.6 "/>
<path fill-rule="evenodd" clip-rule="evenodd" fill="#FFFFFF" d="M25.3,3034.9h203.9c19.4,0,35.2,15.8,35.2,35.2v203.9
	c0,19.4-15.8,35.2-35.2,35.2H25.3c-19.4,0-35.2-15.8-35.2-35.2v-203.9C-9.9,3050.7,5.9,3034.9,25.3,3034.9L25.3,3034.9z
	 M189.9,3065.4L189.9,3065.4c-6.8,0-12.4,5.6-12.4,12.4v29.6c0,6.8,5.6,12.4,12.4,12.4h31c6.8,0,12.4-5.6,12.4-12.4v-29.6
	c0-6.8-5.6-12.4-12.4-12.4H189.9L189.9,3065.4z M233.4,3150.9L233.4,3150.9h-24.2c2.3,7.5,3.5,15.4,3.5,23.5
	c0,45.6-38.2,82.6-85.3,82.6c-47.1,0-85.3-37-85.3-82.6c0-8.2,1.2-16.1,3.5-23.5H20.6v115.9c0,6,4.9,10.9,10.9,10.9h191.1
	c6,0,10.9-4.9,10.9-10.9V3150.9L233.4,3150.9z M127.5,3118.1L127.5,3118.1c-30.4,0-55.1,23.9-55.1,53.4c0,29.5,24.7,53.4,55.1,53.4
	c30.4,0,55.1-23.9,55.1-53.4C182.6,3142,158,3118.1,127.5,3118.1L127.5,3118.1z"/>
<polygon points="430.8,2964.6 430.8,3379.6 845.8,3379.6 845.8,2964.6 430.8,2964.6 "/>
<path fill-rule="evenodd" clip-rule="evenodd" fill="#FFFFFF" d="M743.4,3250.9c-54.4,40.3-156.4,40.3-209.9,0
	c-27.2-20.2-40.8-46.5-40.8-79c0-32,13.6-58,40.8-78.2c26.8-20.6,61.9-30.7,104.9-30.7c42.6,0,77.7,10.1,104.9,30.7
	c26.8,20.2,40.4,46.1,40.4,78.2C783.8,3204.4,770.2,3230.7,743.4,3250.9L743.4,3250.9z M723.2,3145.1l-20.6,4.4
	c-3.1,0.9-11.4,7-25.9,18.9c-15.4,12.3-23.3,20.2-24.6,24.1l-0.9,11l-0.4,6.6l1.8,16.7l27.2,0.4l-0.4,8.3H635l-39.5,0.4l1.3-7.9
	l12.7-0.4c6.6-0.4,10.5-1.3,11.9-2.6c0.9-0.9,1.3-6.1,1.3-15.4v-5.7l-0.4-11.4c-0.9-2.6-7.9-12.3-21.5-29
	c-14-17.1-23.3-27.2-27.7-30.7l-25.5-3.5v-7.5c1.3-0.9,15.4-0.9,41.3-0.4c18-0.4,32.9-0.4,44.8,0.4l-0.9,6.2l-26.8,2.6
	c8.3,12.3,21.1,29.4,38.2,50.9c22.4-17.1,34.2-28.1,34.7-32.9l-22.8-3.5l-1.8-7.9h38.2l36,0.4L723.2,3145.1L723.2,3145.1z"/>
<polygon points="941.8,2964.6 941.8,3379.6 1356.8,3379.6 1356.8,2964.6 941.8,2964.6 "/>
<path fill="#FFFFFF" d="M1088.6,3226.5c3.7,0,7.2-0.3,10.5-1.1c3.3-0.7,6.3-1.9,8.8-3.6c2.5-1.6,4.6-3.9,6.1-6.8
	c1.5-2.8,2.2-6.5,2.2-11c0-8.7-2.5-15-7.4-18.7c-4.9-3.7-11.4-5.6-19.5-5.6h-40.6v46.7H1088.6L1088.6,3226.5z M1086.5,3154.2
	c6.6,0,12.1-1.6,16.4-4.8c4.3-3.1,6.4-8.3,6.4-15.4c0-4-0.7-7.2-2.1-9.7c-1.4-2.5-3.4-4.5-5.8-5.9c-2.4-1.4-5.1-2.4-8.2-3
	c-3.1-0.6-6.3-0.8-9.6-0.8h-35v39.7H1086.5L1086.5,3154.2z M1091.4,3085.6c8.1,0,15.4,0.7,22.1,2.2c6.7,1.4,12.3,3.8,17.1,7
	c4.7,3.2,8.4,7.5,11.1,12.9c2.6,5.3,3.9,12,3.9,19.9c0,8.5-1.9,15.7-5.8,21.4c-3.9,5.7-9.6,10.4-17.3,14c10.4,3,18.2,8.3,23.3,15.8
	c5.2,7.6,7.7,16.6,7.7,27.2c0,8.6-1.6,16-4.9,22.2c-3.3,6.3-7.8,11.4-13.4,15.4c-5.6,4-12.1,6.9-19.3,8.8
	c-7.2,1.9-14.6,2.9-22.2,2.9h-82.3v-169.7H1091.4L1091.4,3085.6z"/>
<path fill="#FFFFFF" d="M1245.5,3161.3c-4-4.4-10.8-6.8-19.1-6.8c-5.4,0-9.9,0.9-13.4,2.8c-3.5,1.8-6.4,4.1-8.5,6.8
	c-2.2,2.7-3.7,5.6-4.5,8.7c-0.9,3-1.4,5.7-1.5,8.1h54.9C1252.5,3172.2,1249.5,3165.8,1245.5,3161.3L1245.5,3161.3z M1206.7,3225.9
	c5.1,4.9,12.4,7.4,21.8,7.4c6.8,0,12.7-1.7,17.6-5.2c4.9-3.4,7.9-7.1,9-10.9h29.7c-4.8,14.8-12,25.4-21.9,31.7
	c-9.8,6.4-21.7,9.6-35.6,9.6c-9.7,0-18.4-1.6-26.2-4.7c-7.8-3.1-14.3-7.5-19.8-13.2c-5.4-5.7-9.5-12.5-12.5-20.5
	c-2.9-7.9-4.4-16.7-4.4-26.2c0-9.2,1.5-17.8,4.5-25.7c3.1-8,7.3-14.8,12.9-20.6c5.6-5.8,12.2-10.4,19.9-13.7c7.7-3.3,16.2-5,25.6-5
	c10.4,0,19.5,2,27.3,6.1c7.8,4,14.2,9.5,19.2,16.3c5,6.8,8.6,14.6,10.8,23.3c2.2,8.7,3,17.8,2.3,27.4h-88.7
	C1198.4,3211.8,1201.7,3221,1206.7,3225.9L1206.7,3225.9z"/>
<polygon fill="#FFFFFF" points="1191.5,3113.8 1260.3,3113.8 1260.3,3097 1191.5,3097 1191.5,3113.8 "/>
<polygon points="-1102.3,3475.6 -1102.3,3890.6 -687.3,3890.6 -687.3,3475.6 -1102.3,3475.6 "/>
<polygon fill="#FFFFFF" points="-963.9,3805.3 -1002.6,3560.9 -968.4,3560.9 -943.9,3728.8 -913.8,3560.9 -874.2,3560.9 
	-845.5,3731.6 -820.4,3560.9 -787,3560.9 -826.6,3805.3 -862.2,3805.3 -894.7,3622.6 -927.4,3805.3 -963.9,3805.3 "/>
<polygon points="-80.2,3475.6 -80.2,3890.6 334.8,3890.6 334.8,3475.6 -80.2,3475.6 "/>
<polygon fill-rule="evenodd" clip-rule="evenodd" fill="#FFFFFF" points="273.7,3689.7 256.1,3689.7 256.1,3715.9 282.3,3715.9 
	282.3,3689.7 273.7,3689.7 "/>
<path fill-rule="evenodd" clip-rule="evenodd" fill="#FFFFFF" d="M103.1,3725.9c0,0-6.1-20.4-8.8-29.5h9.2v-67.1H-22.4V3737H3.8
	v-40.7h60.3l10.3,34.5c0,0,1.1,3.8,1.1,3.8l0.7,2.4h6.4l12.1,0l7.1,0h4.5l-1.3-4.3L103.1,3725.9L103.1,3725.9z M77.2,3670.1H3.8
	v-14.6h73.3V3670.1L77.2,3670.1z"/>
<polygon fill-rule="evenodd" clip-rule="evenodd" fill="#FFFFFF" points="234,3629.2 116.8,3629.2 116.8,3737 242.7,3737 
	242.7,3710.7 143.1,3710.7 143.1,3696.3 233.6,3696.3 233.6,3670.1 143.1,3670.1 143.1,3655.5 242.7,3655.5 242.7,3629.2 
	234,3629.2 "/>
<polygon fill-rule="evenodd" clip-rule="evenodd" fill="#FFFFFF" points="273.7,3650.5 256.1,3650.5 256.1,3676.7 282.3,3676.7 
	282.3,3650.5 273.7,3650.5 "/>
<polygon points="430.8,3475.6 430.8,3890.6 845.8,3890.6 845.8,3475.6 430.8,3475.6 "/>
<path fill="#FFFFFF" d="M761.8,3545.9H514.8c-7.6,0-13.7,6.1-13.7,13.7v246.9c0,7.6,6.1,13.7,13.7,13.7h246.9
	c7.6,0,13.7-6.1,13.7-13.7v-246.9C775.5,3552.1,769.3,3545.9,761.8,3545.9L761.8,3545.9z M766.6,3805.1L766.6,3805.1
	c0,3.5-2.9,6.4-6.4,6.4H516.3c-3.5,0-6.4-2.9-6.4-6.4v-25.1l141-38.5l-42.2-87.1c16-3.5,105.7-20.3,139.5,28.8l-57.7,14.5
	l-18.2-38.8h-50.2l39.6,79.6l104.9-28.7V3805.1L766.6,3805.1z M568.6,3667.3L568.6,3667.3l24.5,53.7l-54.5,13
	C527,3706.2,545,3679.4,568.6,3667.3L568.6,3667.3z M766.6,3642.8L766.6,3642.8c-71.2-23.4-130.3-20-169.3-11.9l-12.3-25.3h-44.7
	l17,37.1c-0.1,0-0.2,0.1-0.3,0.1c-25.6,10.5-47.3,28.6-47.3,28.6v-110.1c0-3.5,2.9-6.4,6.4-6.4h243.9c3.5,0,6.4,2.9,6.4,6.4V3642.8
	L766.6,3642.8z"/>
<polygon points="-591.3,3475.6 -591.3,3890.6 -176.3,3890.6 -176.3,3475.6 -591.3,3475.6 "/>
<polygon fill-rule="evenodd" clip-rule="evenodd" fill="#FFFFFF" stroke="#000000" stroke-width="0.5669" stroke-miterlimit="22.9256" points="
	-521,3820.3 -450.6,3820.3 -450.6,3598.7 -300.3,3598.7 -300.3,3639.1 -407.7,3639.1 -407.7,3707 -332.5,3707 -332.5,3743.6 
	-407.7,3743.6 -407.7,3820.3 -246.6,3820.3 -246.6,3545.9 -521,3545.9 -521,3820.3 "/>
<polygon points="941.8,3475.6 941.8,3890.6 1356.8,3890.6 1356.8,3475.6 941.8,3475.6 "/>
<path fill-rule="evenodd" clip-rule="evenodd" fill="#FFFFFF" d="M1149.3,3820.3c75.8,0,137.2-61.4,137.2-137.2
	s-61.4-137.2-137.2-137.2s-137.2,61.4-137.2,137.2S1073.5,3820.3,1149.3,3820.3L1149.3,3820.3z M1226.5,3595.9
	c-2,3.5-10.3,11.5-11.8,12.7c-0.7,0.6-1,1-1.6,1.6c-5.3,4.8-11,8.6-16.9,12.4c-4,2.7-12.4,7.3-16.8,9.3c-1.5,0.7-2.9,1.3-4.4,2
	c-1.7,0.7-3,1.3-4.5,1.9c-1.6,0.7-3.2,1.4-5,1.8c-0.5-2.3-8.3-14.9-10-17.9c-0.9-1.6-1.6-2.8-2.5-4.3c-7.3-12.2-14.2-22.2-21.9-33.8
	l-8.3-11.9c8.6-2,17.5-3.1,26.6-3.1C1178.9,3566.6,1206,3577.7,1226.5,3595.9L1226.5,3595.9z M1149.3,3799.6
	c16.2,0,31.6-3.3,45.6-9.3c-0.8-3.7-1.4-7.5-2.2-11.3c-2.7-11.9-5-22.5-8.4-34.1c-2.2-7.4-4.4-14.6-6.8-21.8
	c-1.4-4.2-5.9-17.5-7.5-20.8l-7.6,2.8c-16.5,6.6-32.5,15-46.4,26.2c-3.8,3.1-7.7,6.1-11.1,9.6c-1.1,1.1-1.8,1.5-2.9,2.5l-9.9,10.9
	c-5.7,7.1-6.1,7.5-10.9,14.8c-1.3,1.9-2.4,4-3.5,6C1097.5,3790.4,1122.3,3799.6,1149.3,3799.6L1149.3,3799.6z M1214.7,3779.5
	c26-17.7,44.4-45.6,49.6-77.9c-1.4-0.2-2.6-0.7-3.8-1c-1.3-0.3-2.8-0.7-4-1c-7-1.7-24.3-4.4-31.4-4.4c-1.5,0-3.5,0.1-5,0
	c-7.5-0.6-3.9,0-9.3,0c-9,0-13.5,1.4-18.6,1.4l3.4,9.9c4.8,12.4,11.5,38.1,14.8,51.3c0.9,3.7,1.6,7,2.4,10.9
	C1213.3,3771.5,1214.6,3776.5,1214.7,3779.5L1214.7,3779.5z M1265.8,3681.7c-0.3-27.3-10-52.3-26-72l-6.3,6.9c-2.5,3-5.9,6-8.9,8.6
	c-0.8,0.7-1.1,1-1.9,1.7c-10.3,8-10,7.7-20.2,14.4c-4.7,3.1-23,12.7-27.7,13.8c2,3.7,3.5,7.6,5.4,11.4c1.8,3.6,3.1,7.9,5,11.4
	c3.4,0,7.7-0.8,11.1-1.1c3.8-0.3,24-0.7,27.7-0.2l12.7,0.9C1242,3677.8,1260.1,3680.6,1265.8,3681.7L1265.8,3681.7z M1099.9,3577.6
	c-32.6,15.3-57,45.3-64.6,81.4l36-1.8c2.1-0.2,4.5-0.5,6.8-0.7c24.8-2.4,41.6-6.4,64.7-11.8c-0.9-1.4-1.7-2.9-2.7-4.5l-10.4-17.5
	c-0.9-1.6-1.7-2.7-2.6-4.2L1099.9,3577.6L1099.9,3577.6z M1032.9,3679.8c0,1.1-0.1,2.2-0.1,3.3c0,29.9,11.3,57.1,29.8,77.7
	c1.2-2.7,7.6-11.3,8.9-13.1l11.3-13.8c1.4-1.6,2.1-2,4-4.3c3.3-4.1,12.8-12.1,17.3-16c9.2-8,22.9-16.4,33.9-21.9
	c2.5-1.2,4.9-2.2,7.6-3.5c3.8-1.7,16.1-5.8,16.3-5.8c-0.5-2.1-1.4-3.3-2.1-5.1c-0.7-1.8-1.4-3.1-2.3-4.8l-4.5-9.8
	c-1.6,0.1-5,1.3-6.8,1.8c-2.2,0.6-4.5,1.2-6.7,1.8c-9.5,2.8-33.1,7.2-43,8.5C1076.5,3677.8,1055.4,3679.7,1032.9,3679.8
	L1032.9,3679.8z"/>
<polygon points="430.8,3986.6 430.8,4401.6 845.8,4401.6 845.8,3986.6 430.8,3986.6 "/>
<path fill-rule="evenodd" clip-rule="evenodd" fill="#FFFFFF" d="M638.3,4066.1c49.7,0,89.3,40.3,90.1,90.1
	c1,71.7-86.8,160.2-90.1,160.2c-3.5,0-90.1-95.8-90.1-160.2C548.2,4106.4,588.5,4066.1,638.3,4066.1L638.3,4066.1z M638.3,4097.6
	c26.6,0,48.2,21.6,48.2,48.2c0,26.6-21.6,48.2-48.2,48.2s-48.2-21.6-48.2-48.2C590.1,4119.2,611.7,4097.6,638.3,4097.6L638.3,4097.6
	z"/>
<polygon points="-1102.3,3986.6 -1102.3,4401.6 -687.3,4401.6 -687.3,3986.6 -1102.3,3986.6 "/>
<path fill="#FFFFFF" d="M-883.7,4247.8c0.1,0,103.8,0.1,104.5,0.1c20.8,0,37.7-16.9,37.7-37.7c0-20.8-16.9-37.7-37.7-37.7
	c-5.2,0-10.1,1-14.6,2.9c-3-33.5-30.6-59.8-64.7-60.6h-3.1c-8,0.2-15.7,1.8-22.6,4.5c-2.8,1.1-3.6,2.2-3.6,4.4c0,0,0,119.6,0,119.6
	C-887.8,4245.7-886,4247.6-883.7,4247.8L-883.7,4247.8z M-895.5,4123.7c-2.3,0-4.1,1.9-4.2,4.1l-1.7,84.9l1.7,30.8
	c0,2.3,1.9,4.1,4.2,4.1c2.3,0,4.1-1.9,4.1-4.1v0l1.8-30.8l-1.8-84.9C-891.4,4125.5-893.3,4123.7-895.5,4123.7L-895.5,4123.7z
	 M-908.4,4247.8c2.1,0,3.9-1.7,3.9-3.9l0,0l1.6-31.3l-1.6-77.8c0-2.1-1.8-3.9-3.9-3.9c-2.1,0-3.9,1.7-3.9,3.9l-1.5,77.8
	c0,0,1.5,31.3,1.5,31.3C-912.2,4246.1-910.5,4247.8-908.4,4247.8L-908.4,4247.8z M-915.9,4212.7l-1.8-65.4c0-2-1.6-3.6-3.6-3.6
	c-2,0-3.6,1.6-3.6,3.6l-1.6,65.4l1.6,31.5c0,2,1.6,3.6,3.6,3.6c2,0,3.6-1.6,3.6-3.6v0L-915.9,4212.7L-915.9,4212.7z M-934.1,4247.7
	c1.8,0,3.3-1.5,3.4-3.3v0l2-31.7l-2-67.9c0-1.9-1.5-3.3-3.4-3.3c-1.8,0-3.3,1.5-3.4,3.3l-1.8,67.9l1.8,31.7
	C-937.5,4246.2-936,4247.7-934.1,4247.7L-934.1,4247.7z M-946.9,4247.7c1.7,0,3-1.4,3.1-3.1l0,0l2.2-32l-2.2-69.7
	c-0.1-1.7-1.4-3.1-3.1-3.1c-1.7,0-3.1,1.4-3.1,3.1l-1.9,69.7l1.9,32C-949.9,4246.4-948.6,4247.7-946.9,4247.7L-946.9,4247.7z
	 M-959.5,4142.5c-1.5,0-2.8,1.2-2.8,2.8c0,0-2.1,67.4-2.1,67.4l2.1,32.2c0.1,1.6,1.3,2.8,2.8,2.8c1.5,0,2.8-1.2,2.8-2.8l0,0
	l2.4-32.2l-2.4-67.4C-956.7,4143.7-958,4142.5-959.5,4142.5L-959.5,4142.5z M-972,4247.7c1.4,0,2.5-1.1,2.6-2.6l0,0l2.5-32.5
	l-2.5-62.2c-0.1-1.4-1.2-2.6-2.6-2.6c-1.4,0-2.5,1.1-2.6,2.6c0,0-2.2,62.2-2.2,62.2l2.2,32.5C-974.5,4246.6-973.4,4247.7-972,4247.7
	L-972,4247.7z M-979.4,4212.7l-2.7-50.6c-0.1-1.3-1.1-2.3-2.3-2.3c-1.2,0-2.3,1-2.3,2.3c0,0-2.4,50.6-2.4,50.6l2.4,32.7
	c0.1,1.3,1.1,2.3,2.3,2.3c1.2,0,2.2-1,2.3-2.3v0L-979.4,4212.7L-979.4,4212.7z M-996.8,4247.4c1.1,0,2-0.9,2.1-2l0,0l2.9-32.7
	l-2.9-31.1c-0.1-1.1-1-2-2.1-2c-1.1,0-2,0.9-2.1,2l-2.5,31.1l2.5,32.7C-998.8,4246.5-997.9,4247.4-996.8,4247.4L-996.8,4247.4z
	 M-1009,4246.9c0.9,0,1.7-0.8,1.8-1.8l0,0l3.1-32.4l-3.1-33.5c-0.1-1-0.9-1.8-1.8-1.8c-0.9,0-1.7,0.8-1.8,1.8l-2.7,33.5l2.7,32.4
	C-1010.7,4246.1-1010,4246.9-1009,4246.9L-1009,4246.9z M-1019.6,4180c-0.1-0.9-0.7-1.5-1.5-1.5c-0.8,0-1.5,0.6-1.5,1.5
	c0,0-2.9,32.6-2.9,32.6l2.9,31.5c0.1,0.9,0.7,1.5,1.5,1.5c0.8,0,1.4-0.6,1.5-1.5l3.2-31.5L-1019.6,4180L-1019.6,4180z
	 M-1044.5,4230.6c0.6,0,1.1-0.5,1.2-1.2l2.7-16.7l-2.7-17c-0.1-0.7-0.6-1.2-1.2-1.2c-0.6,0-1.1,0.5-1.2,1.2l-2.2,17l2.2,16.7
	C-1045.6,4230.1-1045.1,4230.6-1044.5,4230.6L-1044.5,4230.6z M-1043.3,4229.4C-1043.3,4229.4-1043.3,4229.4-1043.3,4229.4
	L-1043.3,4229.4L-1043.3,4229.4L-1043.3,4229.4z M-1033.2,4240.8c0.6,0,1.2-0.5,1.3-1.2l3.4-26.9l-3.4-27.5
	c-0.1-0.7-0.6-1.2-1.3-1.2c-0.7,0-1.2,0.5-1.3,1.2c0,0-3,27.5-3,27.5l3,26.9C-1034.4,4240.3-1033.8,4240.8-1033.2,4240.8
	L-1033.2,4240.8z"/>
<polygon points="941.8,3986.6 941.8,4401.6 1356.8,4401.6 1356.8,3986.6 941.8,3986.6 "/>
<path fill-rule="evenodd" clip-rule="evenodd" fill="#FFFFFF" d="M1234.1,4059.4c7.5,3.4,18.1,11.6,23.9,20.2
	c5.8,8.6,6.7,17.6,6.6,26c-0.1,8.4-1.4,16.1-10.7,37.3c-9.3,21.2-26.7,55.8-51.2,87c-24.5,31.2-56.3,58.8-76.3,75.3
	c-20,16.5-28.4,21.7-37.2,24.2c-8.9,2.5-18.2,2.4-28.5-2.3c-10.2-4.7-21.3-13.8-25-23.3c-3.8-9.5-0.2-19.4,5.3-28.6
	c5.5-9.3,13-18,21-24c8-6,16.4-9.3,23.2-8c6.8,1.3,12.1,7.3,15.4,11.3c3.3,4,4.8,6.1,6.3,7.5c1.5,1.4,3,2.1,5.9,0.9
	c2.9-1.2,7.1-4.2,17.8-12.2c10.7-8,28-21,42.2-37.6c14.2-16.6,25.4-36.9,30.1-48.7c4.7-11.8,2.8-15.1-2.2-18.1c-5-3-13-5.8-17.5-9.9
	s-5.3-9.4-5.1-14.7c0.2-5.3,1.6-10.5,4.2-16.8c2.6-6.3,6.4-13.8,11.2-21c4.8-7.2,10.6-14.1,14.8-18.3c4.2-4.2,6.7-5.6,10.3-7
	C1222.1,4057.3,1226.6,4056,1234.1,4059.4L1234.1,4059.4z"/>
<polygon points="-80.2,3986.6 -80.2,4401.6 334.8,4401.6 334.8,3986.6 -80.2,3986.6 "/>
<path fill-rule="evenodd" clip-rule="evenodd" fill="#FFFFFF" d="M233.1,4230c-5.8,12.7-8.5,18.4-15.9,29.7
	c-10.3,15.7-24.9,35.3-42.9,35.5c-16,0.1-20.2-10.4-41.9-10.3c-21.8,0.1-26.3,10.5-42.3,10.3c-18-0.2-31.9-17.9-42.2-33.6
	c-17.2-26.1-25.2-54.9-25.2-79.8c0-17,3.8-32.1,11.1-43.3c12.7-19.5,32.6-30.9,51.4-30.9c19.1,0,31.2,10.5,47,10.5
	c15.3,0,24.7-10.5,46.8-10.5c16.7,0,34.4,9.1,47.1,24.8C184.6,4155.2,191.3,4214.2,233.1,4230L233.1,4230L233.1,4230z M162.1,4090.1
	c8-10.3,14.1-24.9,11.9-39.8c-13.1,0.9-28.5,9.3-37.4,20.1c-8.1,9.9-14.9,24.5-12.2,38.8C138.7,4109.7,153.5,4101.1,162.1,4090.1
	L162.1,4090.1L162.1,4090.1z"/>
<polygon points="-591.3,3986.6 -591.3,4401.6 -176.3,4401.6 -176.3,3986.6 -591.3,3986.6 "/>
<path fill="#FFFFFF" d="M-437.3,4044l14.2,24.7c-25.9,12.7-43.4,37.5-43.4,66h82.7h82.7c0-28.5-17.5-53.3-43.4-66l14.2-24.7
	c0,0,0.7-1.3-0.6-2c-1.3-0.7-2.1,0.5-2.1,0.5l-14.4,24.9c-11-4.9-23.3-7.6-36.4-7.6c-13.1,0-25.4,2.8-36.4,7.6l-14.4-24.9
	c0,0-0.8-1.3-2.1-0.5C-437.9,4042.6-437.3,4044-437.3,4044L-437.3,4044L-437.3,4044z M-423.1,4091.8L-423.1,4091.8
	c4.3,0,7.9,3.5,7.9,7.9c0,4.3-3.5,7.8-7.9,7.8c-4.3,0-7.9-3.4-7.9-7.8C-431,4095.3-427.4,4091.8-423.1,4091.8L-423.1,4091.8z
	 M-344.4,4091.8L-344.4,4091.8c4.3,0,7.9,3.5,7.9,7.9c0,4.3-3.5,7.8-7.9,7.8c-4.3,0-7.9-3.4-7.9-7.8
	C-352.3,4095.3-348.8,4091.8-344.4,4091.8L-344.4,4091.8z"/>
<path fill="#FFFFFF" d="M-467.1,4144.3v125.5c0,6.2,7.5,14.4,13.8,14.4h19.7v42.8c0,10.9,7.9,19.7,17.8,19.7
	c9.9,0,17.8-8.8,17.8-19.7v-42.8h28.6v42.8c0,10.9,7.9,19.7,17.8,19.7c9.9,0,17.9-8.8,17.9-19.7v-42.8h19.6
	c6.2,0,13.8-8.1,13.8-14.4v-125.5H-467.1L-467.1,4144.3z"/>
<path fill="#FFFFFF" d="M-494.6,4141.6c9.8,0,17.8,8.8,17.8,19.7v74.5c0,10.9-8,19.7-17.8,19.7c-9.8,0-17.8-8.8-17.8-19.7v-74.5
	C-512.4,4150.5-504.4,4141.6-494.6,4141.6L-494.6,4141.6z"/>
<path fill="#FFFFFF" d="M-273,4141.6c9.8,0,17.8,8.8,17.8,19.7v74.5c0,10.9-8,19.7-17.8,19.7c-9.8,0-17.8-8.8-17.8-19.7v-74.5
	C-290.8,4150.5-282.8,4141.6-273,4141.6L-273,4141.6z"/>
<polygon points="-1102.3,4497.7 -1102.3,4912.7 -687.3,4912.7 -687.3,4497.7 -1102.3,4497.7 "/>
<path fill-rule="evenodd" clip-rule="evenodd" fill="#FFFFFF" d="M-868.8,4705.9c3.1-2.1,6.5-6.6,8.4-8.7c16-17.2,38.1-35.2,63-25.1
	c11,4.5,19.2,19.1,19.2,32c0,34.2-26.9,44.1-55.3,31.3c-1.7-0.8-2.4-1.3-4-2.1c-4.2-2.1-13.2-8.8-16.7-12.2c-2.6-2.7-5.3-4-9.1-8.9
	C-865.2,4709.8-867,4708.6-868.8,4705.9L-868.8,4705.9z M-977.8,4741c-10.7,0-17.6-3.4-24.2-10c-12.2-12-12-35.2-0.3-50.5
	c16.4-21.5,44.1-8.7,60.7,5.4c0.7,0.6,0.8,0.8,1.6,1.4c3.8,3,17.9,16.6,19.5,19c-4.9,5.7-8.6,9.5-14.1,14.3
	C-946.5,4731.3-961.1,4741-977.8,4741L-977.8,4741z M-980.9,4784.3c14.5,0,20.4-0.3,33.8-5.6c9.7-3.9,21.3-11.4,28.7-18.6l4.2-3.7
	c1.4-1.4,2.5-2.5,3.9-3.9l15.7-16.3c0.3,0.2,3.3,3.5,3.8,4.1c1.5,1.8,2.1,2.5,3.7,4.1l20.2,19.2c5.5,4.3,13.2,9.4,19.5,12.4
	c17.5,8.6,36.7,10.7,55.9,5.9c14.2-3.5,28-12.5,36.8-24.1c2.8-3.7,7.2-10.7,8.9-14.8c5.1-12.5,8.4-22.5,8.4-38.9
	c0-23.5-8.8-47.6-27-62.3c-11.4-9.2-22.6-13.5-38.3-15.5c-4.1-0.5-12.7-0.5-16.8,0c-25.2,3.2-41,14.8-58,31.7c-1,1-1.2,1.3-2,2.4
	c-1.3,1.7-2.3,2.2-4.2,4.6l-10.8,12c-1.3-0.9-2-2.2-3.2-3.4l-4.6-5.4c-2.9-3.6-15.2-16.3-18.9-19.2c-11.6-8.9-19.6-15.3-34.9-19.9
	c-32.8-9.7-68.1,2.5-85.1,31.7c-5.2,8.9-8.6,20.3-10,31.2c-3.9,31.1,5.5,60.3,29.3,78.2c4.7,3.6,12.3,7.6,17.9,9.6
	C-997.3,4782.3-989.9,4784.3-980.9,4784.3L-980.9,4784.3z"/>
<polygon points="-591.3,4497.7 -591.3,4912.7 -176.3,4912.7 -176.3,4497.7 -591.3,4497.7 "/>
<path fill="#FFFFFF" d="M-505.8,4705.2c0,48.3,28.1,90,68.8,109.8l-58.2-159.5C-502,4670.7-505.8,4687.5-505.8,4705.2L-505.8,4705.2
	z M-301.4,4699c0-15.1-5.4-25.5-10.1-33.7c-6.2-10.1-12-18.6-12-28.6c0-11.2,8.5-21.7,20.5-21.7c0.5,0,1.1,0.1,1.6,0.1
	c-21.7-19.9-50.6-32-82.4-32c-42.6,0-80.1,21.9-101.9,55c2.9,0.1,5.6,0.1,7.9,0.1c12.8,0,32.5-1.6,32.5-1.6
	c6.6-0.4,7.4,9.3,0.8,10.1c0,0-6.6,0.8-14,1.2l44.4,132.2l26.7-80.1l-19-52.1c-6.6-0.4-12.8-1.2-12.8-1.2
	c-6.6-0.4-5.8-10.4,0.8-10.1c0,0,20.1,1.6,32.1,1.6c12.8,0,32.5-1.6,32.5-1.6c6.6-0.4,7.4,9.3,0.8,10.1c0,0-6.6,0.8-14,1.2
	l44.1,131.2l12.2-40.7C-305.4,4721.6-301.4,4709.4-301.4,4699L-301.4,4699z M-381.6,4715.8l-36.6,106.4c10.9,3.2,22.5,5,34.5,5
	c14.2,0,27.8-2.5,40.5-6.9c-0.3-0.5-0.6-1.1-0.9-1.7L-381.6,4715.8L-381.6,4715.8z M-276.7,4646.6c0.5,3.9,0.8,8.1,0.8,12.5
	c0,12.4-2.3,26.3-9.3,43.7l-37.3,107.8c36.3-21.2,60.7-60.5,60.7-105.5C-261.8,4683.9-267.2,4664-276.7,4646.6L-276.7,4646.6z
	 M-383.8,4840.9c-74.8,0-135.7-60.9-135.7-135.7c0-74.8,60.9-135.7,135.7-135.7c74.8,0,135.7,60.9,135.7,135.7
	C-248.1,4780-308.9,4840.9-383.8,4840.9L-383.8,4840.9z M-383.8,4562.9c-78.4,0-142.2,63.8-142.2,142.2
	c0,78.4,63.8,142.2,142.2,142.2c78.4,0,142.2-63.8,142.2-142.2C-241.5,4626.7-305.3,4562.9-383.8,4562.9L-383.8,4562.9z"/>
<polygon points="-80.2,4497.7 -80.2,4912.7 334.8,4912.7 334.8,4497.7 -80.2,4497.7 "/>
<path fill="#FFFFFF" d="M186,4575.7c-18.6-8.4-38.4-12.8-58.8-12.8c-17,0-33.7,3.3-49.8,9.3c3.8,3.4,103.7,94.1,108.5,98.5
	C186,4664.2,186,4577.7,186,4575.7L186,4575.7z M201,4583.9c0,5.7,0,165.5,0,168.5c2.9,0,58.4,0,60.7,0c5.3-15.2,8.1-31,8.1-46.9
	C269.8,4655.9,243.5,4609.7,201,4583.9L201,4583.9z M68.9,4767.4c0,3,0,66,0,68c14.5,6.5,29.6,10.5,45.2,12h26.2
	c49.2-4.6,93.2-34.9,115-80C250.1,4767.4,71.9,4767.4,68.9,4767.4L68.9,4767.4z M-15.3,4705.5c0,12.2,1.8,24.7,5.2,37
	c3.9-3.5,123.9-112.5,126.3-114.8c-2.4-2.2-52.3-47.5-53.9-49C14.5,4603.3-15.3,4651.7-15.3,4705.5L-15.3,4705.5z M53.9,4827.2
	c0-5.6,0-116,0-122.6c-4.8,4.3-57.3,52-58.9,53.5C6.4,4786.8,27.3,4811.1,53.9,4827.2L53.9,4827.2z"/>
<polygon points="430.8,4497.7 430.8,4912.7 845.8,4912.7 845.8,4497.7 430.8,4497.7 "/>
<path fill-rule="evenodd" clip-rule="evenodd" fill="#FFFFFF" d="M639.1,4562.9c21.8,0.2,42.5,5.4,61,14.4c3,1.4,5.9,2.9,8.9,4.7
	l-13.1,11.7l-19.7-20.3L643,4603l-19.7-21.5l-61.8,55.8l39.6,43.7l-15.6,13.7l39.1,43.8l-15.5,13.7l55.8,62.1l33.1-30.5l28.6,32.7
	c-5.7,4.4-11.9,8.6-18.7,12.4c-20.7,11.8-44.6,18.6-70.1,18.6c-78.3,0-142.2-63.9-142.2-142.2c0-78.2,63.6-141.9,141.7-142.2H639.1
	L639.1,4562.9z M673.1,4673l25.4-22.8l22.8,25.4l-25.4,22.8L673.1,4673L673.1,4673L673.1,4673z M748.9,4710.7l16.9-15.2l15.2,16.9v0
	l-16.9,15.2L748.9,4710.7L748.9,4710.7L748.9,4710.7z M705.7,4610.2l16.9-15.2l15.2,16.9l-16.9,15.2L705.7,4610.2L705.7,4610.2
	L705.7,4610.2z M727.3,4660.4l16.9-15.2l15.2,16.9l-16.9,15.2L727.3,4660.4L727.3,4660.4L727.3,4660.4z M717.1,4777.9l25.4-22.8
	l22.8,25.4l-25.4,22.8L717.1,4777.9L717.1,4777.9L717.1,4777.9z M694.8,4726.6l25.4-22.8l22.8,25.4l-25.4,22.8L694.8,4726.6
	L694.8,4726.6L694.8,4726.6z M649.7,4622l25.4-22.8l22.8,25.4l-25.4,22.8L649.7,4622L649.7,4622L649.7,4622z M587.6,4638.4
	l33.8-30.4l30.4,33.8l-33.8,30.5L587.6,4638.4L587.6,4638.4L587.6,4638.4z M635.9,4754.6l33.8-30.5l30.5,33.8l-33.8,30.5
	L635.9,4754.6L635.9,4754.6L635.9,4754.6z M611.8,4696.2l33.8-30.5l30.5,33.8l-33.8,30.4L611.8,4696.2L611.8,4696.2L611.8,4696.2z"
	/>
<polygon points="941.8,4497.7 941.8,4912.7 1356.8,4912.7 1356.8,4497.7 941.8,4497.7 "/>
<path fill="#FFFFFF" d="M1153.3,4644.7c8.7-5.8,17-3.9,18.5,4.2c1.5,8.1-3.6,18.5-12.3,24.3c-8.7,5.8-17,3.9-18.5-4.2
	C1139.5,4660.9,1144.6,4650.6,1153.3,4644.7L1153.3,4644.7z M1242.7,4655H1229v85.3c0,15.3-6.5,24.1-25.9,28.6l-124,35.1
	c0,0-10.6,2.9-10.6-6.7c0-8,9.4-8.9,10.9-10.4l-0.6,0.2l113.1-45c9.3-5.2,16.9-17.1,16.9-26.5v-134.5c0-21.2-20.7-14-25.2-11.3
	c-4.9,2.9-131.1,73.6-131.1,73.6c-9.3,5.2-16.8,17.2-16.8,26.6v134c0,9.4,13.4,21.9,22.1,22v0h184.9c11.1,0,20.2-7.7,20.2-17.1
	v-136.7C1262.9,4662.7,1253.8,4655,1242.7,4655L1242.7,4655z"/>
<polygon points="430.8,920.5 430.8,1335.5 845.8,1335.5 845.8,920.5 430.8,920.5 "/>
<path fill="#FFFFFF" d="M763.5,1156.6c4.9,9.8,7.6,20.9,7.6,32.6c0,40.6-32.9,73.5-73.5,73.5c-12.6,0-24.4-3.2-34.7-8.7
	c-7.5,1.4-15.3,2.1-23.2,2.1c-70,0-126.7-56.7-126.7-126.7c0-8.7,0.9-17.2,2.6-25.5c-6.4-10.9-10.1-23.6-10.1-37.2
	c0-40.6,32.9-73.5,73.5-73.5c14.4,0,27.8,4.1,39.1,11.3c7-1.2,14.3-1.9,21.7-1.9c70,0,126.7,56.7,126.7,126.7
	C766.4,1138.7,765.4,1147.9,763.5,1156.6L763.5,1156.6z M601.7,1046.1c-10.7,3.9-18.9,9.7-24.6,17.1c-5.7,7.4-8.6,16.1-8.6,25.6
	c0,10,2.8,18.6,8.2,25.4c5.4,6.7,12.7,12.1,21.8,15.9c8.9,3.8,20.1,7.1,33.2,9.9c9.7,2,17.5,4,23.3,5.8c5.5,1.7,10.1,4.2,13.5,7.5
	c3.3,3.1,4.9,7,4.9,12c0,6.3-3.1,11.5-9.4,15.8c-6.5,4.4-15.1,6.6-25.5,6.6c-7.6,0-13.8-1.1-18.4-3.3c-4.6-2.2-8.1-4.9-10.6-8.2
	c-2.6-3.4-5-7.8-7.3-12.9c-2-4.7-4.5-8.4-7.4-10.9c-3.1-2.6-6.8-3.9-11.2-3.9c-5.3,0-9.8,1.7-13.2,4.9c-3.5,3.3-5.3,7.3-5.3,12
	c0,7.4,2.7,15.1,8.1,22.9c5.3,7.7,12.4,13.9,20.9,18.5c11.9,6.3,27.2,9.5,45.4,9.5c15.2,0,28.5-2.3,39.6-7
	c11.2-4.7,19.9-11.2,25.7-19.5c5.9-8.3,8.9-17.8,8.9-28.3c0-8.7-1.7-16.2-5.2-22.3c-3.4-6.1-8.2-11.1-14.3-15.1
	c-5.9-3.9-13.2-7.2-21.7-9.9c-8.3-2.7-17.8-5.1-28-7.3c-8.1-1.9-14-3.3-17.5-4.3c-3.4-1-6.9-2.3-10.2-4c-3.2-1.6-5.8-3.5-7.6-5.7
	c-1.7-2.1-2.5-4.5-2.5-7.4c0-4.7,2.6-8.7,7.9-12.1c5.5-3.6,12.9-5.4,22-5.4c9.8,0,16.9,1.6,21.2,4.9c4.4,3.3,8.2,8.1,11.4,14.1
	c2.7,4.7,5.2,8,7.6,10.1c2.5,2.3,6.2,3.4,10.9,3.4c5.2,0,9.5-1.8,13-5.4c3.5-3.6,5.2-7.7,5.2-12.2c0-4.7-1.3-9.6-4-14.5
	c-2.6-4.8-6.8-9.5-12.3-13.9c-5.5-4.3-12.6-7.8-20.9-10.4c-8.3-2.6-18.3-3.9-29.6-3.9C624.7,1040.2,612.2,1042.2,601.7,1046.1
	L601.7,1046.1z"/>
<polygon points="430.8,409.5 430.8,824.5 845.8,824.5 845.8,409.5 430.8,409.5 "/>
<path fill-rule="evenodd" clip-rule="evenodd" fill="#FFFFFF" d="M674.7,628l45-4l15.9-0.4l4,0.4c6,2,11.6,5.6,14.7,11.5
	c4,4.4,6,10.4,6,17.1l-1.2,8c-2,8-6.8,13.9-13.5,17.1c-7.2,4-14.3,4.8-22.3,2c-4.8-1.2-8-3.2-10.8-6.4l-41.8-34.6l2.8-6L674.7,628
	L674.7,628z M656.8,652.7l16.7,17.1l10.4,12.7l2,4c3.6,6.8,5.6,13.1,4.8,20.7c-0.8,7.2-3.2,12.3-8,14.3c-2.8,2-6,2-9.2,1.6
	c-7.6-2-13.5-8-17.9-17.5l-4.8-13.1l-6-34.6l6.8-2.4L656.8,652.7L656.8,652.7z M626.1,657.9c0.8,13.5,2,27.9,4,43.4v15.9l-0.4,4
	c-2.8,7.2-7.6,13.1-14.7,16.3c-7.2,4-14.7,4.8-21.9,2.8c-8-2-13.9-6.8-17.1-13.1c-2-4-3.6-8.8-3.6-13.5l2-9.2c0.8-4,2.8-8,6-11.2
	l33.4-39.8C617.7,655.5,621.7,657.5,626.1,657.9L626.1,657.9L626.1,657.9z M617,600.1c4.8-4.4,11.1-7.2,18.7-7.2
	c7.2,0,13.9,2.8,18.3,7.2c5.6,5.6,8,11.6,8,18.7c0,7.2-2.4,13.9-8,18.7c-5.2,5.2-11.1,8-18.3,8c-7.6,0-13.9-2.8-18.7-8
	c-5.2-4.8-8-11.6-8-18.7C609,611.7,611.8,605.7,617,600.1L617,600.1L617,600.1z M718.5,562.3c7.2-3.2,13.9-4,21.1-3.2
	c6.8,0.8,11.6,4,13.9,8.8l1.6,5.2l-0.8,4c-2.8,7.2-8.8,12.7-18.7,17.1c-4,2-8.4,2.8-13.1,3.6l-49,6l-0.8-2.8l-0.8-1.2l1.6-2
	l40.2-33.4L718.5,562.3L718.5,562.3z M556.4,561.9l10.8,4.4l35,25.5c-3.2,4-5.2,8-6.4,11.9l-57.3,7.2l-4-0.8
	c-7.2-1.2-11.9-4.4-15.1-10.4c-3.2-6-3.2-11.9-0.8-17.9c2.8-7.6,8-13.5,15.5-16.7C541.3,561.1,548.5,559.9,556.4,561.9L556.4,561.9
	L556.4,561.9z M577.9,515.3c0.4-7.2,3.2-11.9,8-14.7c2.4-2,6-2,9.2-0.4c7.2,2,13.1,7.2,17.9,17.1c2,4,4,8,4.8,12.7l8,47l-6,2
	l-35.4-38.6l-2-4C579.1,529.3,577.1,522.5,577.9,515.3L577.9,515.3L577.9,515.3z M701.4,507.4c2,4,3.2,8.8,3.2,13.9l-1.2,8.8
	c-1.6,4.4-3.6,8.4-6,11.9l-35.8,43.8C658,583,654,581,650,579l-4-45l-0.4-15.9l0.4-4c2-8,7.6-13.9,14.7-17.9c7.2-4,15.1-4.8,22.7-2
	C691.8,496.2,697.8,500.6,701.4,507.4L701.4,507.4L701.4,507.4z M599.8,483.5c-8.8-2-15.9-1.2-23.5,2.8
	c-8.4,5.2-13.1,13.1-15.1,24.3c-2,11.5,0,22.7,6,33.8l2.8,4l-9.6-3.2c-11.9-2.8-23.1-1.2-34.2,4.8c-11.5,6-18.7,14.3-23.5,25.9
	c-4.4,11.2-4,21.9,1.6,31.9c2.4,4.4,6,8,9.2,10.4c4.8,4.8,10.8,7.6,17.9,8.8l2.8,0.8l-6,5.2c-5.6,4.8-8.8,10.7-10.7,16.7
	c-2,7.2-1.2,14.3,2.8,21.1c2,3.2,4,6,7.2,8c3.2,2.8,7.2,4.8,11.9,5.2c8.8,2,17.9,2,27.9-1.2l-7.2,11.9l-2,5.2
	c-4,12.7-2.8,23.9,3.2,35.4c2.8,4.4,6,8.4,9.2,11.9c4.8,4.4,10.8,7.2,17.9,9.2c11.9,3.2,23.9,2.8,35.4-3.2
	c11.2-6,18.3-15.5,21.9-27.5l0.4-2.4c7.6,8.4,14.7,13.9,22.7,15.9c8,2.4,15.9,2,23.1-2.8c6.8-4,11.5-10.8,13.9-19.1
	c2-8.8,2-17.5,0-27.5c4,2.8,8,4.8,12.7,6c12.7,4,23.9,3.6,35-2.4c10.8-6,17.9-15.5,21.5-27.9c3.2-11.9,2.4-23.5-3.6-34.6l-2-3.2
	c-3.2-4.8-6.4-9.6-11.1-12.7c-4-2.8-8.8-4.8-13.1-6.8c12.3-6,21.1-14.3,25.1-25.1c2.8-8.8,2-15.9-2-23.1v-0.8
	c-4.8-8-11.1-13.1-21.1-15.9c-6-1.2-12.7-1.2-18.7-0.8l-13.1,2.8l4.4-10c4-12.7,2.8-25.1-4-36.6l-1.2-2c-6-10-14.7-15.9-26.7-19.1
	c-12.3-3.2-23.9-2-35,4c-11.1,6-19.1,15.1-22.7,27.1v0.8l-0.4,2.8l-1.6-2.8l-4-7.2C617.7,492.2,609.8,486.3,599.8,483.5L599.8,483.5
	L599.8,483.5z"/>
<path fill-rule="evenodd" clip-rule="evenodd" d="M617,600.1c4.8-4.4,11.1-7.2,18.7-7.2c7.2,0,13.9,2.8,18.3,7.2
	c5.6,5.6,8,11.6,8,18.7c0,7.2-2.4,13.9-8,18.7c-5.2,5.2-11.1,8-18.3,8c-7.6,0-13.9-2.8-18.7-8c-5.2-4.8-8-11.6-8-18.7
	C609,611.7,611.8,605.7,617,600.1L617,600.1L617,600.1z"/>
<polygon points="430.8,1431.5 430.8,1846.5 845.8,1846.5 845.8,1431.5 430.8,1431.5 "/>
<path fill-rule="evenodd" clip-rule="evenodd" fill="#FFFFFF" d="M638.3,1500.1c-78.7,0-142.5,63.8-142.5,142.5
	c0,62.9,40.8,116.3,97.4,135.2c7.1,1.3,9.7-3.1,9.7-6.9c0-3.4-0.1-12.3-0.2-24.2c-39.6,8.6-48-19.1-48-19.1
	c-6.5-16.5-15.8-20.8-15.8-20.8c-12.9-8.8,1-8.7,1-8.7c14.3,1,21.8,14.7,21.8,14.7c12.7,21.8,33.3,15.5,41.5,11.8
	c1.3-9.2,5-15.5,9-19c-31.6-3.6-64.9-15.8-64.9-70.4c0-15.6,5.6-28.3,14.7-38.2c-1.5-3.6-6.4-18.1,1.4-37.7c0,0,12-3.8,39.2,14.6
	c11.4-3.2,23.6-4.7,35.7-4.8c12.1,0.1,24.3,1.6,35.7,4.8c27.2-18.4,39.1-14.6,39.1-14.6c7.8,19.6,2.9,34.1,1.4,37.7
	c9.1,10,14.6,22.7,14.6,38.2c0,54.7-33.3,66.8-65,70.3c5.1,4.4,9.7,13.1,9.7,26.4c0,19-0.2,34.4-0.2,39.1c0,3.8,2.6,8.2,9.8,6.8
	c56.6-18.9,97.3-72.2,97.3-135.2C780.7,1563.9,717,1500.1,638.3,1500.1L638.3,1500.1z"/>
</svg>
