<?xml version="1.0" encoding="utf-8"?>
<!-- Generator: Adobe Illustrator 18.1.1, SVG Export Plug-In . SVG Version: 6.00 Build 0)  -->
<svg version="1.1" id="Capa_1" xmlns="http://www.w3.org/2000/svg" xmlns:xlink="http://www.w3.org/1999/xlink" x="0px" y="0px"
	 width="560.4px" height="327.8px" viewBox="-53 45.9 560.4 327.8" enable-background="new -53 45.9 560.4 327.8"
	 xml:space="preserve">
<g>
	<path d="M387.6,85.2h41.1c3.6,0,6.6-2.9,6.6-6.6s-2.9-6.6-6.6-6.6h-41.1c-3.6,0-6.6,2.9-6.6,6.6S384,85.2,387.6,85.2z"/>
	<path d="M157.7,85.2h231.8c3.6,0,6.6-2.9,6.6-6.6s-2.9-6.6-6.6-6.6H157.7c-3.6,0-6.6,2.9-6.6,6.6S154,85.2,157.7,85.2z"/>
	<path d="M494.3,191.2v-60.1V78.7c0-18.1-14.7-32.8-32.8-32.8H120.7c-18.1,0-32.8,14.7-32.8,32.8v262.2c0,18.1,14.7,32.8,32.8,32.8
		h340.9c18.1,0,32.8-14.7,32.8-32.8v-60.1c7.6-2.7,13.1-10,13.1-18.5v-52.5C507.4,201.2,501.9,193.9,494.3,191.2z M120.7,59h340.9
		c10.8,0,19.7,8.8,19.7,19.7v0c-5.5-4.1-12.3-6.6-19.7-6.6H428c-3.6,0-6.6,2.9-6.6,6.6s2.9,6.6,6.6,6.6h33.6
		c10.8,0,19.7,8.8,19.7,19.7v0c-5.5-4.1-12.3-6.6-19.7-6.6H120.7c-10.8,0-19.7-8.8-19.7-19.7C101,67.8,109.8,59,120.7,59z
		 M461.5,360.5H120.7c-10.8,0-19.7-8.8-19.7-19.7v-236c5.5,4.1,12.3,6.6,19.7,6.6h340.9c10.8,0,19.7,8.8,19.7,19.7v59h-78.7
		c-14.5,0-26.2,11.8-26.2,26.2v39.3c0,14.5,11.8,26.2,26.2,26.2h78.7v59C481.2,351.7,472.4,360.5,461.5,360.5z M494.3,262.2
		c0,3.6-2.9,6.6-6.6,6.6h-85.2c-7.2,0-13.1-5.9-13.1-13.1v-39.3c0-7.2,5.9-13.1,13.1-13.1h85.1c0,0,0.1,0,0.1,0c0,0,0,0,0,0
		c3.6,0,6.5,3,6.5,6.6V262.2z"/>
	<circle cx="423.5" cy="236.1" r="13.4"/>
</g>
<g>
	<g>
		<path d="M49.6,347.4L30.4,130.1L43.1,54c0.3-1.9-0.2-3.4-1.4-4.8c-1.2-1.4-3-1.9-4.9-1.9h-77c-1.9,0-3.7,0.4-4.9,1.9
			c-1.2,1.4-1.7,3.1-1.4,5l12.7,76.1L-53,347.5c-0.2,2.8,1.3,5.3,3.9,6.4l44.9,19.2c0.8,0.3,1.7,0.5,2.5,0.5s1.7-0.2,2.5-0.5
			l44.9-19.2C48.3,352.8,49.8,350.2,49.6,347.4z M29.2,60.1l-10.7,64.1h-40.4l-10.7-64.1H29.2z M24,203.3l-53.7,27l8.2-93.2h39.6
			L24,203.3z M-31.1,244.7c0,0,0.1,0,0.1-0.1l56.1-28l1.5,17L-33,266.2L-31.1,244.7z M-34.3,281.5l62.2-33.9l1.5,17.1
			c-0.7,0.1-1.4,0.3-2.1,0.7l-63.2,34.5L-34.3,281.5z M-1.7,360.2l-38.1-16.3l2.5-28.7c0,0,0.1,0,0.2-0.1l67.7-36.9l5.8,65.7
			L-1.7,360.2z"/>
	</g>
</g>
</svg>
