<?xml version="1.0" encoding="utf-8"?>
<!-- Generator: Adobe Illustrator 18.1.1, SVG Export Plug-In . SVG Version: 6.00 Build 0)  -->
<svg version="1.1" id="Layer_1" xmlns="http://www.w3.org/2000/svg" xmlns:xlink="http://www.w3.org/1999/xlink" x="0px" y="0px"
	 width="32.1px" height="40.1px" viewBox="-49 26.9 32.1 40.1" enable-background="new -49 26.9 32.1 40.1" xml:space="preserve">
<path fill="#7C7C7C" d="M-48.9,26.9h18.2c6,0,11.1,2.9,11.1,8.9c0,5-1.8,6.9-5.5,9.1c0.3,0.3,2.4,0.9,3.1,1.2
	c1.1,0.6,1.8,1.1,2.6,1.9c2.1,2.1,2.5,4.1,2.5,7.4c0,7.7-7.5,11.6-14.7,11.6H-49L-48.9,26.9L-48.9,26.9z M-39,37.4v5.2
	c4.7,0,9.1,0.6,9.1-4.5c0-4.7-5-3.9-9.1-3.9V37.4L-39,37.4z M-39,59.6c5.1,0,11.5,0.8,11.6-5c0.1-6.1-6.5-5-11.6-5V59.6L-39,59.6z"
	/>
</svg>
